%TF.GenerationSoftware,KiCad,Pcbnew,(5.1.9)-1*%
%TF.CreationDate,2021-02-27T14:08:49-05:00*%
%TF.ProjectId,IoT_Keyboard,496f545f-4b65-4796-926f-6172642e6b69,v1.0*%
%TF.SameCoordinates,Original*%
%TF.FileFunction,Soldermask,Top*%
%TF.FilePolarity,Negative*%
%FSLAX46Y46*%
G04 Gerber Fmt 4.6, Leading zero omitted, Abs format (unit mm)*
G04 Created by KiCad (PCBNEW (5.1.9)-1) date 2021-02-27 14:08:49*
%MOMM*%
%LPD*%
G01*
G04 APERTURE LIST*
%ADD10C,3.200000*%
%ADD11C,1.700000*%
%ADD12O,1.700000X1.700000*%
%ADD13R,1.700000X1.700000*%
%ADD14C,3.987800*%
%ADD15C,3.048000*%
%ADD16C,1.750000*%
%ADD17C,1.752600*%
%ADD18R,1.752600X1.752600*%
G04 APERTURE END LIST*
D10*
%TO.C,REF\u002A\u002A*%
X348456250Y-41275000D03*
%TD*%
%TO.C,REF\u002A\u002A*%
X348456250Y-130968750D03*
%TD*%
%TO.C,REF\u002A\u002A*%
X64293750Y-130968750D03*
%TD*%
%TO.C,REF\u002A\u002A*%
X64293750Y-41275000D03*
%TD*%
D11*
%TO.C,U2*%
X104475000Y-41018750D03*
D12*
X104475000Y-43558750D03*
X104475000Y-46098750D03*
X104475000Y-48638750D03*
X104475000Y-51178750D03*
D13*
X104475000Y-53718750D03*
%TD*%
D14*
%TO.C,MX57*%
X246056150Y-132873750D03*
X146056350Y-132873750D03*
D15*
X246056150Y-117633750D03*
X146056350Y-117633750D03*
D16*
X201136250Y-124618750D03*
X190976250Y-124618750D03*
D14*
X196056250Y-124618750D03*
%TD*%
D16*
%TO.C,MX61*%
X344011250Y-124618750D03*
X333851250Y-124618750D03*
D14*
X338931250Y-124618750D03*
%TD*%
D16*
%TO.C,MX59*%
X296386250Y-124618750D03*
X286226250Y-124618750D03*
D14*
X291306250Y-124618750D03*
%TD*%
D16*
%TO.C,MX54*%
X82073750Y-124618750D03*
X71913750Y-124618750D03*
D14*
X76993750Y-124618750D03*
%TD*%
D16*
%TO.C,MX58*%
X272573750Y-124618750D03*
X262413750Y-124618750D03*
D14*
X267493750Y-124618750D03*
%TD*%
D16*
%TO.C,MX60*%
X320198750Y-124618750D03*
X310038750Y-124618750D03*
D14*
X315118750Y-124618750D03*
%TD*%
D16*
%TO.C,MX56*%
X129698750Y-124618750D03*
X119538750Y-124618750D03*
D14*
X124618750Y-124618750D03*
%TD*%
D16*
%TO.C,MX55*%
X105886250Y-124618750D03*
X95726250Y-124618750D03*
D14*
X100806250Y-124618750D03*
%TD*%
D16*
%TO.C,MX15*%
X84455000Y-67468750D03*
X74295000Y-67468750D03*
D14*
X79375000Y-67468750D03*
%TD*%
D17*
%TO.C,U1*%
X93345000Y-61118750D03*
X93345000Y-63658750D03*
X93345000Y-66198750D03*
X93345000Y-68738750D03*
X93345000Y-71278750D03*
X65405000Y-73818750D03*
X93345000Y-58807350D03*
X67945000Y-73818750D03*
X70485000Y-73818750D03*
X73025000Y-73818750D03*
X75565000Y-73818750D03*
X78105000Y-73818750D03*
X80645000Y-73818750D03*
X83185000Y-73818750D03*
X85725000Y-73818750D03*
X88265000Y-73818750D03*
X90805000Y-73818750D03*
X93345000Y-73818750D03*
X90805000Y-58578750D03*
X88265000Y-58578750D03*
X85725000Y-58578750D03*
X83185000Y-58578750D03*
X80645000Y-58578750D03*
X78105000Y-58578750D03*
X75565000Y-58578750D03*
X73025000Y-58578750D03*
X70485000Y-58578750D03*
X67945000Y-58578750D03*
D18*
X65405000Y-58578750D03*
%TD*%
D14*
%TO.C,MX53*%
X336581750Y-113823750D03*
X312705750Y-113823750D03*
D15*
X336581750Y-98583750D03*
X312705750Y-98583750D03*
D16*
X329723750Y-105568750D03*
X319563750Y-105568750D03*
D14*
X324643750Y-105568750D03*
%TD*%
%TO.C,MX42*%
X98456750Y-113823750D03*
X74580750Y-113823750D03*
D15*
X98456750Y-98583750D03*
X74580750Y-98583750D03*
D16*
X91598750Y-105568750D03*
X81438750Y-105568750D03*
D14*
X86518750Y-105568750D03*
%TD*%
%TO.C,MX41*%
X341344250Y-94773750D03*
X317468250Y-94773750D03*
D15*
X341344250Y-79533750D03*
X317468250Y-79533750D03*
D16*
X334486250Y-86518750D03*
X324326250Y-86518750D03*
D14*
X329406250Y-86518750D03*
%TD*%
D16*
%TO.C,MX29*%
X86836250Y-86518750D03*
X76676250Y-86518750D03*
D14*
X81756250Y-86518750D03*
%TD*%
D16*
%TO.C,MX28*%
X341630000Y-67468750D03*
X331470000Y-67468750D03*
D14*
X336550000Y-67468750D03*
%TD*%
%TO.C,MX14*%
X343725500Y-56673750D03*
X319849500Y-56673750D03*
D15*
X343725500Y-41433750D03*
X319849500Y-41433750D03*
D16*
X336867500Y-48418750D03*
X326707500Y-48418750D03*
D14*
X331787500Y-48418750D03*
%TD*%
D16*
%TO.C,MX52*%
X294005000Y-105568750D03*
X283845000Y-105568750D03*
D14*
X288925000Y-105568750D03*
%TD*%
D16*
%TO.C,MX51*%
X274955000Y-105568750D03*
X264795000Y-105568750D03*
D14*
X269875000Y-105568750D03*
%TD*%
D16*
%TO.C,MX50*%
X255905000Y-105568750D03*
X245745000Y-105568750D03*
D14*
X250825000Y-105568750D03*
%TD*%
D16*
%TO.C,MX49*%
X236855000Y-105568750D03*
X226695000Y-105568750D03*
D14*
X231775000Y-105568750D03*
%TD*%
D16*
%TO.C,MX48*%
X217805000Y-105568750D03*
X207645000Y-105568750D03*
D14*
X212725000Y-105568750D03*
%TD*%
D16*
%TO.C,MX47*%
X198755000Y-105568750D03*
X188595000Y-105568750D03*
D14*
X193675000Y-105568750D03*
%TD*%
D16*
%TO.C,MX46*%
X179705000Y-105568750D03*
X169545000Y-105568750D03*
D14*
X174625000Y-105568750D03*
%TD*%
D16*
%TO.C,MX45*%
X160655000Y-105568750D03*
X150495000Y-105568750D03*
D14*
X155575000Y-105568750D03*
%TD*%
D16*
%TO.C,MX44*%
X141605000Y-105568750D03*
X131445000Y-105568750D03*
D14*
X136525000Y-105568750D03*
%TD*%
D16*
%TO.C,MX43*%
X122555000Y-105568750D03*
X112395000Y-105568750D03*
D14*
X117475000Y-105568750D03*
%TD*%
D16*
%TO.C,MX40*%
X303530000Y-86518750D03*
X293370000Y-86518750D03*
D14*
X298450000Y-86518750D03*
%TD*%
D16*
%TO.C,MX39*%
X284480000Y-86518750D03*
X274320000Y-86518750D03*
D14*
X279400000Y-86518750D03*
%TD*%
D16*
%TO.C,MX38*%
X265430000Y-86518750D03*
X255270000Y-86518750D03*
D14*
X260350000Y-86518750D03*
%TD*%
D16*
%TO.C,MX37*%
X246380000Y-86518750D03*
X236220000Y-86518750D03*
D14*
X241300000Y-86518750D03*
%TD*%
D16*
%TO.C,MX36*%
X227330000Y-86518750D03*
X217170000Y-86518750D03*
D14*
X222250000Y-86518750D03*
%TD*%
D16*
%TO.C,MX35*%
X208280000Y-86518750D03*
X198120000Y-86518750D03*
D14*
X203200000Y-86518750D03*
%TD*%
D16*
%TO.C,MX34*%
X189230000Y-86518750D03*
X179070000Y-86518750D03*
D14*
X184150000Y-86518750D03*
%TD*%
D16*
%TO.C,MX33*%
X170180000Y-86518750D03*
X160020000Y-86518750D03*
D14*
X165100000Y-86518750D03*
%TD*%
D16*
%TO.C,MX32*%
X151130000Y-86518750D03*
X140970000Y-86518750D03*
D14*
X146050000Y-86518750D03*
%TD*%
D16*
%TO.C,MX31*%
X132080000Y-86518750D03*
X121920000Y-86518750D03*
D14*
X127000000Y-86518750D03*
%TD*%
D16*
%TO.C,MX30*%
X113030000Y-86518750D03*
X102870000Y-86518750D03*
D14*
X107950000Y-86518750D03*
%TD*%
D16*
%TO.C,MX27*%
X317817500Y-67468750D03*
X307657500Y-67468750D03*
D14*
X312737500Y-67468750D03*
%TD*%
D16*
%TO.C,MX26*%
X298767500Y-67468750D03*
X288607500Y-67468750D03*
D14*
X293687500Y-67468750D03*
%TD*%
D16*
%TO.C,MX25*%
X279717500Y-67468750D03*
X269557500Y-67468750D03*
D14*
X274637500Y-67468750D03*
%TD*%
D16*
%TO.C,MX24*%
X260667500Y-67468750D03*
X250507500Y-67468750D03*
D14*
X255587500Y-67468750D03*
%TD*%
D16*
%TO.C,MX23*%
X241617500Y-67468750D03*
X231457500Y-67468750D03*
D14*
X236537500Y-67468750D03*
%TD*%
D16*
%TO.C,MX22*%
X222567500Y-67468750D03*
X212407500Y-67468750D03*
D14*
X217487500Y-67468750D03*
%TD*%
D16*
%TO.C,MX21*%
X203517500Y-67468750D03*
X193357500Y-67468750D03*
D14*
X198437500Y-67468750D03*
%TD*%
D16*
%TO.C,MX20*%
X184467500Y-67468750D03*
X174307500Y-67468750D03*
D14*
X179387500Y-67468750D03*
%TD*%
D16*
%TO.C,MX19*%
X165417500Y-67468750D03*
X155257500Y-67468750D03*
D14*
X160337500Y-67468750D03*
%TD*%
D16*
%TO.C,MX18*%
X146367500Y-67468750D03*
X136207500Y-67468750D03*
D14*
X141287500Y-67468750D03*
%TD*%
D16*
%TO.C,MX17*%
X127317500Y-67468750D03*
X117157500Y-67468750D03*
D14*
X122237500Y-67468750D03*
%TD*%
D16*
%TO.C,MX16*%
X108267500Y-67468750D03*
X98107500Y-67468750D03*
D14*
X103187500Y-67468750D03*
%TD*%
D16*
%TO.C,MX13*%
X308292500Y-48418750D03*
X298132500Y-48418750D03*
D14*
X303212500Y-48418750D03*
%TD*%
D16*
%TO.C,MX12*%
X289242500Y-48418750D03*
X279082500Y-48418750D03*
D14*
X284162500Y-48418750D03*
%TD*%
D16*
%TO.C,MX11*%
X270192500Y-48418750D03*
X260032500Y-48418750D03*
D14*
X265112500Y-48418750D03*
%TD*%
D16*
%TO.C,MX10*%
X251142500Y-48418750D03*
X240982500Y-48418750D03*
D14*
X246062500Y-48418750D03*
%TD*%
D16*
%TO.C,MX9*%
X232092500Y-48418750D03*
X221932500Y-48418750D03*
D14*
X227012500Y-48418750D03*
%TD*%
D16*
%TO.C,MX8*%
X213042500Y-48418750D03*
X202882500Y-48418750D03*
D14*
X207962500Y-48418750D03*
%TD*%
D16*
%TO.C,MX7*%
X193992500Y-48418750D03*
X183832500Y-48418750D03*
D14*
X188912500Y-48418750D03*
%TD*%
D16*
%TO.C,MX6*%
X174942500Y-48418750D03*
X164782500Y-48418750D03*
D14*
X169862500Y-48418750D03*
%TD*%
D16*
%TO.C,MX5*%
X155892500Y-48418750D03*
X145732500Y-48418750D03*
D14*
X150812500Y-48418750D03*
%TD*%
D16*
%TO.C,MX4*%
X136842500Y-48418750D03*
X126682500Y-48418750D03*
D14*
X131762500Y-48418750D03*
%TD*%
D16*
%TO.C,MX3*%
X117792500Y-48418750D03*
X107632500Y-48418750D03*
D14*
X112712500Y-48418750D03*
%TD*%
D16*
%TO.C,MX2*%
X98742500Y-48418750D03*
X88582500Y-48418750D03*
D14*
X93662500Y-48418750D03*
%TD*%
D16*
%TO.C,MX1*%
X79692500Y-48418750D03*
X69532500Y-48418750D03*
D14*
X74612500Y-48418750D03*
%TD*%
M02*
