%TF.GenerationSoftware,KiCad,Pcbnew,(5.1.9)-1*%
%TF.CreationDate,2021-02-27T14:08:49-05:00*%
%TF.ProjectId,IoT_Keyboard,496f545f-4b65-4796-926f-6172642e6b69,v1.0*%
%TF.SameCoordinates,Original*%
%TF.FileFunction,Copper,L2,Bot*%
%TF.FilePolarity,Positive*%
%FSLAX46Y46*%
G04 Gerber Fmt 4.6, Leading zero omitted, Abs format (unit mm)*
G04 Created by KiCad (PCBNEW (5.1.9)-1) date 2021-02-27 14:08:49*
%MOMM*%
%LPD*%
G01*
G04 APERTURE LIST*
%TA.AperFunction,ComponentPad*%
%ADD10C,1.700000*%
%TD*%
%TA.AperFunction,ComponentPad*%
%ADD11O,1.700000X1.700000*%
%TD*%
%TA.AperFunction,ComponentPad*%
%ADD12R,1.700000X1.700000*%
%TD*%
%TA.AperFunction,ComponentPad*%
%ADD13C,2.250000*%
%TD*%
%TA.AperFunction,SMDPad,CuDef*%
%ADD14R,3.250000X2.000000*%
%TD*%
%TA.AperFunction,SMDPad,CuDef*%
%ADD15R,2.000000X3.250000*%
%TD*%
%TA.AperFunction,ComponentPad*%
%ADD16C,1.752600*%
%TD*%
%TA.AperFunction,ComponentPad*%
%ADD17R,1.752600X1.752600*%
%TD*%
%TA.AperFunction,SMDPad,CuDef*%
%ADD18R,0.700000X0.500000*%
%TD*%
%TA.AperFunction,ViaPad*%
%ADD19C,0.800000*%
%TD*%
%TA.AperFunction,Conductor*%
%ADD20C,0.254000*%
%TD*%
%TA.AperFunction,Conductor*%
%ADD21C,0.381000*%
%TD*%
G04 APERTURE END LIST*
D10*
%TO.P,U2,6*%
%TO.N,Net-(U2-Pad6)*%
X104475000Y-41018750D03*
D11*
%TO.P,U2,5*%
%TO.N,Net-(R2-Pad1)*%
X104475000Y-43558750D03*
%TO.P,U2,4*%
%TO.N,Net-(U1-Pad2)*%
X104475000Y-46098750D03*
%TO.P,U2,3*%
%TO.N,GND*%
X104475000Y-48638750D03*
%TO.P,U2,2*%
%TO.N,Net-(R1-Pad2)*%
X104475000Y-51178750D03*
D12*
%TO.P,U2,1*%
%TO.N,Net-(U2-Pad1)*%
X104475000Y-53718750D03*
%TD*%
%TO.P,R3,1*%
%TO.N,GND*%
%TA.AperFunction,SMDPad,CuDef*%
G36*
G01*
X63443749Y-44402500D02*
X64343751Y-44402500D01*
G75*
G02*
X64593750Y-44652499I0J-249999D01*
G01*
X64593750Y-45177501D01*
G75*
G02*
X64343751Y-45427500I-249999J0D01*
G01*
X63443749Y-45427500D01*
G75*
G02*
X63193750Y-45177501I0J249999D01*
G01*
X63193750Y-44652499D01*
G75*
G02*
X63443749Y-44402500I249999J0D01*
G01*
G37*
%TD.AperFunction*%
%TO.P,R3,2*%
%TO.N,Net-(R2-Pad1)*%
%TA.AperFunction,SMDPad,CuDef*%
G36*
G01*
X63443749Y-46227500D02*
X64343751Y-46227500D01*
G75*
G02*
X64593750Y-46477499I0J-249999D01*
G01*
X64593750Y-47002501D01*
G75*
G02*
X64343751Y-47252500I-249999J0D01*
G01*
X63443749Y-47252500D01*
G75*
G02*
X63193750Y-47002501I0J249999D01*
G01*
X63193750Y-46477499D01*
G75*
G02*
X63443749Y-46227500I249999J0D01*
G01*
G37*
%TD.AperFunction*%
%TD*%
%TO.P,R2,1*%
%TO.N,Net-(R2-Pad1)*%
%TA.AperFunction,SMDPad,CuDef*%
G36*
G01*
X63443749Y-48812500D02*
X64343751Y-48812500D01*
G75*
G02*
X64593750Y-49062499I0J-249999D01*
G01*
X64593750Y-49587501D01*
G75*
G02*
X64343751Y-49837500I-249999J0D01*
G01*
X63443749Y-49837500D01*
G75*
G02*
X63193750Y-49587501I0J249999D01*
G01*
X63193750Y-49062499D01*
G75*
G02*
X63443749Y-48812500I249999J0D01*
G01*
G37*
%TD.AperFunction*%
%TO.P,R2,2*%
%TO.N,Net-(R2-Pad2)*%
%TA.AperFunction,SMDPad,CuDef*%
G36*
G01*
X63443749Y-50637500D02*
X64343751Y-50637500D01*
G75*
G02*
X64593750Y-50887499I0J-249999D01*
G01*
X64593750Y-51412501D01*
G75*
G02*
X64343751Y-51662500I-249999J0D01*
G01*
X63443749Y-51662500D01*
G75*
G02*
X63193750Y-51412501I0J249999D01*
G01*
X63193750Y-50887499D01*
G75*
G02*
X63443749Y-50637500I249999J0D01*
G01*
G37*
%TD.AperFunction*%
%TD*%
D13*
%TO.P,MX57,1*%
%TO.N,COL5*%
X193556250Y-120618750D03*
%TA.AperFunction,ComponentPad*%
G36*
G01*
X191494938Y-122916100D02*
X191494933Y-122916095D01*
G75*
G02*
X191408905Y-121327433I751317J837345D01*
G01*
X192718907Y-119867433D01*
G75*
G02*
X194307569Y-119781405I837345J-751317D01*
G01*
X194307569Y-119781405D01*
G75*
G02*
X194393597Y-121370067I-751317J-837345D01*
G01*
X193083595Y-122830067D01*
G75*
G02*
X191494933Y-122916095I-837345J751317D01*
G01*
G37*
%TD.AperFunction*%
%TO.P,MX57,2*%
%TO.N,Net-(D57-Pad2)*%
X198596250Y-119538750D03*
%TA.AperFunction,ComponentPad*%
G36*
G01*
X198479733Y-121241145D02*
X198478847Y-121241084D01*
G75*
G02*
X197433916Y-120041347I77403J1122334D01*
G01*
X197473916Y-119461347D01*
G75*
G02*
X198673653Y-118416416I1122334J-77403D01*
G01*
X198673653Y-118416416D01*
G75*
G02*
X199718584Y-119616153I-77403J-1122334D01*
G01*
X199678584Y-120196153D01*
G75*
G02*
X198478847Y-121241084I-1122334J77403D01*
G01*
G37*
%TD.AperFunction*%
%TD*%
%TO.P,MX61,1*%
%TO.N,COL13*%
X336431250Y-120618750D03*
%TA.AperFunction,ComponentPad*%
G36*
G01*
X334369938Y-122916100D02*
X334369933Y-122916095D01*
G75*
G02*
X334283905Y-121327433I751317J837345D01*
G01*
X335593907Y-119867433D01*
G75*
G02*
X337182569Y-119781405I837345J-751317D01*
G01*
X337182569Y-119781405D01*
G75*
G02*
X337268597Y-121370067I-751317J-837345D01*
G01*
X335958595Y-122830067D01*
G75*
G02*
X334369933Y-122916095I-837345J751317D01*
G01*
G37*
%TD.AperFunction*%
%TO.P,MX61,2*%
%TO.N,Net-(D61-Pad2)*%
X341471250Y-119538750D03*
%TA.AperFunction,ComponentPad*%
G36*
G01*
X341354733Y-121241145D02*
X341353847Y-121241084D01*
G75*
G02*
X340308916Y-120041347I77403J1122334D01*
G01*
X340348916Y-119461347D01*
G75*
G02*
X341548653Y-118416416I1122334J-77403D01*
G01*
X341548653Y-118416416D01*
G75*
G02*
X342593584Y-119616153I-77403J-1122334D01*
G01*
X342553584Y-120196153D01*
G75*
G02*
X341353847Y-121241084I-1122334J77403D01*
G01*
G37*
%TD.AperFunction*%
%TD*%
%TO.P,MX59,1*%
%TO.N,COL10*%
X288806250Y-120618750D03*
%TA.AperFunction,ComponentPad*%
G36*
G01*
X286744938Y-122916100D02*
X286744933Y-122916095D01*
G75*
G02*
X286658905Y-121327433I751317J837345D01*
G01*
X287968907Y-119867433D01*
G75*
G02*
X289557569Y-119781405I837345J-751317D01*
G01*
X289557569Y-119781405D01*
G75*
G02*
X289643597Y-121370067I-751317J-837345D01*
G01*
X288333595Y-122830067D01*
G75*
G02*
X286744933Y-122916095I-837345J751317D01*
G01*
G37*
%TD.AperFunction*%
%TO.P,MX59,2*%
%TO.N,Net-(D59-Pad2)*%
X293846250Y-119538750D03*
%TA.AperFunction,ComponentPad*%
G36*
G01*
X293729733Y-121241145D02*
X293728847Y-121241084D01*
G75*
G02*
X292683916Y-120041347I77403J1122334D01*
G01*
X292723916Y-119461347D01*
G75*
G02*
X293923653Y-118416416I1122334J-77403D01*
G01*
X293923653Y-118416416D01*
G75*
G02*
X294968584Y-119616153I-77403J-1122334D01*
G01*
X294928584Y-120196153D01*
G75*
G02*
X293728847Y-121241084I-1122334J77403D01*
G01*
G37*
%TD.AperFunction*%
%TD*%
%TO.P,MX54,1*%
%TO.N,COL0*%
X74493750Y-120618750D03*
%TA.AperFunction,ComponentPad*%
G36*
G01*
X72432438Y-122916100D02*
X72432433Y-122916095D01*
G75*
G02*
X72346405Y-121327433I751317J837345D01*
G01*
X73656407Y-119867433D01*
G75*
G02*
X75245069Y-119781405I837345J-751317D01*
G01*
X75245069Y-119781405D01*
G75*
G02*
X75331097Y-121370067I-751317J-837345D01*
G01*
X74021095Y-122830067D01*
G75*
G02*
X72432433Y-122916095I-837345J751317D01*
G01*
G37*
%TD.AperFunction*%
%TO.P,MX54,2*%
%TO.N,Net-(D54-Pad2)*%
X79533750Y-119538750D03*
%TA.AperFunction,ComponentPad*%
G36*
G01*
X79417233Y-121241145D02*
X79416347Y-121241084D01*
G75*
G02*
X78371416Y-120041347I77403J1122334D01*
G01*
X78411416Y-119461347D01*
G75*
G02*
X79611153Y-118416416I1122334J-77403D01*
G01*
X79611153Y-118416416D01*
G75*
G02*
X80656084Y-119616153I-77403J-1122334D01*
G01*
X80616084Y-120196153D01*
G75*
G02*
X79416347Y-121241084I-1122334J77403D01*
G01*
G37*
%TD.AperFunction*%
%TD*%
%TO.P,MX58,1*%
%TO.N,COL9*%
X264993750Y-120618750D03*
%TA.AperFunction,ComponentPad*%
G36*
G01*
X262932438Y-122916100D02*
X262932433Y-122916095D01*
G75*
G02*
X262846405Y-121327433I751317J837345D01*
G01*
X264156407Y-119867433D01*
G75*
G02*
X265745069Y-119781405I837345J-751317D01*
G01*
X265745069Y-119781405D01*
G75*
G02*
X265831097Y-121370067I-751317J-837345D01*
G01*
X264521095Y-122830067D01*
G75*
G02*
X262932433Y-122916095I-837345J751317D01*
G01*
G37*
%TD.AperFunction*%
%TO.P,MX58,2*%
%TO.N,Net-(D58-Pad2)*%
X270033750Y-119538750D03*
%TA.AperFunction,ComponentPad*%
G36*
G01*
X269917233Y-121241145D02*
X269916347Y-121241084D01*
G75*
G02*
X268871416Y-120041347I77403J1122334D01*
G01*
X268911416Y-119461347D01*
G75*
G02*
X270111153Y-118416416I1122334J-77403D01*
G01*
X270111153Y-118416416D01*
G75*
G02*
X271156084Y-119616153I-77403J-1122334D01*
G01*
X271116084Y-120196153D01*
G75*
G02*
X269916347Y-121241084I-1122334J77403D01*
G01*
G37*
%TD.AperFunction*%
%TD*%
%TO.P,MX60,1*%
%TO.N,COL12*%
X312618750Y-120618750D03*
%TA.AperFunction,ComponentPad*%
G36*
G01*
X310557438Y-122916100D02*
X310557433Y-122916095D01*
G75*
G02*
X310471405Y-121327433I751317J837345D01*
G01*
X311781407Y-119867433D01*
G75*
G02*
X313370069Y-119781405I837345J-751317D01*
G01*
X313370069Y-119781405D01*
G75*
G02*
X313456097Y-121370067I-751317J-837345D01*
G01*
X312146095Y-122830067D01*
G75*
G02*
X310557433Y-122916095I-837345J751317D01*
G01*
G37*
%TD.AperFunction*%
%TO.P,MX60,2*%
%TO.N,Net-(D60-Pad2)*%
X317658750Y-119538750D03*
%TA.AperFunction,ComponentPad*%
G36*
G01*
X317542233Y-121241145D02*
X317541347Y-121241084D01*
G75*
G02*
X316496416Y-120041347I77403J1122334D01*
G01*
X316536416Y-119461347D01*
G75*
G02*
X317736153Y-118416416I1122334J-77403D01*
G01*
X317736153Y-118416416D01*
G75*
G02*
X318781084Y-119616153I-77403J-1122334D01*
G01*
X318741084Y-120196153D01*
G75*
G02*
X317541347Y-121241084I-1122334J77403D01*
G01*
G37*
%TD.AperFunction*%
%TD*%
%TO.P,MX56,1*%
%TO.N,COL2*%
X122118750Y-120618750D03*
%TA.AperFunction,ComponentPad*%
G36*
G01*
X120057438Y-122916100D02*
X120057433Y-122916095D01*
G75*
G02*
X119971405Y-121327433I751317J837345D01*
G01*
X121281407Y-119867433D01*
G75*
G02*
X122870069Y-119781405I837345J-751317D01*
G01*
X122870069Y-119781405D01*
G75*
G02*
X122956097Y-121370067I-751317J-837345D01*
G01*
X121646095Y-122830067D01*
G75*
G02*
X120057433Y-122916095I-837345J751317D01*
G01*
G37*
%TD.AperFunction*%
%TO.P,MX56,2*%
%TO.N,Net-(D56-Pad2)*%
X127158750Y-119538750D03*
%TA.AperFunction,ComponentPad*%
G36*
G01*
X127042233Y-121241145D02*
X127041347Y-121241084D01*
G75*
G02*
X125996416Y-120041347I77403J1122334D01*
G01*
X126036416Y-119461347D01*
G75*
G02*
X127236153Y-118416416I1122334J-77403D01*
G01*
X127236153Y-118416416D01*
G75*
G02*
X128281084Y-119616153I-77403J-1122334D01*
G01*
X128241084Y-120196153D01*
G75*
G02*
X127041347Y-121241084I-1122334J77403D01*
G01*
G37*
%TD.AperFunction*%
%TD*%
%TO.P,MX55,1*%
%TO.N,COL1*%
X98306250Y-120618750D03*
%TA.AperFunction,ComponentPad*%
G36*
G01*
X96244938Y-122916100D02*
X96244933Y-122916095D01*
G75*
G02*
X96158905Y-121327433I751317J837345D01*
G01*
X97468907Y-119867433D01*
G75*
G02*
X99057569Y-119781405I837345J-751317D01*
G01*
X99057569Y-119781405D01*
G75*
G02*
X99143597Y-121370067I-751317J-837345D01*
G01*
X97833595Y-122830067D01*
G75*
G02*
X96244933Y-122916095I-837345J751317D01*
G01*
G37*
%TD.AperFunction*%
%TO.P,MX55,2*%
%TO.N,Net-(D55-Pad2)*%
X103346250Y-119538750D03*
%TA.AperFunction,ComponentPad*%
G36*
G01*
X103229733Y-121241145D02*
X103228847Y-121241084D01*
G75*
G02*
X102183916Y-120041347I77403J1122334D01*
G01*
X102223916Y-119461347D01*
G75*
G02*
X103423653Y-118416416I1122334J-77403D01*
G01*
X103423653Y-118416416D01*
G75*
G02*
X104468584Y-119616153I-77403J-1122334D01*
G01*
X104428584Y-120196153D01*
G75*
G02*
X103228847Y-121241084I-1122334J77403D01*
G01*
G37*
%TD.AperFunction*%
%TD*%
%TO.P,MX15,1*%
%TO.N,COL0*%
X76875000Y-63468750D03*
%TA.AperFunction,ComponentPad*%
G36*
G01*
X74813688Y-65766100D02*
X74813683Y-65766095D01*
G75*
G02*
X74727655Y-64177433I751317J837345D01*
G01*
X76037657Y-62717433D01*
G75*
G02*
X77626319Y-62631405I837345J-751317D01*
G01*
X77626319Y-62631405D01*
G75*
G02*
X77712347Y-64220067I-751317J-837345D01*
G01*
X76402345Y-65680067D01*
G75*
G02*
X74813683Y-65766095I-837345J751317D01*
G01*
G37*
%TD.AperFunction*%
%TO.P,MX15,2*%
%TO.N,Net-(D15-Pad2)*%
X81915000Y-62388750D03*
%TA.AperFunction,ComponentPad*%
G36*
G01*
X81798483Y-64091145D02*
X81797597Y-64091084D01*
G75*
G02*
X80752666Y-62891347I77403J1122334D01*
G01*
X80792666Y-62311347D01*
G75*
G02*
X81992403Y-61266416I1122334J-77403D01*
G01*
X81992403Y-61266416D01*
G75*
G02*
X83037334Y-62466153I-77403J-1122334D01*
G01*
X82997334Y-63046153D01*
G75*
G02*
X81797597Y-64091084I-1122334J77403D01*
G01*
G37*
%TD.AperFunction*%
%TD*%
D14*
%TO.P,U1,29*%
%TO.N,ROW3*%
X95250000Y-71278750D03*
%TO.P,U1,28*%
%TO.N,Net-(U1-Pad28)*%
X95250000Y-68738750D03*
%TO.P,U1,27*%
%TO.N,Net-(U1-Pad27)*%
X95250000Y-66198750D03*
%TO.P,U1,26*%
%TO.N,Net-(U1-Pad26)*%
X95250000Y-63658750D03*
%TO.P,U1,25*%
%TO.N,ROW4*%
X95250000Y-61118750D03*
D15*
%TO.P,U1,24*%
%TO.N,COL0*%
X65405000Y-75596750D03*
%TO.P,U1,23*%
%TO.N,GND*%
X67945000Y-75596750D03*
%TO.P,U1,22*%
%TO.N,Net-(R1-Pad1)*%
X70485000Y-75596750D03*
%TO.P,U1,21*%
%TO.N,Net-(R1-Pad2)*%
X73025000Y-75596750D03*
%TO.P,U1,20*%
%TO.N,COL13*%
X75565000Y-75596750D03*
%TO.P,U1,19*%
%TO.N,ROW2*%
X78105000Y-75596750D03*
%TO.P,U1,18*%
%TO.N,COL1*%
X80645000Y-75596750D03*
%TO.P,U1,17*%
%TO.N,COL2*%
X83185000Y-75596750D03*
%TO.P,U1,16*%
%TO.N,COL3*%
X85725000Y-75596750D03*
%TO.P,U1,15*%
%TO.N,COL4*%
X88265000Y-75596750D03*
%TO.P,U1,14*%
%TO.N,COL5*%
X90805000Y-75596750D03*
%TO.P,U1,13*%
%TO.N,COL6*%
X93345000Y-75596750D03*
%TO.P,U1,12*%
%TO.N,COL12*%
X93345000Y-56800750D03*
%TO.P,U1,11*%
%TO.N,COL11*%
X90805000Y-56800750D03*
%TO.P,U1,10*%
%TO.N,COL10*%
X88265000Y-56800750D03*
%TO.P,U1,9*%
%TO.N,COL9*%
X85725000Y-56800750D03*
%TO.P,U1,8*%
%TO.N,COL8*%
X83185000Y-56800750D03*
%TO.P,U1,7*%
%TO.N,COL7*%
X80645000Y-56800750D03*
%TO.P,U1,6*%
%TO.N,ROW1*%
X78105000Y-56800750D03*
%TO.P,U1,5*%
%TO.N,ROW0*%
X75565000Y-56800750D03*
%TO.P,U1,4*%
%TO.N,GND*%
X73025000Y-56800750D03*
%TO.P,U1,3*%
X70485000Y-56800750D03*
%TO.P,U1,2*%
%TO.N,Net-(U1-Pad2)*%
X67945000Y-56800750D03*
%TO.P,U1,1*%
%TO.N,Net-(R2-Pad2)*%
X65405000Y-56800750D03*
D16*
%TO.P,U1,25*%
%TO.N,ROW4*%
X93345000Y-61118750D03*
%TO.P,U1,26*%
%TO.N,Net-(U1-Pad26)*%
X93345000Y-63658750D03*
%TO.P,U1,27*%
%TO.N,Net-(U1-Pad27)*%
X93345000Y-66198750D03*
%TO.P,U1,28*%
%TO.N,Net-(U1-Pad28)*%
X93345000Y-68738750D03*
%TO.P,U1,29*%
%TO.N,ROW3*%
X93345000Y-71278750D03*
%TO.P,U1,24*%
%TO.N,COL0*%
X65405000Y-73818750D03*
%TO.P,U1,12*%
%TO.N,COL12*%
X93345000Y-58807350D03*
%TO.P,U1,23*%
%TO.N,GND*%
X67945000Y-73818750D03*
%TO.P,U1,22*%
%TO.N,Net-(R1-Pad1)*%
X70485000Y-73818750D03*
%TO.P,U1,21*%
%TO.N,Net-(R1-Pad2)*%
X73025000Y-73818750D03*
%TO.P,U1,20*%
%TO.N,COL13*%
X75565000Y-73818750D03*
%TO.P,U1,19*%
%TO.N,ROW2*%
X78105000Y-73818750D03*
%TO.P,U1,18*%
%TO.N,COL1*%
X80645000Y-73818750D03*
%TO.P,U1,17*%
%TO.N,COL2*%
X83185000Y-73818750D03*
%TO.P,U1,16*%
%TO.N,COL3*%
X85725000Y-73818750D03*
%TO.P,U1,15*%
%TO.N,COL4*%
X88265000Y-73818750D03*
%TO.P,U1,14*%
%TO.N,COL5*%
X90805000Y-73818750D03*
%TO.P,U1,13*%
%TO.N,COL6*%
X93345000Y-73818750D03*
%TO.P,U1,11*%
%TO.N,COL11*%
X90805000Y-58578750D03*
%TO.P,U1,10*%
%TO.N,COL10*%
X88265000Y-58578750D03*
%TO.P,U1,9*%
%TO.N,COL9*%
X85725000Y-58578750D03*
%TO.P,U1,8*%
%TO.N,COL8*%
X83185000Y-58578750D03*
%TO.P,U1,7*%
%TO.N,COL7*%
X80645000Y-58578750D03*
%TO.P,U1,6*%
%TO.N,ROW1*%
X78105000Y-58578750D03*
%TO.P,U1,5*%
%TO.N,ROW0*%
X75565000Y-58578750D03*
%TO.P,U1,4*%
%TO.N,GND*%
X73025000Y-58578750D03*
%TO.P,U1,3*%
X70485000Y-58578750D03*
%TO.P,U1,2*%
%TO.N,Net-(U1-Pad2)*%
X67945000Y-58578750D03*
D17*
%TO.P,U1,1*%
%TO.N,Net-(R2-Pad2)*%
X65405000Y-58578750D03*
%TD*%
D13*
%TO.P,MX53,1*%
%TO.N,COL13*%
X322143750Y-101568750D03*
%TA.AperFunction,ComponentPad*%
G36*
G01*
X320082438Y-103866100D02*
X320082433Y-103866095D01*
G75*
G02*
X319996405Y-102277433I751317J837345D01*
G01*
X321306407Y-100817433D01*
G75*
G02*
X322895069Y-100731405I837345J-751317D01*
G01*
X322895069Y-100731405D01*
G75*
G02*
X322981097Y-102320067I-751317J-837345D01*
G01*
X321671095Y-103780067D01*
G75*
G02*
X320082433Y-103866095I-837345J751317D01*
G01*
G37*
%TD.AperFunction*%
%TO.P,MX53,2*%
%TO.N,Net-(D53-Pad2)*%
X327183750Y-100488750D03*
%TA.AperFunction,ComponentPad*%
G36*
G01*
X327067233Y-102191145D02*
X327066347Y-102191084D01*
G75*
G02*
X326021416Y-100991347I77403J1122334D01*
G01*
X326061416Y-100411347D01*
G75*
G02*
X327261153Y-99366416I1122334J-77403D01*
G01*
X327261153Y-99366416D01*
G75*
G02*
X328306084Y-100566153I-77403J-1122334D01*
G01*
X328266084Y-101146153D01*
G75*
G02*
X327066347Y-102191084I-1122334J77403D01*
G01*
G37*
%TD.AperFunction*%
%TD*%
%TO.P,MX42,1*%
%TO.N,COL0*%
X84018750Y-101568750D03*
%TA.AperFunction,ComponentPad*%
G36*
G01*
X81957438Y-103866100D02*
X81957433Y-103866095D01*
G75*
G02*
X81871405Y-102277433I751317J837345D01*
G01*
X83181407Y-100817433D01*
G75*
G02*
X84770069Y-100731405I837345J-751317D01*
G01*
X84770069Y-100731405D01*
G75*
G02*
X84856097Y-102320067I-751317J-837345D01*
G01*
X83546095Y-103780067D01*
G75*
G02*
X81957433Y-103866095I-837345J751317D01*
G01*
G37*
%TD.AperFunction*%
%TO.P,MX42,2*%
%TO.N,Net-(D42-Pad2)*%
X89058750Y-100488750D03*
%TA.AperFunction,ComponentPad*%
G36*
G01*
X88942233Y-102191145D02*
X88941347Y-102191084D01*
G75*
G02*
X87896416Y-100991347I77403J1122334D01*
G01*
X87936416Y-100411347D01*
G75*
G02*
X89136153Y-99366416I1122334J-77403D01*
G01*
X89136153Y-99366416D01*
G75*
G02*
X90181084Y-100566153I-77403J-1122334D01*
G01*
X90141084Y-101146153D01*
G75*
G02*
X88941347Y-102191084I-1122334J77403D01*
G01*
G37*
%TD.AperFunction*%
%TD*%
%TO.P,MX41,1*%
%TO.N,COL13*%
X326906250Y-82518750D03*
%TA.AperFunction,ComponentPad*%
G36*
G01*
X324844938Y-84816100D02*
X324844933Y-84816095D01*
G75*
G02*
X324758905Y-83227433I751317J837345D01*
G01*
X326068907Y-81767433D01*
G75*
G02*
X327657569Y-81681405I837345J-751317D01*
G01*
X327657569Y-81681405D01*
G75*
G02*
X327743597Y-83270067I-751317J-837345D01*
G01*
X326433595Y-84730067D01*
G75*
G02*
X324844933Y-84816095I-837345J751317D01*
G01*
G37*
%TD.AperFunction*%
%TO.P,MX41,2*%
%TO.N,Net-(D41-Pad2)*%
X331946250Y-81438750D03*
%TA.AperFunction,ComponentPad*%
G36*
G01*
X331829733Y-83141145D02*
X331828847Y-83141084D01*
G75*
G02*
X330783916Y-81941347I77403J1122334D01*
G01*
X330823916Y-81361347D01*
G75*
G02*
X332023653Y-80316416I1122334J-77403D01*
G01*
X332023653Y-80316416D01*
G75*
G02*
X333068584Y-81516153I-77403J-1122334D01*
G01*
X333028584Y-82096153D01*
G75*
G02*
X331828847Y-83141084I-1122334J77403D01*
G01*
G37*
%TD.AperFunction*%
%TD*%
%TO.P,MX29,1*%
%TO.N,COL0*%
X79256250Y-82518750D03*
%TA.AperFunction,ComponentPad*%
G36*
G01*
X77194938Y-84816100D02*
X77194933Y-84816095D01*
G75*
G02*
X77108905Y-83227433I751317J837345D01*
G01*
X78418907Y-81767433D01*
G75*
G02*
X80007569Y-81681405I837345J-751317D01*
G01*
X80007569Y-81681405D01*
G75*
G02*
X80093597Y-83270067I-751317J-837345D01*
G01*
X78783595Y-84730067D01*
G75*
G02*
X77194933Y-84816095I-837345J751317D01*
G01*
G37*
%TD.AperFunction*%
%TO.P,MX29,2*%
%TO.N,Net-(D29-Pad2)*%
X84296250Y-81438750D03*
%TA.AperFunction,ComponentPad*%
G36*
G01*
X84179733Y-83141145D02*
X84178847Y-83141084D01*
G75*
G02*
X83133916Y-81941347I77403J1122334D01*
G01*
X83173916Y-81361347D01*
G75*
G02*
X84373653Y-80316416I1122334J-77403D01*
G01*
X84373653Y-80316416D01*
G75*
G02*
X85418584Y-81516153I-77403J-1122334D01*
G01*
X85378584Y-82096153D01*
G75*
G02*
X84178847Y-83141084I-1122334J77403D01*
G01*
G37*
%TD.AperFunction*%
%TD*%
%TO.P,MX28,1*%
%TO.N,COL13*%
X334050000Y-63468750D03*
%TA.AperFunction,ComponentPad*%
G36*
G01*
X331988688Y-65766100D02*
X331988683Y-65766095D01*
G75*
G02*
X331902655Y-64177433I751317J837345D01*
G01*
X333212657Y-62717433D01*
G75*
G02*
X334801319Y-62631405I837345J-751317D01*
G01*
X334801319Y-62631405D01*
G75*
G02*
X334887347Y-64220067I-751317J-837345D01*
G01*
X333577345Y-65680067D01*
G75*
G02*
X331988683Y-65766095I-837345J751317D01*
G01*
G37*
%TD.AperFunction*%
%TO.P,MX28,2*%
%TO.N,Net-(D28-Pad2)*%
X339090000Y-62388750D03*
%TA.AperFunction,ComponentPad*%
G36*
G01*
X338973483Y-64091145D02*
X338972597Y-64091084D01*
G75*
G02*
X337927666Y-62891347I77403J1122334D01*
G01*
X337967666Y-62311347D01*
G75*
G02*
X339167403Y-61266416I1122334J-77403D01*
G01*
X339167403Y-61266416D01*
G75*
G02*
X340212334Y-62466153I-77403J-1122334D01*
G01*
X340172334Y-63046153D01*
G75*
G02*
X338972597Y-64091084I-1122334J77403D01*
G01*
G37*
%TD.AperFunction*%
%TD*%
%TO.P,MX14,1*%
%TO.N,COL13*%
X329287500Y-44418750D03*
%TA.AperFunction,ComponentPad*%
G36*
G01*
X327226188Y-46716100D02*
X327226183Y-46716095D01*
G75*
G02*
X327140155Y-45127433I751317J837345D01*
G01*
X328450157Y-43667433D01*
G75*
G02*
X330038819Y-43581405I837345J-751317D01*
G01*
X330038819Y-43581405D01*
G75*
G02*
X330124847Y-45170067I-751317J-837345D01*
G01*
X328814845Y-46630067D01*
G75*
G02*
X327226183Y-46716095I-837345J751317D01*
G01*
G37*
%TD.AperFunction*%
%TO.P,MX14,2*%
%TO.N,Net-(D14-Pad2)*%
X334327500Y-43338750D03*
%TA.AperFunction,ComponentPad*%
G36*
G01*
X334210983Y-45041145D02*
X334210097Y-45041084D01*
G75*
G02*
X333165166Y-43841347I77403J1122334D01*
G01*
X333205166Y-43261347D01*
G75*
G02*
X334404903Y-42216416I1122334J-77403D01*
G01*
X334404903Y-42216416D01*
G75*
G02*
X335449834Y-43416153I-77403J-1122334D01*
G01*
X335409834Y-43996153D01*
G75*
G02*
X334210097Y-45041084I-1122334J77403D01*
G01*
G37*
%TD.AperFunction*%
%TD*%
D18*
%TO.P,SW1,2*%
%TO.N,GND*%
X69268750Y-80656250D03*
X65668750Y-80656250D03*
%TO.P,SW1,1*%
%TO.N,Net-(R1-Pad1)*%
X69268750Y-82856250D03*
X65668750Y-82856250D03*
%TD*%
%TO.P,R1,2*%
%TO.N,Net-(R1-Pad2)*%
%TA.AperFunction,SMDPad,CuDef*%
G36*
G01*
X73425000Y-81412501D02*
X73425000Y-80512499D01*
G75*
G02*
X73674999Y-80262500I249999J0D01*
G01*
X74200001Y-80262500D01*
G75*
G02*
X74450000Y-80512499I0J-249999D01*
G01*
X74450000Y-81412501D01*
G75*
G02*
X74200001Y-81662500I-249999J0D01*
G01*
X73674999Y-81662500D01*
G75*
G02*
X73425000Y-81412501I0J249999D01*
G01*
G37*
%TD.AperFunction*%
%TO.P,R1,1*%
%TO.N,Net-(R1-Pad1)*%
%TA.AperFunction,SMDPad,CuDef*%
G36*
G01*
X71600000Y-81412501D02*
X71600000Y-80512499D01*
G75*
G02*
X71849999Y-80262500I249999J0D01*
G01*
X72375001Y-80262500D01*
G75*
G02*
X72625000Y-80512499I0J-249999D01*
G01*
X72625000Y-81412501D01*
G75*
G02*
X72375001Y-81662500I-249999J0D01*
G01*
X71849999Y-81662500D01*
G75*
G02*
X71600000Y-81412501I0J249999D01*
G01*
G37*
%TD.AperFunction*%
%TD*%
D13*
%TO.P,MX52,1*%
%TO.N,COL10*%
X286425000Y-101568750D03*
%TA.AperFunction,ComponentPad*%
G36*
G01*
X284363688Y-103866100D02*
X284363683Y-103866095D01*
G75*
G02*
X284277655Y-102277433I751317J837345D01*
G01*
X285587657Y-100817433D01*
G75*
G02*
X287176319Y-100731405I837345J-751317D01*
G01*
X287176319Y-100731405D01*
G75*
G02*
X287262347Y-102320067I-751317J-837345D01*
G01*
X285952345Y-103780067D01*
G75*
G02*
X284363683Y-103866095I-837345J751317D01*
G01*
G37*
%TD.AperFunction*%
%TO.P,MX52,2*%
%TO.N,Net-(D52-Pad2)*%
X291465000Y-100488750D03*
%TA.AperFunction,ComponentPad*%
G36*
G01*
X291348483Y-102191145D02*
X291347597Y-102191084D01*
G75*
G02*
X290302666Y-100991347I77403J1122334D01*
G01*
X290342666Y-100411347D01*
G75*
G02*
X291542403Y-99366416I1122334J-77403D01*
G01*
X291542403Y-99366416D01*
G75*
G02*
X292587334Y-100566153I-77403J-1122334D01*
G01*
X292547334Y-101146153D01*
G75*
G02*
X291347597Y-102191084I-1122334J77403D01*
G01*
G37*
%TD.AperFunction*%
%TD*%
%TO.P,MX51,1*%
%TO.N,COL9*%
X267375000Y-101568750D03*
%TA.AperFunction,ComponentPad*%
G36*
G01*
X265313688Y-103866100D02*
X265313683Y-103866095D01*
G75*
G02*
X265227655Y-102277433I751317J837345D01*
G01*
X266537657Y-100817433D01*
G75*
G02*
X268126319Y-100731405I837345J-751317D01*
G01*
X268126319Y-100731405D01*
G75*
G02*
X268212347Y-102320067I-751317J-837345D01*
G01*
X266902345Y-103780067D01*
G75*
G02*
X265313683Y-103866095I-837345J751317D01*
G01*
G37*
%TD.AperFunction*%
%TO.P,MX51,2*%
%TO.N,Net-(D51-Pad2)*%
X272415000Y-100488750D03*
%TA.AperFunction,ComponentPad*%
G36*
G01*
X272298483Y-102191145D02*
X272297597Y-102191084D01*
G75*
G02*
X271252666Y-100991347I77403J1122334D01*
G01*
X271292666Y-100411347D01*
G75*
G02*
X272492403Y-99366416I1122334J-77403D01*
G01*
X272492403Y-99366416D01*
G75*
G02*
X273537334Y-100566153I-77403J-1122334D01*
G01*
X273497334Y-101146153D01*
G75*
G02*
X272297597Y-102191084I-1122334J77403D01*
G01*
G37*
%TD.AperFunction*%
%TD*%
%TO.P,MX50,1*%
%TO.N,COL8*%
X248325000Y-101568750D03*
%TA.AperFunction,ComponentPad*%
G36*
G01*
X246263688Y-103866100D02*
X246263683Y-103866095D01*
G75*
G02*
X246177655Y-102277433I751317J837345D01*
G01*
X247487657Y-100817433D01*
G75*
G02*
X249076319Y-100731405I837345J-751317D01*
G01*
X249076319Y-100731405D01*
G75*
G02*
X249162347Y-102320067I-751317J-837345D01*
G01*
X247852345Y-103780067D01*
G75*
G02*
X246263683Y-103866095I-837345J751317D01*
G01*
G37*
%TD.AperFunction*%
%TO.P,MX50,2*%
%TO.N,Net-(D50-Pad2)*%
X253365000Y-100488750D03*
%TA.AperFunction,ComponentPad*%
G36*
G01*
X253248483Y-102191145D02*
X253247597Y-102191084D01*
G75*
G02*
X252202666Y-100991347I77403J1122334D01*
G01*
X252242666Y-100411347D01*
G75*
G02*
X253442403Y-99366416I1122334J-77403D01*
G01*
X253442403Y-99366416D01*
G75*
G02*
X254487334Y-100566153I-77403J-1122334D01*
G01*
X254447334Y-101146153D01*
G75*
G02*
X253247597Y-102191084I-1122334J77403D01*
G01*
G37*
%TD.AperFunction*%
%TD*%
%TO.P,MX49,1*%
%TO.N,COL7*%
X229275000Y-101568750D03*
%TA.AperFunction,ComponentPad*%
G36*
G01*
X227213688Y-103866100D02*
X227213683Y-103866095D01*
G75*
G02*
X227127655Y-102277433I751317J837345D01*
G01*
X228437657Y-100817433D01*
G75*
G02*
X230026319Y-100731405I837345J-751317D01*
G01*
X230026319Y-100731405D01*
G75*
G02*
X230112347Y-102320067I-751317J-837345D01*
G01*
X228802345Y-103780067D01*
G75*
G02*
X227213683Y-103866095I-837345J751317D01*
G01*
G37*
%TD.AperFunction*%
%TO.P,MX49,2*%
%TO.N,Net-(D49-Pad2)*%
X234315000Y-100488750D03*
%TA.AperFunction,ComponentPad*%
G36*
G01*
X234198483Y-102191145D02*
X234197597Y-102191084D01*
G75*
G02*
X233152666Y-100991347I77403J1122334D01*
G01*
X233192666Y-100411347D01*
G75*
G02*
X234392403Y-99366416I1122334J-77403D01*
G01*
X234392403Y-99366416D01*
G75*
G02*
X235437334Y-100566153I-77403J-1122334D01*
G01*
X235397334Y-101146153D01*
G75*
G02*
X234197597Y-102191084I-1122334J77403D01*
G01*
G37*
%TD.AperFunction*%
%TD*%
%TO.P,MX48,1*%
%TO.N,COL6*%
X210225000Y-101568750D03*
%TA.AperFunction,ComponentPad*%
G36*
G01*
X208163688Y-103866100D02*
X208163683Y-103866095D01*
G75*
G02*
X208077655Y-102277433I751317J837345D01*
G01*
X209387657Y-100817433D01*
G75*
G02*
X210976319Y-100731405I837345J-751317D01*
G01*
X210976319Y-100731405D01*
G75*
G02*
X211062347Y-102320067I-751317J-837345D01*
G01*
X209752345Y-103780067D01*
G75*
G02*
X208163683Y-103866095I-837345J751317D01*
G01*
G37*
%TD.AperFunction*%
%TO.P,MX48,2*%
%TO.N,Net-(D48-Pad2)*%
X215265000Y-100488750D03*
%TA.AperFunction,ComponentPad*%
G36*
G01*
X215148483Y-102191145D02*
X215147597Y-102191084D01*
G75*
G02*
X214102666Y-100991347I77403J1122334D01*
G01*
X214142666Y-100411347D01*
G75*
G02*
X215342403Y-99366416I1122334J-77403D01*
G01*
X215342403Y-99366416D01*
G75*
G02*
X216387334Y-100566153I-77403J-1122334D01*
G01*
X216347334Y-101146153D01*
G75*
G02*
X215147597Y-102191084I-1122334J77403D01*
G01*
G37*
%TD.AperFunction*%
%TD*%
%TO.P,MX47,1*%
%TO.N,COL5*%
X191175000Y-101568750D03*
%TA.AperFunction,ComponentPad*%
G36*
G01*
X189113688Y-103866100D02*
X189113683Y-103866095D01*
G75*
G02*
X189027655Y-102277433I751317J837345D01*
G01*
X190337657Y-100817433D01*
G75*
G02*
X191926319Y-100731405I837345J-751317D01*
G01*
X191926319Y-100731405D01*
G75*
G02*
X192012347Y-102320067I-751317J-837345D01*
G01*
X190702345Y-103780067D01*
G75*
G02*
X189113683Y-103866095I-837345J751317D01*
G01*
G37*
%TD.AperFunction*%
%TO.P,MX47,2*%
%TO.N,Net-(D47-Pad2)*%
X196215000Y-100488750D03*
%TA.AperFunction,ComponentPad*%
G36*
G01*
X196098483Y-102191145D02*
X196097597Y-102191084D01*
G75*
G02*
X195052666Y-100991347I77403J1122334D01*
G01*
X195092666Y-100411347D01*
G75*
G02*
X196292403Y-99366416I1122334J-77403D01*
G01*
X196292403Y-99366416D01*
G75*
G02*
X197337334Y-100566153I-77403J-1122334D01*
G01*
X197297334Y-101146153D01*
G75*
G02*
X196097597Y-102191084I-1122334J77403D01*
G01*
G37*
%TD.AperFunction*%
%TD*%
%TO.P,MX46,1*%
%TO.N,COL4*%
X172125000Y-101568750D03*
%TA.AperFunction,ComponentPad*%
G36*
G01*
X170063688Y-103866100D02*
X170063683Y-103866095D01*
G75*
G02*
X169977655Y-102277433I751317J837345D01*
G01*
X171287657Y-100817433D01*
G75*
G02*
X172876319Y-100731405I837345J-751317D01*
G01*
X172876319Y-100731405D01*
G75*
G02*
X172962347Y-102320067I-751317J-837345D01*
G01*
X171652345Y-103780067D01*
G75*
G02*
X170063683Y-103866095I-837345J751317D01*
G01*
G37*
%TD.AperFunction*%
%TO.P,MX46,2*%
%TO.N,Net-(D46-Pad2)*%
X177165000Y-100488750D03*
%TA.AperFunction,ComponentPad*%
G36*
G01*
X177048483Y-102191145D02*
X177047597Y-102191084D01*
G75*
G02*
X176002666Y-100991347I77403J1122334D01*
G01*
X176042666Y-100411347D01*
G75*
G02*
X177242403Y-99366416I1122334J-77403D01*
G01*
X177242403Y-99366416D01*
G75*
G02*
X178287334Y-100566153I-77403J-1122334D01*
G01*
X178247334Y-101146153D01*
G75*
G02*
X177047597Y-102191084I-1122334J77403D01*
G01*
G37*
%TD.AperFunction*%
%TD*%
%TO.P,MX45,1*%
%TO.N,COL3*%
X153075000Y-101568750D03*
%TA.AperFunction,ComponentPad*%
G36*
G01*
X151013688Y-103866100D02*
X151013683Y-103866095D01*
G75*
G02*
X150927655Y-102277433I751317J837345D01*
G01*
X152237657Y-100817433D01*
G75*
G02*
X153826319Y-100731405I837345J-751317D01*
G01*
X153826319Y-100731405D01*
G75*
G02*
X153912347Y-102320067I-751317J-837345D01*
G01*
X152602345Y-103780067D01*
G75*
G02*
X151013683Y-103866095I-837345J751317D01*
G01*
G37*
%TD.AperFunction*%
%TO.P,MX45,2*%
%TO.N,Net-(D45-Pad2)*%
X158115000Y-100488750D03*
%TA.AperFunction,ComponentPad*%
G36*
G01*
X157998483Y-102191145D02*
X157997597Y-102191084D01*
G75*
G02*
X156952666Y-100991347I77403J1122334D01*
G01*
X156992666Y-100411347D01*
G75*
G02*
X158192403Y-99366416I1122334J-77403D01*
G01*
X158192403Y-99366416D01*
G75*
G02*
X159237334Y-100566153I-77403J-1122334D01*
G01*
X159197334Y-101146153D01*
G75*
G02*
X157997597Y-102191084I-1122334J77403D01*
G01*
G37*
%TD.AperFunction*%
%TD*%
%TO.P,MX44,1*%
%TO.N,COL2*%
X134025000Y-101568750D03*
%TA.AperFunction,ComponentPad*%
G36*
G01*
X131963688Y-103866100D02*
X131963683Y-103866095D01*
G75*
G02*
X131877655Y-102277433I751317J837345D01*
G01*
X133187657Y-100817433D01*
G75*
G02*
X134776319Y-100731405I837345J-751317D01*
G01*
X134776319Y-100731405D01*
G75*
G02*
X134862347Y-102320067I-751317J-837345D01*
G01*
X133552345Y-103780067D01*
G75*
G02*
X131963683Y-103866095I-837345J751317D01*
G01*
G37*
%TD.AperFunction*%
%TO.P,MX44,2*%
%TO.N,Net-(D44-Pad2)*%
X139065000Y-100488750D03*
%TA.AperFunction,ComponentPad*%
G36*
G01*
X138948483Y-102191145D02*
X138947597Y-102191084D01*
G75*
G02*
X137902666Y-100991347I77403J1122334D01*
G01*
X137942666Y-100411347D01*
G75*
G02*
X139142403Y-99366416I1122334J-77403D01*
G01*
X139142403Y-99366416D01*
G75*
G02*
X140187334Y-100566153I-77403J-1122334D01*
G01*
X140147334Y-101146153D01*
G75*
G02*
X138947597Y-102191084I-1122334J77403D01*
G01*
G37*
%TD.AperFunction*%
%TD*%
%TO.P,MX43,1*%
%TO.N,COL1*%
X114975000Y-101568750D03*
%TA.AperFunction,ComponentPad*%
G36*
G01*
X112913688Y-103866100D02*
X112913683Y-103866095D01*
G75*
G02*
X112827655Y-102277433I751317J837345D01*
G01*
X114137657Y-100817433D01*
G75*
G02*
X115726319Y-100731405I837345J-751317D01*
G01*
X115726319Y-100731405D01*
G75*
G02*
X115812347Y-102320067I-751317J-837345D01*
G01*
X114502345Y-103780067D01*
G75*
G02*
X112913683Y-103866095I-837345J751317D01*
G01*
G37*
%TD.AperFunction*%
%TO.P,MX43,2*%
%TO.N,Net-(D43-Pad2)*%
X120015000Y-100488750D03*
%TA.AperFunction,ComponentPad*%
G36*
G01*
X119898483Y-102191145D02*
X119897597Y-102191084D01*
G75*
G02*
X118852666Y-100991347I77403J1122334D01*
G01*
X118892666Y-100411347D01*
G75*
G02*
X120092403Y-99366416I1122334J-77403D01*
G01*
X120092403Y-99366416D01*
G75*
G02*
X121137334Y-100566153I-77403J-1122334D01*
G01*
X121097334Y-101146153D01*
G75*
G02*
X119897597Y-102191084I-1122334J77403D01*
G01*
G37*
%TD.AperFunction*%
%TD*%
%TO.P,MX40,1*%
%TO.N,COL11*%
X295950000Y-82518750D03*
%TA.AperFunction,ComponentPad*%
G36*
G01*
X293888688Y-84816100D02*
X293888683Y-84816095D01*
G75*
G02*
X293802655Y-83227433I751317J837345D01*
G01*
X295112657Y-81767433D01*
G75*
G02*
X296701319Y-81681405I837345J-751317D01*
G01*
X296701319Y-81681405D01*
G75*
G02*
X296787347Y-83270067I-751317J-837345D01*
G01*
X295477345Y-84730067D01*
G75*
G02*
X293888683Y-84816095I-837345J751317D01*
G01*
G37*
%TD.AperFunction*%
%TO.P,MX40,2*%
%TO.N,Net-(D40-Pad2)*%
X300990000Y-81438750D03*
%TA.AperFunction,ComponentPad*%
G36*
G01*
X300873483Y-83141145D02*
X300872597Y-83141084D01*
G75*
G02*
X299827666Y-81941347I77403J1122334D01*
G01*
X299867666Y-81361347D01*
G75*
G02*
X301067403Y-80316416I1122334J-77403D01*
G01*
X301067403Y-80316416D01*
G75*
G02*
X302112334Y-81516153I-77403J-1122334D01*
G01*
X302072334Y-82096153D01*
G75*
G02*
X300872597Y-83141084I-1122334J77403D01*
G01*
G37*
%TD.AperFunction*%
%TD*%
%TO.P,MX39,1*%
%TO.N,COL10*%
X276900000Y-82518750D03*
%TA.AperFunction,ComponentPad*%
G36*
G01*
X274838688Y-84816100D02*
X274838683Y-84816095D01*
G75*
G02*
X274752655Y-83227433I751317J837345D01*
G01*
X276062657Y-81767433D01*
G75*
G02*
X277651319Y-81681405I837345J-751317D01*
G01*
X277651319Y-81681405D01*
G75*
G02*
X277737347Y-83270067I-751317J-837345D01*
G01*
X276427345Y-84730067D01*
G75*
G02*
X274838683Y-84816095I-837345J751317D01*
G01*
G37*
%TD.AperFunction*%
%TO.P,MX39,2*%
%TO.N,Net-(D39-Pad2)*%
X281940000Y-81438750D03*
%TA.AperFunction,ComponentPad*%
G36*
G01*
X281823483Y-83141145D02*
X281822597Y-83141084D01*
G75*
G02*
X280777666Y-81941347I77403J1122334D01*
G01*
X280817666Y-81361347D01*
G75*
G02*
X282017403Y-80316416I1122334J-77403D01*
G01*
X282017403Y-80316416D01*
G75*
G02*
X283062334Y-81516153I-77403J-1122334D01*
G01*
X283022334Y-82096153D01*
G75*
G02*
X281822597Y-83141084I-1122334J77403D01*
G01*
G37*
%TD.AperFunction*%
%TD*%
%TO.P,MX38,1*%
%TO.N,COL9*%
X257850000Y-82518750D03*
%TA.AperFunction,ComponentPad*%
G36*
G01*
X255788688Y-84816100D02*
X255788683Y-84816095D01*
G75*
G02*
X255702655Y-83227433I751317J837345D01*
G01*
X257012657Y-81767433D01*
G75*
G02*
X258601319Y-81681405I837345J-751317D01*
G01*
X258601319Y-81681405D01*
G75*
G02*
X258687347Y-83270067I-751317J-837345D01*
G01*
X257377345Y-84730067D01*
G75*
G02*
X255788683Y-84816095I-837345J751317D01*
G01*
G37*
%TD.AperFunction*%
%TO.P,MX38,2*%
%TO.N,Net-(D38-Pad2)*%
X262890000Y-81438750D03*
%TA.AperFunction,ComponentPad*%
G36*
G01*
X262773483Y-83141145D02*
X262772597Y-83141084D01*
G75*
G02*
X261727666Y-81941347I77403J1122334D01*
G01*
X261767666Y-81361347D01*
G75*
G02*
X262967403Y-80316416I1122334J-77403D01*
G01*
X262967403Y-80316416D01*
G75*
G02*
X264012334Y-81516153I-77403J-1122334D01*
G01*
X263972334Y-82096153D01*
G75*
G02*
X262772597Y-83141084I-1122334J77403D01*
G01*
G37*
%TD.AperFunction*%
%TD*%
%TO.P,MX37,1*%
%TO.N,COL8*%
X238800000Y-82518750D03*
%TA.AperFunction,ComponentPad*%
G36*
G01*
X236738688Y-84816100D02*
X236738683Y-84816095D01*
G75*
G02*
X236652655Y-83227433I751317J837345D01*
G01*
X237962657Y-81767433D01*
G75*
G02*
X239551319Y-81681405I837345J-751317D01*
G01*
X239551319Y-81681405D01*
G75*
G02*
X239637347Y-83270067I-751317J-837345D01*
G01*
X238327345Y-84730067D01*
G75*
G02*
X236738683Y-84816095I-837345J751317D01*
G01*
G37*
%TD.AperFunction*%
%TO.P,MX37,2*%
%TO.N,Net-(D37-Pad2)*%
X243840000Y-81438750D03*
%TA.AperFunction,ComponentPad*%
G36*
G01*
X243723483Y-83141145D02*
X243722597Y-83141084D01*
G75*
G02*
X242677666Y-81941347I77403J1122334D01*
G01*
X242717666Y-81361347D01*
G75*
G02*
X243917403Y-80316416I1122334J-77403D01*
G01*
X243917403Y-80316416D01*
G75*
G02*
X244962334Y-81516153I-77403J-1122334D01*
G01*
X244922334Y-82096153D01*
G75*
G02*
X243722597Y-83141084I-1122334J77403D01*
G01*
G37*
%TD.AperFunction*%
%TD*%
%TO.P,MX36,1*%
%TO.N,COL7*%
X219750000Y-82518750D03*
%TA.AperFunction,ComponentPad*%
G36*
G01*
X217688688Y-84816100D02*
X217688683Y-84816095D01*
G75*
G02*
X217602655Y-83227433I751317J837345D01*
G01*
X218912657Y-81767433D01*
G75*
G02*
X220501319Y-81681405I837345J-751317D01*
G01*
X220501319Y-81681405D01*
G75*
G02*
X220587347Y-83270067I-751317J-837345D01*
G01*
X219277345Y-84730067D01*
G75*
G02*
X217688683Y-84816095I-837345J751317D01*
G01*
G37*
%TD.AperFunction*%
%TO.P,MX36,2*%
%TO.N,Net-(D36-Pad2)*%
X224790000Y-81438750D03*
%TA.AperFunction,ComponentPad*%
G36*
G01*
X224673483Y-83141145D02*
X224672597Y-83141084D01*
G75*
G02*
X223627666Y-81941347I77403J1122334D01*
G01*
X223667666Y-81361347D01*
G75*
G02*
X224867403Y-80316416I1122334J-77403D01*
G01*
X224867403Y-80316416D01*
G75*
G02*
X225912334Y-81516153I-77403J-1122334D01*
G01*
X225872334Y-82096153D01*
G75*
G02*
X224672597Y-83141084I-1122334J77403D01*
G01*
G37*
%TD.AperFunction*%
%TD*%
%TO.P,MX35,1*%
%TO.N,COL6*%
X200700000Y-82518750D03*
%TA.AperFunction,ComponentPad*%
G36*
G01*
X198638688Y-84816100D02*
X198638683Y-84816095D01*
G75*
G02*
X198552655Y-83227433I751317J837345D01*
G01*
X199862657Y-81767433D01*
G75*
G02*
X201451319Y-81681405I837345J-751317D01*
G01*
X201451319Y-81681405D01*
G75*
G02*
X201537347Y-83270067I-751317J-837345D01*
G01*
X200227345Y-84730067D01*
G75*
G02*
X198638683Y-84816095I-837345J751317D01*
G01*
G37*
%TD.AperFunction*%
%TO.P,MX35,2*%
%TO.N,Net-(D35-Pad2)*%
X205740000Y-81438750D03*
%TA.AperFunction,ComponentPad*%
G36*
G01*
X205623483Y-83141145D02*
X205622597Y-83141084D01*
G75*
G02*
X204577666Y-81941347I77403J1122334D01*
G01*
X204617666Y-81361347D01*
G75*
G02*
X205817403Y-80316416I1122334J-77403D01*
G01*
X205817403Y-80316416D01*
G75*
G02*
X206862334Y-81516153I-77403J-1122334D01*
G01*
X206822334Y-82096153D01*
G75*
G02*
X205622597Y-83141084I-1122334J77403D01*
G01*
G37*
%TD.AperFunction*%
%TD*%
%TO.P,MX34,1*%
%TO.N,COL5*%
X181650000Y-82518750D03*
%TA.AperFunction,ComponentPad*%
G36*
G01*
X179588688Y-84816100D02*
X179588683Y-84816095D01*
G75*
G02*
X179502655Y-83227433I751317J837345D01*
G01*
X180812657Y-81767433D01*
G75*
G02*
X182401319Y-81681405I837345J-751317D01*
G01*
X182401319Y-81681405D01*
G75*
G02*
X182487347Y-83270067I-751317J-837345D01*
G01*
X181177345Y-84730067D01*
G75*
G02*
X179588683Y-84816095I-837345J751317D01*
G01*
G37*
%TD.AperFunction*%
%TO.P,MX34,2*%
%TO.N,Net-(D34-Pad2)*%
X186690000Y-81438750D03*
%TA.AperFunction,ComponentPad*%
G36*
G01*
X186573483Y-83141145D02*
X186572597Y-83141084D01*
G75*
G02*
X185527666Y-81941347I77403J1122334D01*
G01*
X185567666Y-81361347D01*
G75*
G02*
X186767403Y-80316416I1122334J-77403D01*
G01*
X186767403Y-80316416D01*
G75*
G02*
X187812334Y-81516153I-77403J-1122334D01*
G01*
X187772334Y-82096153D01*
G75*
G02*
X186572597Y-83141084I-1122334J77403D01*
G01*
G37*
%TD.AperFunction*%
%TD*%
%TO.P,MX33,1*%
%TO.N,COL4*%
X162600000Y-82518750D03*
%TA.AperFunction,ComponentPad*%
G36*
G01*
X160538688Y-84816100D02*
X160538683Y-84816095D01*
G75*
G02*
X160452655Y-83227433I751317J837345D01*
G01*
X161762657Y-81767433D01*
G75*
G02*
X163351319Y-81681405I837345J-751317D01*
G01*
X163351319Y-81681405D01*
G75*
G02*
X163437347Y-83270067I-751317J-837345D01*
G01*
X162127345Y-84730067D01*
G75*
G02*
X160538683Y-84816095I-837345J751317D01*
G01*
G37*
%TD.AperFunction*%
%TO.P,MX33,2*%
%TO.N,Net-(D33-Pad2)*%
X167640000Y-81438750D03*
%TA.AperFunction,ComponentPad*%
G36*
G01*
X167523483Y-83141145D02*
X167522597Y-83141084D01*
G75*
G02*
X166477666Y-81941347I77403J1122334D01*
G01*
X166517666Y-81361347D01*
G75*
G02*
X167717403Y-80316416I1122334J-77403D01*
G01*
X167717403Y-80316416D01*
G75*
G02*
X168762334Y-81516153I-77403J-1122334D01*
G01*
X168722334Y-82096153D01*
G75*
G02*
X167522597Y-83141084I-1122334J77403D01*
G01*
G37*
%TD.AperFunction*%
%TD*%
%TO.P,MX32,1*%
%TO.N,COL3*%
X143550000Y-82518750D03*
%TA.AperFunction,ComponentPad*%
G36*
G01*
X141488688Y-84816100D02*
X141488683Y-84816095D01*
G75*
G02*
X141402655Y-83227433I751317J837345D01*
G01*
X142712657Y-81767433D01*
G75*
G02*
X144301319Y-81681405I837345J-751317D01*
G01*
X144301319Y-81681405D01*
G75*
G02*
X144387347Y-83270067I-751317J-837345D01*
G01*
X143077345Y-84730067D01*
G75*
G02*
X141488683Y-84816095I-837345J751317D01*
G01*
G37*
%TD.AperFunction*%
%TO.P,MX32,2*%
%TO.N,Net-(D32-Pad2)*%
X148590000Y-81438750D03*
%TA.AperFunction,ComponentPad*%
G36*
G01*
X148473483Y-83141145D02*
X148472597Y-83141084D01*
G75*
G02*
X147427666Y-81941347I77403J1122334D01*
G01*
X147467666Y-81361347D01*
G75*
G02*
X148667403Y-80316416I1122334J-77403D01*
G01*
X148667403Y-80316416D01*
G75*
G02*
X149712334Y-81516153I-77403J-1122334D01*
G01*
X149672334Y-82096153D01*
G75*
G02*
X148472597Y-83141084I-1122334J77403D01*
G01*
G37*
%TD.AperFunction*%
%TD*%
%TO.P,MX31,1*%
%TO.N,COL2*%
X124500000Y-82518750D03*
%TA.AperFunction,ComponentPad*%
G36*
G01*
X122438688Y-84816100D02*
X122438683Y-84816095D01*
G75*
G02*
X122352655Y-83227433I751317J837345D01*
G01*
X123662657Y-81767433D01*
G75*
G02*
X125251319Y-81681405I837345J-751317D01*
G01*
X125251319Y-81681405D01*
G75*
G02*
X125337347Y-83270067I-751317J-837345D01*
G01*
X124027345Y-84730067D01*
G75*
G02*
X122438683Y-84816095I-837345J751317D01*
G01*
G37*
%TD.AperFunction*%
%TO.P,MX31,2*%
%TO.N,Net-(D31-Pad2)*%
X129540000Y-81438750D03*
%TA.AperFunction,ComponentPad*%
G36*
G01*
X129423483Y-83141145D02*
X129422597Y-83141084D01*
G75*
G02*
X128377666Y-81941347I77403J1122334D01*
G01*
X128417666Y-81361347D01*
G75*
G02*
X129617403Y-80316416I1122334J-77403D01*
G01*
X129617403Y-80316416D01*
G75*
G02*
X130662334Y-81516153I-77403J-1122334D01*
G01*
X130622334Y-82096153D01*
G75*
G02*
X129422597Y-83141084I-1122334J77403D01*
G01*
G37*
%TD.AperFunction*%
%TD*%
%TO.P,MX30,1*%
%TO.N,COL1*%
X105450000Y-82518750D03*
%TA.AperFunction,ComponentPad*%
G36*
G01*
X103388688Y-84816100D02*
X103388683Y-84816095D01*
G75*
G02*
X103302655Y-83227433I751317J837345D01*
G01*
X104612657Y-81767433D01*
G75*
G02*
X106201319Y-81681405I837345J-751317D01*
G01*
X106201319Y-81681405D01*
G75*
G02*
X106287347Y-83270067I-751317J-837345D01*
G01*
X104977345Y-84730067D01*
G75*
G02*
X103388683Y-84816095I-837345J751317D01*
G01*
G37*
%TD.AperFunction*%
%TO.P,MX30,2*%
%TO.N,Net-(D30-Pad2)*%
X110490000Y-81438750D03*
%TA.AperFunction,ComponentPad*%
G36*
G01*
X110373483Y-83141145D02*
X110372597Y-83141084D01*
G75*
G02*
X109327666Y-81941347I77403J1122334D01*
G01*
X109367666Y-81361347D01*
G75*
G02*
X110567403Y-80316416I1122334J-77403D01*
G01*
X110567403Y-80316416D01*
G75*
G02*
X111612334Y-81516153I-77403J-1122334D01*
G01*
X111572334Y-82096153D01*
G75*
G02*
X110372597Y-83141084I-1122334J77403D01*
G01*
G37*
%TD.AperFunction*%
%TD*%
%TO.P,MX27,1*%
%TO.N,COL12*%
X310237500Y-63468750D03*
%TA.AperFunction,ComponentPad*%
G36*
G01*
X308176188Y-65766100D02*
X308176183Y-65766095D01*
G75*
G02*
X308090155Y-64177433I751317J837345D01*
G01*
X309400157Y-62717433D01*
G75*
G02*
X310988819Y-62631405I837345J-751317D01*
G01*
X310988819Y-62631405D01*
G75*
G02*
X311074847Y-64220067I-751317J-837345D01*
G01*
X309764845Y-65680067D01*
G75*
G02*
X308176183Y-65766095I-837345J751317D01*
G01*
G37*
%TD.AperFunction*%
%TO.P,MX27,2*%
%TO.N,Net-(D27-Pad2)*%
X315277500Y-62388750D03*
%TA.AperFunction,ComponentPad*%
G36*
G01*
X315160983Y-64091145D02*
X315160097Y-64091084D01*
G75*
G02*
X314115166Y-62891347I77403J1122334D01*
G01*
X314155166Y-62311347D01*
G75*
G02*
X315354903Y-61266416I1122334J-77403D01*
G01*
X315354903Y-61266416D01*
G75*
G02*
X316399834Y-62466153I-77403J-1122334D01*
G01*
X316359834Y-63046153D01*
G75*
G02*
X315160097Y-64091084I-1122334J77403D01*
G01*
G37*
%TD.AperFunction*%
%TD*%
%TO.P,MX26,1*%
%TO.N,COL11*%
X291187500Y-63468750D03*
%TA.AperFunction,ComponentPad*%
G36*
G01*
X289126188Y-65766100D02*
X289126183Y-65766095D01*
G75*
G02*
X289040155Y-64177433I751317J837345D01*
G01*
X290350157Y-62717433D01*
G75*
G02*
X291938819Y-62631405I837345J-751317D01*
G01*
X291938819Y-62631405D01*
G75*
G02*
X292024847Y-64220067I-751317J-837345D01*
G01*
X290714845Y-65680067D01*
G75*
G02*
X289126183Y-65766095I-837345J751317D01*
G01*
G37*
%TD.AperFunction*%
%TO.P,MX26,2*%
%TO.N,Net-(D26-Pad2)*%
X296227500Y-62388750D03*
%TA.AperFunction,ComponentPad*%
G36*
G01*
X296110983Y-64091145D02*
X296110097Y-64091084D01*
G75*
G02*
X295065166Y-62891347I77403J1122334D01*
G01*
X295105166Y-62311347D01*
G75*
G02*
X296304903Y-61266416I1122334J-77403D01*
G01*
X296304903Y-61266416D01*
G75*
G02*
X297349834Y-62466153I-77403J-1122334D01*
G01*
X297309834Y-63046153D01*
G75*
G02*
X296110097Y-64091084I-1122334J77403D01*
G01*
G37*
%TD.AperFunction*%
%TD*%
%TO.P,MX25,1*%
%TO.N,COL10*%
X272137500Y-63468750D03*
%TA.AperFunction,ComponentPad*%
G36*
G01*
X270076188Y-65766100D02*
X270076183Y-65766095D01*
G75*
G02*
X269990155Y-64177433I751317J837345D01*
G01*
X271300157Y-62717433D01*
G75*
G02*
X272888819Y-62631405I837345J-751317D01*
G01*
X272888819Y-62631405D01*
G75*
G02*
X272974847Y-64220067I-751317J-837345D01*
G01*
X271664845Y-65680067D01*
G75*
G02*
X270076183Y-65766095I-837345J751317D01*
G01*
G37*
%TD.AperFunction*%
%TO.P,MX25,2*%
%TO.N,Net-(D25-Pad2)*%
X277177500Y-62388750D03*
%TA.AperFunction,ComponentPad*%
G36*
G01*
X277060983Y-64091145D02*
X277060097Y-64091084D01*
G75*
G02*
X276015166Y-62891347I77403J1122334D01*
G01*
X276055166Y-62311347D01*
G75*
G02*
X277254903Y-61266416I1122334J-77403D01*
G01*
X277254903Y-61266416D01*
G75*
G02*
X278299834Y-62466153I-77403J-1122334D01*
G01*
X278259834Y-63046153D01*
G75*
G02*
X277060097Y-64091084I-1122334J77403D01*
G01*
G37*
%TD.AperFunction*%
%TD*%
%TO.P,MX24,1*%
%TO.N,COL9*%
X253087500Y-63468750D03*
%TA.AperFunction,ComponentPad*%
G36*
G01*
X251026188Y-65766100D02*
X251026183Y-65766095D01*
G75*
G02*
X250940155Y-64177433I751317J837345D01*
G01*
X252250157Y-62717433D01*
G75*
G02*
X253838819Y-62631405I837345J-751317D01*
G01*
X253838819Y-62631405D01*
G75*
G02*
X253924847Y-64220067I-751317J-837345D01*
G01*
X252614845Y-65680067D01*
G75*
G02*
X251026183Y-65766095I-837345J751317D01*
G01*
G37*
%TD.AperFunction*%
%TO.P,MX24,2*%
%TO.N,Net-(D24-Pad2)*%
X258127500Y-62388750D03*
%TA.AperFunction,ComponentPad*%
G36*
G01*
X258010983Y-64091145D02*
X258010097Y-64091084D01*
G75*
G02*
X256965166Y-62891347I77403J1122334D01*
G01*
X257005166Y-62311347D01*
G75*
G02*
X258204903Y-61266416I1122334J-77403D01*
G01*
X258204903Y-61266416D01*
G75*
G02*
X259249834Y-62466153I-77403J-1122334D01*
G01*
X259209834Y-63046153D01*
G75*
G02*
X258010097Y-64091084I-1122334J77403D01*
G01*
G37*
%TD.AperFunction*%
%TD*%
%TO.P,MX23,1*%
%TO.N,COL8*%
X234037500Y-63468750D03*
%TA.AperFunction,ComponentPad*%
G36*
G01*
X231976188Y-65766100D02*
X231976183Y-65766095D01*
G75*
G02*
X231890155Y-64177433I751317J837345D01*
G01*
X233200157Y-62717433D01*
G75*
G02*
X234788819Y-62631405I837345J-751317D01*
G01*
X234788819Y-62631405D01*
G75*
G02*
X234874847Y-64220067I-751317J-837345D01*
G01*
X233564845Y-65680067D01*
G75*
G02*
X231976183Y-65766095I-837345J751317D01*
G01*
G37*
%TD.AperFunction*%
%TO.P,MX23,2*%
%TO.N,Net-(D23-Pad2)*%
X239077500Y-62388750D03*
%TA.AperFunction,ComponentPad*%
G36*
G01*
X238960983Y-64091145D02*
X238960097Y-64091084D01*
G75*
G02*
X237915166Y-62891347I77403J1122334D01*
G01*
X237955166Y-62311347D01*
G75*
G02*
X239154903Y-61266416I1122334J-77403D01*
G01*
X239154903Y-61266416D01*
G75*
G02*
X240199834Y-62466153I-77403J-1122334D01*
G01*
X240159834Y-63046153D01*
G75*
G02*
X238960097Y-64091084I-1122334J77403D01*
G01*
G37*
%TD.AperFunction*%
%TD*%
%TO.P,MX22,1*%
%TO.N,COL7*%
X214987500Y-63468750D03*
%TA.AperFunction,ComponentPad*%
G36*
G01*
X212926188Y-65766100D02*
X212926183Y-65766095D01*
G75*
G02*
X212840155Y-64177433I751317J837345D01*
G01*
X214150157Y-62717433D01*
G75*
G02*
X215738819Y-62631405I837345J-751317D01*
G01*
X215738819Y-62631405D01*
G75*
G02*
X215824847Y-64220067I-751317J-837345D01*
G01*
X214514845Y-65680067D01*
G75*
G02*
X212926183Y-65766095I-837345J751317D01*
G01*
G37*
%TD.AperFunction*%
%TO.P,MX22,2*%
%TO.N,Net-(D22-Pad2)*%
X220027500Y-62388750D03*
%TA.AperFunction,ComponentPad*%
G36*
G01*
X219910983Y-64091145D02*
X219910097Y-64091084D01*
G75*
G02*
X218865166Y-62891347I77403J1122334D01*
G01*
X218905166Y-62311347D01*
G75*
G02*
X220104903Y-61266416I1122334J-77403D01*
G01*
X220104903Y-61266416D01*
G75*
G02*
X221149834Y-62466153I-77403J-1122334D01*
G01*
X221109834Y-63046153D01*
G75*
G02*
X219910097Y-64091084I-1122334J77403D01*
G01*
G37*
%TD.AperFunction*%
%TD*%
%TO.P,MX21,1*%
%TO.N,COL6*%
X195937500Y-63468750D03*
%TA.AperFunction,ComponentPad*%
G36*
G01*
X193876188Y-65766100D02*
X193876183Y-65766095D01*
G75*
G02*
X193790155Y-64177433I751317J837345D01*
G01*
X195100157Y-62717433D01*
G75*
G02*
X196688819Y-62631405I837345J-751317D01*
G01*
X196688819Y-62631405D01*
G75*
G02*
X196774847Y-64220067I-751317J-837345D01*
G01*
X195464845Y-65680067D01*
G75*
G02*
X193876183Y-65766095I-837345J751317D01*
G01*
G37*
%TD.AperFunction*%
%TO.P,MX21,2*%
%TO.N,Net-(D21-Pad2)*%
X200977500Y-62388750D03*
%TA.AperFunction,ComponentPad*%
G36*
G01*
X200860983Y-64091145D02*
X200860097Y-64091084D01*
G75*
G02*
X199815166Y-62891347I77403J1122334D01*
G01*
X199855166Y-62311347D01*
G75*
G02*
X201054903Y-61266416I1122334J-77403D01*
G01*
X201054903Y-61266416D01*
G75*
G02*
X202099834Y-62466153I-77403J-1122334D01*
G01*
X202059834Y-63046153D01*
G75*
G02*
X200860097Y-64091084I-1122334J77403D01*
G01*
G37*
%TD.AperFunction*%
%TD*%
%TO.P,MX20,1*%
%TO.N,COL5*%
X176887500Y-63468750D03*
%TA.AperFunction,ComponentPad*%
G36*
G01*
X174826188Y-65766100D02*
X174826183Y-65766095D01*
G75*
G02*
X174740155Y-64177433I751317J837345D01*
G01*
X176050157Y-62717433D01*
G75*
G02*
X177638819Y-62631405I837345J-751317D01*
G01*
X177638819Y-62631405D01*
G75*
G02*
X177724847Y-64220067I-751317J-837345D01*
G01*
X176414845Y-65680067D01*
G75*
G02*
X174826183Y-65766095I-837345J751317D01*
G01*
G37*
%TD.AperFunction*%
%TO.P,MX20,2*%
%TO.N,Net-(D20-Pad2)*%
X181927500Y-62388750D03*
%TA.AperFunction,ComponentPad*%
G36*
G01*
X181810983Y-64091145D02*
X181810097Y-64091084D01*
G75*
G02*
X180765166Y-62891347I77403J1122334D01*
G01*
X180805166Y-62311347D01*
G75*
G02*
X182004903Y-61266416I1122334J-77403D01*
G01*
X182004903Y-61266416D01*
G75*
G02*
X183049834Y-62466153I-77403J-1122334D01*
G01*
X183009834Y-63046153D01*
G75*
G02*
X181810097Y-64091084I-1122334J77403D01*
G01*
G37*
%TD.AperFunction*%
%TD*%
%TO.P,MX19,1*%
%TO.N,COL4*%
X157837500Y-63468750D03*
%TA.AperFunction,ComponentPad*%
G36*
G01*
X155776188Y-65766100D02*
X155776183Y-65766095D01*
G75*
G02*
X155690155Y-64177433I751317J837345D01*
G01*
X157000157Y-62717433D01*
G75*
G02*
X158588819Y-62631405I837345J-751317D01*
G01*
X158588819Y-62631405D01*
G75*
G02*
X158674847Y-64220067I-751317J-837345D01*
G01*
X157364845Y-65680067D01*
G75*
G02*
X155776183Y-65766095I-837345J751317D01*
G01*
G37*
%TD.AperFunction*%
%TO.P,MX19,2*%
%TO.N,Net-(D19-Pad2)*%
X162877500Y-62388750D03*
%TA.AperFunction,ComponentPad*%
G36*
G01*
X162760983Y-64091145D02*
X162760097Y-64091084D01*
G75*
G02*
X161715166Y-62891347I77403J1122334D01*
G01*
X161755166Y-62311347D01*
G75*
G02*
X162954903Y-61266416I1122334J-77403D01*
G01*
X162954903Y-61266416D01*
G75*
G02*
X163999834Y-62466153I-77403J-1122334D01*
G01*
X163959834Y-63046153D01*
G75*
G02*
X162760097Y-64091084I-1122334J77403D01*
G01*
G37*
%TD.AperFunction*%
%TD*%
%TO.P,MX18,1*%
%TO.N,COL3*%
X138787500Y-63468750D03*
%TA.AperFunction,ComponentPad*%
G36*
G01*
X136726188Y-65766100D02*
X136726183Y-65766095D01*
G75*
G02*
X136640155Y-64177433I751317J837345D01*
G01*
X137950157Y-62717433D01*
G75*
G02*
X139538819Y-62631405I837345J-751317D01*
G01*
X139538819Y-62631405D01*
G75*
G02*
X139624847Y-64220067I-751317J-837345D01*
G01*
X138314845Y-65680067D01*
G75*
G02*
X136726183Y-65766095I-837345J751317D01*
G01*
G37*
%TD.AperFunction*%
%TO.P,MX18,2*%
%TO.N,Net-(D18-Pad2)*%
X143827500Y-62388750D03*
%TA.AperFunction,ComponentPad*%
G36*
G01*
X143710983Y-64091145D02*
X143710097Y-64091084D01*
G75*
G02*
X142665166Y-62891347I77403J1122334D01*
G01*
X142705166Y-62311347D01*
G75*
G02*
X143904903Y-61266416I1122334J-77403D01*
G01*
X143904903Y-61266416D01*
G75*
G02*
X144949834Y-62466153I-77403J-1122334D01*
G01*
X144909834Y-63046153D01*
G75*
G02*
X143710097Y-64091084I-1122334J77403D01*
G01*
G37*
%TD.AperFunction*%
%TD*%
%TO.P,MX17,1*%
%TO.N,COL2*%
X119737500Y-63468750D03*
%TA.AperFunction,ComponentPad*%
G36*
G01*
X117676188Y-65766100D02*
X117676183Y-65766095D01*
G75*
G02*
X117590155Y-64177433I751317J837345D01*
G01*
X118900157Y-62717433D01*
G75*
G02*
X120488819Y-62631405I837345J-751317D01*
G01*
X120488819Y-62631405D01*
G75*
G02*
X120574847Y-64220067I-751317J-837345D01*
G01*
X119264845Y-65680067D01*
G75*
G02*
X117676183Y-65766095I-837345J751317D01*
G01*
G37*
%TD.AperFunction*%
%TO.P,MX17,2*%
%TO.N,Net-(D17-Pad2)*%
X124777500Y-62388750D03*
%TA.AperFunction,ComponentPad*%
G36*
G01*
X124660983Y-64091145D02*
X124660097Y-64091084D01*
G75*
G02*
X123615166Y-62891347I77403J1122334D01*
G01*
X123655166Y-62311347D01*
G75*
G02*
X124854903Y-61266416I1122334J-77403D01*
G01*
X124854903Y-61266416D01*
G75*
G02*
X125899834Y-62466153I-77403J-1122334D01*
G01*
X125859834Y-63046153D01*
G75*
G02*
X124660097Y-64091084I-1122334J77403D01*
G01*
G37*
%TD.AperFunction*%
%TD*%
%TO.P,MX16,1*%
%TO.N,COL1*%
X100687500Y-63468750D03*
%TA.AperFunction,ComponentPad*%
G36*
G01*
X98626188Y-65766100D02*
X98626183Y-65766095D01*
G75*
G02*
X98540155Y-64177433I751317J837345D01*
G01*
X99850157Y-62717433D01*
G75*
G02*
X101438819Y-62631405I837345J-751317D01*
G01*
X101438819Y-62631405D01*
G75*
G02*
X101524847Y-64220067I-751317J-837345D01*
G01*
X100214845Y-65680067D01*
G75*
G02*
X98626183Y-65766095I-837345J751317D01*
G01*
G37*
%TD.AperFunction*%
%TO.P,MX16,2*%
%TO.N,Net-(D16-Pad2)*%
X105727500Y-62388750D03*
%TA.AperFunction,ComponentPad*%
G36*
G01*
X105610983Y-64091145D02*
X105610097Y-64091084D01*
G75*
G02*
X104565166Y-62891347I77403J1122334D01*
G01*
X104605166Y-62311347D01*
G75*
G02*
X105804903Y-61266416I1122334J-77403D01*
G01*
X105804903Y-61266416D01*
G75*
G02*
X106849834Y-62466153I-77403J-1122334D01*
G01*
X106809834Y-63046153D01*
G75*
G02*
X105610097Y-64091084I-1122334J77403D01*
G01*
G37*
%TD.AperFunction*%
%TD*%
%TO.P,MX13,1*%
%TO.N,COL12*%
X300712500Y-44418750D03*
%TA.AperFunction,ComponentPad*%
G36*
G01*
X298651188Y-46716100D02*
X298651183Y-46716095D01*
G75*
G02*
X298565155Y-45127433I751317J837345D01*
G01*
X299875157Y-43667433D01*
G75*
G02*
X301463819Y-43581405I837345J-751317D01*
G01*
X301463819Y-43581405D01*
G75*
G02*
X301549847Y-45170067I-751317J-837345D01*
G01*
X300239845Y-46630067D01*
G75*
G02*
X298651183Y-46716095I-837345J751317D01*
G01*
G37*
%TD.AperFunction*%
%TO.P,MX13,2*%
%TO.N,Net-(D13-Pad2)*%
X305752500Y-43338750D03*
%TA.AperFunction,ComponentPad*%
G36*
G01*
X305635983Y-45041145D02*
X305635097Y-45041084D01*
G75*
G02*
X304590166Y-43841347I77403J1122334D01*
G01*
X304630166Y-43261347D01*
G75*
G02*
X305829903Y-42216416I1122334J-77403D01*
G01*
X305829903Y-42216416D01*
G75*
G02*
X306874834Y-43416153I-77403J-1122334D01*
G01*
X306834834Y-43996153D01*
G75*
G02*
X305635097Y-45041084I-1122334J77403D01*
G01*
G37*
%TD.AperFunction*%
%TD*%
%TO.P,MX12,1*%
%TO.N,COL11*%
X281662500Y-44418750D03*
%TA.AperFunction,ComponentPad*%
G36*
G01*
X279601188Y-46716100D02*
X279601183Y-46716095D01*
G75*
G02*
X279515155Y-45127433I751317J837345D01*
G01*
X280825157Y-43667433D01*
G75*
G02*
X282413819Y-43581405I837345J-751317D01*
G01*
X282413819Y-43581405D01*
G75*
G02*
X282499847Y-45170067I-751317J-837345D01*
G01*
X281189845Y-46630067D01*
G75*
G02*
X279601183Y-46716095I-837345J751317D01*
G01*
G37*
%TD.AperFunction*%
%TO.P,MX12,2*%
%TO.N,Net-(D12-Pad2)*%
X286702500Y-43338750D03*
%TA.AperFunction,ComponentPad*%
G36*
G01*
X286585983Y-45041145D02*
X286585097Y-45041084D01*
G75*
G02*
X285540166Y-43841347I77403J1122334D01*
G01*
X285580166Y-43261347D01*
G75*
G02*
X286779903Y-42216416I1122334J-77403D01*
G01*
X286779903Y-42216416D01*
G75*
G02*
X287824834Y-43416153I-77403J-1122334D01*
G01*
X287784834Y-43996153D01*
G75*
G02*
X286585097Y-45041084I-1122334J77403D01*
G01*
G37*
%TD.AperFunction*%
%TD*%
%TO.P,MX11,1*%
%TO.N,COL10*%
X262612500Y-44418750D03*
%TA.AperFunction,ComponentPad*%
G36*
G01*
X260551188Y-46716100D02*
X260551183Y-46716095D01*
G75*
G02*
X260465155Y-45127433I751317J837345D01*
G01*
X261775157Y-43667433D01*
G75*
G02*
X263363819Y-43581405I837345J-751317D01*
G01*
X263363819Y-43581405D01*
G75*
G02*
X263449847Y-45170067I-751317J-837345D01*
G01*
X262139845Y-46630067D01*
G75*
G02*
X260551183Y-46716095I-837345J751317D01*
G01*
G37*
%TD.AperFunction*%
%TO.P,MX11,2*%
%TO.N,Net-(D11-Pad2)*%
X267652500Y-43338750D03*
%TA.AperFunction,ComponentPad*%
G36*
G01*
X267535983Y-45041145D02*
X267535097Y-45041084D01*
G75*
G02*
X266490166Y-43841347I77403J1122334D01*
G01*
X266530166Y-43261347D01*
G75*
G02*
X267729903Y-42216416I1122334J-77403D01*
G01*
X267729903Y-42216416D01*
G75*
G02*
X268774834Y-43416153I-77403J-1122334D01*
G01*
X268734834Y-43996153D01*
G75*
G02*
X267535097Y-45041084I-1122334J77403D01*
G01*
G37*
%TD.AperFunction*%
%TD*%
%TO.P,MX10,1*%
%TO.N,COL9*%
X243562500Y-44418750D03*
%TA.AperFunction,ComponentPad*%
G36*
G01*
X241501188Y-46716100D02*
X241501183Y-46716095D01*
G75*
G02*
X241415155Y-45127433I751317J837345D01*
G01*
X242725157Y-43667433D01*
G75*
G02*
X244313819Y-43581405I837345J-751317D01*
G01*
X244313819Y-43581405D01*
G75*
G02*
X244399847Y-45170067I-751317J-837345D01*
G01*
X243089845Y-46630067D01*
G75*
G02*
X241501183Y-46716095I-837345J751317D01*
G01*
G37*
%TD.AperFunction*%
%TO.P,MX10,2*%
%TO.N,Net-(D10-Pad2)*%
X248602500Y-43338750D03*
%TA.AperFunction,ComponentPad*%
G36*
G01*
X248485983Y-45041145D02*
X248485097Y-45041084D01*
G75*
G02*
X247440166Y-43841347I77403J1122334D01*
G01*
X247480166Y-43261347D01*
G75*
G02*
X248679903Y-42216416I1122334J-77403D01*
G01*
X248679903Y-42216416D01*
G75*
G02*
X249724834Y-43416153I-77403J-1122334D01*
G01*
X249684834Y-43996153D01*
G75*
G02*
X248485097Y-45041084I-1122334J77403D01*
G01*
G37*
%TD.AperFunction*%
%TD*%
%TO.P,MX9,1*%
%TO.N,COL8*%
X224512500Y-44418750D03*
%TA.AperFunction,ComponentPad*%
G36*
G01*
X222451188Y-46716100D02*
X222451183Y-46716095D01*
G75*
G02*
X222365155Y-45127433I751317J837345D01*
G01*
X223675157Y-43667433D01*
G75*
G02*
X225263819Y-43581405I837345J-751317D01*
G01*
X225263819Y-43581405D01*
G75*
G02*
X225349847Y-45170067I-751317J-837345D01*
G01*
X224039845Y-46630067D01*
G75*
G02*
X222451183Y-46716095I-837345J751317D01*
G01*
G37*
%TD.AperFunction*%
%TO.P,MX9,2*%
%TO.N,Net-(D9-Pad2)*%
X229552500Y-43338750D03*
%TA.AperFunction,ComponentPad*%
G36*
G01*
X229435983Y-45041145D02*
X229435097Y-45041084D01*
G75*
G02*
X228390166Y-43841347I77403J1122334D01*
G01*
X228430166Y-43261347D01*
G75*
G02*
X229629903Y-42216416I1122334J-77403D01*
G01*
X229629903Y-42216416D01*
G75*
G02*
X230674834Y-43416153I-77403J-1122334D01*
G01*
X230634834Y-43996153D01*
G75*
G02*
X229435097Y-45041084I-1122334J77403D01*
G01*
G37*
%TD.AperFunction*%
%TD*%
%TO.P,MX8,1*%
%TO.N,COL7*%
X205462500Y-44418750D03*
%TA.AperFunction,ComponentPad*%
G36*
G01*
X203401188Y-46716100D02*
X203401183Y-46716095D01*
G75*
G02*
X203315155Y-45127433I751317J837345D01*
G01*
X204625157Y-43667433D01*
G75*
G02*
X206213819Y-43581405I837345J-751317D01*
G01*
X206213819Y-43581405D01*
G75*
G02*
X206299847Y-45170067I-751317J-837345D01*
G01*
X204989845Y-46630067D01*
G75*
G02*
X203401183Y-46716095I-837345J751317D01*
G01*
G37*
%TD.AperFunction*%
%TO.P,MX8,2*%
%TO.N,Net-(D8-Pad2)*%
X210502500Y-43338750D03*
%TA.AperFunction,ComponentPad*%
G36*
G01*
X210385983Y-45041145D02*
X210385097Y-45041084D01*
G75*
G02*
X209340166Y-43841347I77403J1122334D01*
G01*
X209380166Y-43261347D01*
G75*
G02*
X210579903Y-42216416I1122334J-77403D01*
G01*
X210579903Y-42216416D01*
G75*
G02*
X211624834Y-43416153I-77403J-1122334D01*
G01*
X211584834Y-43996153D01*
G75*
G02*
X210385097Y-45041084I-1122334J77403D01*
G01*
G37*
%TD.AperFunction*%
%TD*%
%TO.P,MX7,1*%
%TO.N,COL6*%
X186412500Y-44418750D03*
%TA.AperFunction,ComponentPad*%
G36*
G01*
X184351188Y-46716100D02*
X184351183Y-46716095D01*
G75*
G02*
X184265155Y-45127433I751317J837345D01*
G01*
X185575157Y-43667433D01*
G75*
G02*
X187163819Y-43581405I837345J-751317D01*
G01*
X187163819Y-43581405D01*
G75*
G02*
X187249847Y-45170067I-751317J-837345D01*
G01*
X185939845Y-46630067D01*
G75*
G02*
X184351183Y-46716095I-837345J751317D01*
G01*
G37*
%TD.AperFunction*%
%TO.P,MX7,2*%
%TO.N,Net-(D7-Pad2)*%
X191452500Y-43338750D03*
%TA.AperFunction,ComponentPad*%
G36*
G01*
X191335983Y-45041145D02*
X191335097Y-45041084D01*
G75*
G02*
X190290166Y-43841347I77403J1122334D01*
G01*
X190330166Y-43261347D01*
G75*
G02*
X191529903Y-42216416I1122334J-77403D01*
G01*
X191529903Y-42216416D01*
G75*
G02*
X192574834Y-43416153I-77403J-1122334D01*
G01*
X192534834Y-43996153D01*
G75*
G02*
X191335097Y-45041084I-1122334J77403D01*
G01*
G37*
%TD.AperFunction*%
%TD*%
%TO.P,MX6,1*%
%TO.N,COL5*%
X167362500Y-44418750D03*
%TA.AperFunction,ComponentPad*%
G36*
G01*
X165301188Y-46716100D02*
X165301183Y-46716095D01*
G75*
G02*
X165215155Y-45127433I751317J837345D01*
G01*
X166525157Y-43667433D01*
G75*
G02*
X168113819Y-43581405I837345J-751317D01*
G01*
X168113819Y-43581405D01*
G75*
G02*
X168199847Y-45170067I-751317J-837345D01*
G01*
X166889845Y-46630067D01*
G75*
G02*
X165301183Y-46716095I-837345J751317D01*
G01*
G37*
%TD.AperFunction*%
%TO.P,MX6,2*%
%TO.N,Net-(D6-Pad2)*%
X172402500Y-43338750D03*
%TA.AperFunction,ComponentPad*%
G36*
G01*
X172285983Y-45041145D02*
X172285097Y-45041084D01*
G75*
G02*
X171240166Y-43841347I77403J1122334D01*
G01*
X171280166Y-43261347D01*
G75*
G02*
X172479903Y-42216416I1122334J-77403D01*
G01*
X172479903Y-42216416D01*
G75*
G02*
X173524834Y-43416153I-77403J-1122334D01*
G01*
X173484834Y-43996153D01*
G75*
G02*
X172285097Y-45041084I-1122334J77403D01*
G01*
G37*
%TD.AperFunction*%
%TD*%
%TO.P,MX5,1*%
%TO.N,COL4*%
X148312500Y-44418750D03*
%TA.AperFunction,ComponentPad*%
G36*
G01*
X146251188Y-46716100D02*
X146251183Y-46716095D01*
G75*
G02*
X146165155Y-45127433I751317J837345D01*
G01*
X147475157Y-43667433D01*
G75*
G02*
X149063819Y-43581405I837345J-751317D01*
G01*
X149063819Y-43581405D01*
G75*
G02*
X149149847Y-45170067I-751317J-837345D01*
G01*
X147839845Y-46630067D01*
G75*
G02*
X146251183Y-46716095I-837345J751317D01*
G01*
G37*
%TD.AperFunction*%
%TO.P,MX5,2*%
%TO.N,Net-(D5-Pad2)*%
X153352500Y-43338750D03*
%TA.AperFunction,ComponentPad*%
G36*
G01*
X153235983Y-45041145D02*
X153235097Y-45041084D01*
G75*
G02*
X152190166Y-43841347I77403J1122334D01*
G01*
X152230166Y-43261347D01*
G75*
G02*
X153429903Y-42216416I1122334J-77403D01*
G01*
X153429903Y-42216416D01*
G75*
G02*
X154474834Y-43416153I-77403J-1122334D01*
G01*
X154434834Y-43996153D01*
G75*
G02*
X153235097Y-45041084I-1122334J77403D01*
G01*
G37*
%TD.AperFunction*%
%TD*%
%TO.P,MX4,1*%
%TO.N,COL3*%
X129262500Y-44418750D03*
%TA.AperFunction,ComponentPad*%
G36*
G01*
X127201188Y-46716100D02*
X127201183Y-46716095D01*
G75*
G02*
X127115155Y-45127433I751317J837345D01*
G01*
X128425157Y-43667433D01*
G75*
G02*
X130013819Y-43581405I837345J-751317D01*
G01*
X130013819Y-43581405D01*
G75*
G02*
X130099847Y-45170067I-751317J-837345D01*
G01*
X128789845Y-46630067D01*
G75*
G02*
X127201183Y-46716095I-837345J751317D01*
G01*
G37*
%TD.AperFunction*%
%TO.P,MX4,2*%
%TO.N,Net-(D4-Pad2)*%
X134302500Y-43338750D03*
%TA.AperFunction,ComponentPad*%
G36*
G01*
X134185983Y-45041145D02*
X134185097Y-45041084D01*
G75*
G02*
X133140166Y-43841347I77403J1122334D01*
G01*
X133180166Y-43261347D01*
G75*
G02*
X134379903Y-42216416I1122334J-77403D01*
G01*
X134379903Y-42216416D01*
G75*
G02*
X135424834Y-43416153I-77403J-1122334D01*
G01*
X135384834Y-43996153D01*
G75*
G02*
X134185097Y-45041084I-1122334J77403D01*
G01*
G37*
%TD.AperFunction*%
%TD*%
%TO.P,MX3,1*%
%TO.N,COL2*%
X110212500Y-44418750D03*
%TA.AperFunction,ComponentPad*%
G36*
G01*
X108151188Y-46716100D02*
X108151183Y-46716095D01*
G75*
G02*
X108065155Y-45127433I751317J837345D01*
G01*
X109375157Y-43667433D01*
G75*
G02*
X110963819Y-43581405I837345J-751317D01*
G01*
X110963819Y-43581405D01*
G75*
G02*
X111049847Y-45170067I-751317J-837345D01*
G01*
X109739845Y-46630067D01*
G75*
G02*
X108151183Y-46716095I-837345J751317D01*
G01*
G37*
%TD.AperFunction*%
%TO.P,MX3,2*%
%TO.N,Net-(D3-Pad2)*%
X115252500Y-43338750D03*
%TA.AperFunction,ComponentPad*%
G36*
G01*
X115135983Y-45041145D02*
X115135097Y-45041084D01*
G75*
G02*
X114090166Y-43841347I77403J1122334D01*
G01*
X114130166Y-43261347D01*
G75*
G02*
X115329903Y-42216416I1122334J-77403D01*
G01*
X115329903Y-42216416D01*
G75*
G02*
X116374834Y-43416153I-77403J-1122334D01*
G01*
X116334834Y-43996153D01*
G75*
G02*
X115135097Y-45041084I-1122334J77403D01*
G01*
G37*
%TD.AperFunction*%
%TD*%
%TO.P,MX2,1*%
%TO.N,COL1*%
X91162500Y-44418750D03*
%TA.AperFunction,ComponentPad*%
G36*
G01*
X89101188Y-46716100D02*
X89101183Y-46716095D01*
G75*
G02*
X89015155Y-45127433I751317J837345D01*
G01*
X90325157Y-43667433D01*
G75*
G02*
X91913819Y-43581405I837345J-751317D01*
G01*
X91913819Y-43581405D01*
G75*
G02*
X91999847Y-45170067I-751317J-837345D01*
G01*
X90689845Y-46630067D01*
G75*
G02*
X89101183Y-46716095I-837345J751317D01*
G01*
G37*
%TD.AperFunction*%
%TO.P,MX2,2*%
%TO.N,Net-(D2-Pad2)*%
X96202500Y-43338750D03*
%TA.AperFunction,ComponentPad*%
G36*
G01*
X96085983Y-45041145D02*
X96085097Y-45041084D01*
G75*
G02*
X95040166Y-43841347I77403J1122334D01*
G01*
X95080166Y-43261347D01*
G75*
G02*
X96279903Y-42216416I1122334J-77403D01*
G01*
X96279903Y-42216416D01*
G75*
G02*
X97324834Y-43416153I-77403J-1122334D01*
G01*
X97284834Y-43996153D01*
G75*
G02*
X96085097Y-45041084I-1122334J77403D01*
G01*
G37*
%TD.AperFunction*%
%TD*%
%TO.P,MX1,1*%
%TO.N,COL0*%
X72112500Y-44418750D03*
%TA.AperFunction,ComponentPad*%
G36*
G01*
X70051188Y-46716100D02*
X70051183Y-46716095D01*
G75*
G02*
X69965155Y-45127433I751317J837345D01*
G01*
X71275157Y-43667433D01*
G75*
G02*
X72863819Y-43581405I837345J-751317D01*
G01*
X72863819Y-43581405D01*
G75*
G02*
X72949847Y-45170067I-751317J-837345D01*
G01*
X71639845Y-46630067D01*
G75*
G02*
X70051183Y-46716095I-837345J751317D01*
G01*
G37*
%TD.AperFunction*%
%TO.P,MX1,2*%
%TO.N,Net-(D1-Pad2)*%
X77152500Y-43338750D03*
%TA.AperFunction,ComponentPad*%
G36*
G01*
X77035983Y-45041145D02*
X77035097Y-45041084D01*
G75*
G02*
X75990166Y-43841347I77403J1122334D01*
G01*
X76030166Y-43261347D01*
G75*
G02*
X77229903Y-42216416I1122334J-77403D01*
G01*
X77229903Y-42216416D01*
G75*
G02*
X78274834Y-43416153I-77403J-1122334D01*
G01*
X78234834Y-43996153D01*
G75*
G02*
X77035097Y-45041084I-1122334J77403D01*
G01*
G37*
%TD.AperFunction*%
%TD*%
%TO.P,D61,2*%
%TO.N,Net-(D61-Pad2)*%
%TA.AperFunction,SMDPad,CuDef*%
G36*
G01*
X347343750Y-124168750D02*
X346393750Y-124168750D01*
G75*
G02*
X346143750Y-123918750I0J250000D01*
G01*
X346143750Y-123418750D01*
G75*
G02*
X346393750Y-123168750I250000J0D01*
G01*
X347343750Y-123168750D01*
G75*
G02*
X347593750Y-123418750I0J-250000D01*
G01*
X347593750Y-123918750D01*
G75*
G02*
X347343750Y-124168750I-250000J0D01*
G01*
G37*
%TD.AperFunction*%
%TO.P,D61,1*%
%TO.N,ROW4*%
%TA.AperFunction,SMDPad,CuDef*%
G36*
G01*
X347343750Y-126068750D02*
X346393750Y-126068750D01*
G75*
G02*
X346143750Y-125818750I0J250000D01*
G01*
X346143750Y-125318750D01*
G75*
G02*
X346393750Y-125068750I250000J0D01*
G01*
X347343750Y-125068750D01*
G75*
G02*
X347593750Y-125318750I0J-250000D01*
G01*
X347593750Y-125818750D01*
G75*
G02*
X347343750Y-126068750I-250000J0D01*
G01*
G37*
%TD.AperFunction*%
%TD*%
%TO.P,D60,2*%
%TO.N,Net-(D60-Pad2)*%
%TA.AperFunction,SMDPad,CuDef*%
G36*
G01*
X323531250Y-124168750D02*
X322581250Y-124168750D01*
G75*
G02*
X322331250Y-123918750I0J250000D01*
G01*
X322331250Y-123418750D01*
G75*
G02*
X322581250Y-123168750I250000J0D01*
G01*
X323531250Y-123168750D01*
G75*
G02*
X323781250Y-123418750I0J-250000D01*
G01*
X323781250Y-123918750D01*
G75*
G02*
X323531250Y-124168750I-250000J0D01*
G01*
G37*
%TD.AperFunction*%
%TO.P,D60,1*%
%TO.N,ROW4*%
%TA.AperFunction,SMDPad,CuDef*%
G36*
G01*
X323531250Y-126068750D02*
X322581250Y-126068750D01*
G75*
G02*
X322331250Y-125818750I0J250000D01*
G01*
X322331250Y-125318750D01*
G75*
G02*
X322581250Y-125068750I250000J0D01*
G01*
X323531250Y-125068750D01*
G75*
G02*
X323781250Y-125318750I0J-250000D01*
G01*
X323781250Y-125818750D01*
G75*
G02*
X323531250Y-126068750I-250000J0D01*
G01*
G37*
%TD.AperFunction*%
%TD*%
%TO.P,D59,2*%
%TO.N,Net-(D59-Pad2)*%
%TA.AperFunction,SMDPad,CuDef*%
G36*
G01*
X299718750Y-124168750D02*
X298768750Y-124168750D01*
G75*
G02*
X298518750Y-123918750I0J250000D01*
G01*
X298518750Y-123418750D01*
G75*
G02*
X298768750Y-123168750I250000J0D01*
G01*
X299718750Y-123168750D01*
G75*
G02*
X299968750Y-123418750I0J-250000D01*
G01*
X299968750Y-123918750D01*
G75*
G02*
X299718750Y-124168750I-250000J0D01*
G01*
G37*
%TD.AperFunction*%
%TO.P,D59,1*%
%TO.N,ROW4*%
%TA.AperFunction,SMDPad,CuDef*%
G36*
G01*
X299718750Y-126068750D02*
X298768750Y-126068750D01*
G75*
G02*
X298518750Y-125818750I0J250000D01*
G01*
X298518750Y-125318750D01*
G75*
G02*
X298768750Y-125068750I250000J0D01*
G01*
X299718750Y-125068750D01*
G75*
G02*
X299968750Y-125318750I0J-250000D01*
G01*
X299968750Y-125818750D01*
G75*
G02*
X299718750Y-126068750I-250000J0D01*
G01*
G37*
%TD.AperFunction*%
%TD*%
%TO.P,D58,2*%
%TO.N,Net-(D58-Pad2)*%
%TA.AperFunction,SMDPad,CuDef*%
G36*
G01*
X275906250Y-124168750D02*
X274956250Y-124168750D01*
G75*
G02*
X274706250Y-123918750I0J250000D01*
G01*
X274706250Y-123418750D01*
G75*
G02*
X274956250Y-123168750I250000J0D01*
G01*
X275906250Y-123168750D01*
G75*
G02*
X276156250Y-123418750I0J-250000D01*
G01*
X276156250Y-123918750D01*
G75*
G02*
X275906250Y-124168750I-250000J0D01*
G01*
G37*
%TD.AperFunction*%
%TO.P,D58,1*%
%TO.N,ROW4*%
%TA.AperFunction,SMDPad,CuDef*%
G36*
G01*
X275906250Y-126068750D02*
X274956250Y-126068750D01*
G75*
G02*
X274706250Y-125818750I0J250000D01*
G01*
X274706250Y-125318750D01*
G75*
G02*
X274956250Y-125068750I250000J0D01*
G01*
X275906250Y-125068750D01*
G75*
G02*
X276156250Y-125318750I0J-250000D01*
G01*
X276156250Y-125818750D01*
G75*
G02*
X275906250Y-126068750I-250000J0D01*
G01*
G37*
%TD.AperFunction*%
%TD*%
%TO.P,D57,2*%
%TO.N,Net-(D57-Pad2)*%
%TA.AperFunction,SMDPad,CuDef*%
G36*
G01*
X204468750Y-124168750D02*
X203518750Y-124168750D01*
G75*
G02*
X203268750Y-123918750I0J250000D01*
G01*
X203268750Y-123418750D01*
G75*
G02*
X203518750Y-123168750I250000J0D01*
G01*
X204468750Y-123168750D01*
G75*
G02*
X204718750Y-123418750I0J-250000D01*
G01*
X204718750Y-123918750D01*
G75*
G02*
X204468750Y-124168750I-250000J0D01*
G01*
G37*
%TD.AperFunction*%
%TO.P,D57,1*%
%TO.N,ROW4*%
%TA.AperFunction,SMDPad,CuDef*%
G36*
G01*
X204468750Y-126068750D02*
X203518750Y-126068750D01*
G75*
G02*
X203268750Y-125818750I0J250000D01*
G01*
X203268750Y-125318750D01*
G75*
G02*
X203518750Y-125068750I250000J0D01*
G01*
X204468750Y-125068750D01*
G75*
G02*
X204718750Y-125318750I0J-250000D01*
G01*
X204718750Y-125818750D01*
G75*
G02*
X204468750Y-126068750I-250000J0D01*
G01*
G37*
%TD.AperFunction*%
%TD*%
%TO.P,D56,2*%
%TO.N,Net-(D56-Pad2)*%
%TA.AperFunction,SMDPad,CuDef*%
G36*
G01*
X133031250Y-124168750D02*
X132081250Y-124168750D01*
G75*
G02*
X131831250Y-123918750I0J250000D01*
G01*
X131831250Y-123418750D01*
G75*
G02*
X132081250Y-123168750I250000J0D01*
G01*
X133031250Y-123168750D01*
G75*
G02*
X133281250Y-123418750I0J-250000D01*
G01*
X133281250Y-123918750D01*
G75*
G02*
X133031250Y-124168750I-250000J0D01*
G01*
G37*
%TD.AperFunction*%
%TO.P,D56,1*%
%TO.N,ROW4*%
%TA.AperFunction,SMDPad,CuDef*%
G36*
G01*
X133031250Y-126068750D02*
X132081250Y-126068750D01*
G75*
G02*
X131831250Y-125818750I0J250000D01*
G01*
X131831250Y-125318750D01*
G75*
G02*
X132081250Y-125068750I250000J0D01*
G01*
X133031250Y-125068750D01*
G75*
G02*
X133281250Y-125318750I0J-250000D01*
G01*
X133281250Y-125818750D01*
G75*
G02*
X133031250Y-126068750I-250000J0D01*
G01*
G37*
%TD.AperFunction*%
%TD*%
%TO.P,D55,2*%
%TO.N,Net-(D55-Pad2)*%
%TA.AperFunction,SMDPad,CuDef*%
G36*
G01*
X109218750Y-124168750D02*
X108268750Y-124168750D01*
G75*
G02*
X108018750Y-123918750I0J250000D01*
G01*
X108018750Y-123418750D01*
G75*
G02*
X108268750Y-123168750I250000J0D01*
G01*
X109218750Y-123168750D01*
G75*
G02*
X109468750Y-123418750I0J-250000D01*
G01*
X109468750Y-123918750D01*
G75*
G02*
X109218750Y-124168750I-250000J0D01*
G01*
G37*
%TD.AperFunction*%
%TO.P,D55,1*%
%TO.N,ROW4*%
%TA.AperFunction,SMDPad,CuDef*%
G36*
G01*
X109218750Y-126068750D02*
X108268750Y-126068750D01*
G75*
G02*
X108018750Y-125818750I0J250000D01*
G01*
X108018750Y-125318750D01*
G75*
G02*
X108268750Y-125068750I250000J0D01*
G01*
X109218750Y-125068750D01*
G75*
G02*
X109468750Y-125318750I0J-250000D01*
G01*
X109468750Y-125818750D01*
G75*
G02*
X109218750Y-126068750I-250000J0D01*
G01*
G37*
%TD.AperFunction*%
%TD*%
%TO.P,D54,2*%
%TO.N,Net-(D54-Pad2)*%
%TA.AperFunction,SMDPad,CuDef*%
G36*
G01*
X85406250Y-124168750D02*
X84456250Y-124168750D01*
G75*
G02*
X84206250Y-123918750I0J250000D01*
G01*
X84206250Y-123418750D01*
G75*
G02*
X84456250Y-123168750I250000J0D01*
G01*
X85406250Y-123168750D01*
G75*
G02*
X85656250Y-123418750I0J-250000D01*
G01*
X85656250Y-123918750D01*
G75*
G02*
X85406250Y-124168750I-250000J0D01*
G01*
G37*
%TD.AperFunction*%
%TO.P,D54,1*%
%TO.N,ROW4*%
%TA.AperFunction,SMDPad,CuDef*%
G36*
G01*
X85406250Y-126068750D02*
X84456250Y-126068750D01*
G75*
G02*
X84206250Y-125818750I0J250000D01*
G01*
X84206250Y-125318750D01*
G75*
G02*
X84456250Y-125068750I250000J0D01*
G01*
X85406250Y-125068750D01*
G75*
G02*
X85656250Y-125318750I0J-250000D01*
G01*
X85656250Y-125818750D01*
G75*
G02*
X85406250Y-126068750I-250000J0D01*
G01*
G37*
%TD.AperFunction*%
%TD*%
%TO.P,D53,2*%
%TO.N,Net-(D53-Pad2)*%
%TA.AperFunction,SMDPad,CuDef*%
G36*
G01*
X341787500Y-105118750D02*
X340837500Y-105118750D01*
G75*
G02*
X340587500Y-104868750I0J250000D01*
G01*
X340587500Y-104368750D01*
G75*
G02*
X340837500Y-104118750I250000J0D01*
G01*
X341787500Y-104118750D01*
G75*
G02*
X342037500Y-104368750I0J-250000D01*
G01*
X342037500Y-104868750D01*
G75*
G02*
X341787500Y-105118750I-250000J0D01*
G01*
G37*
%TD.AperFunction*%
%TO.P,D53,1*%
%TO.N,ROW3*%
%TA.AperFunction,SMDPad,CuDef*%
G36*
G01*
X341787500Y-107018750D02*
X340837500Y-107018750D01*
G75*
G02*
X340587500Y-106768750I0J250000D01*
G01*
X340587500Y-106268750D01*
G75*
G02*
X340837500Y-106018750I250000J0D01*
G01*
X341787500Y-106018750D01*
G75*
G02*
X342037500Y-106268750I0J-250000D01*
G01*
X342037500Y-106768750D01*
G75*
G02*
X341787500Y-107018750I-250000J0D01*
G01*
G37*
%TD.AperFunction*%
%TD*%
%TO.P,D52,2*%
%TO.N,Net-(D52-Pad2)*%
%TA.AperFunction,SMDPad,CuDef*%
G36*
G01*
X297337500Y-105118750D02*
X296387500Y-105118750D01*
G75*
G02*
X296137500Y-104868750I0J250000D01*
G01*
X296137500Y-104368750D01*
G75*
G02*
X296387500Y-104118750I250000J0D01*
G01*
X297337500Y-104118750D01*
G75*
G02*
X297587500Y-104368750I0J-250000D01*
G01*
X297587500Y-104868750D01*
G75*
G02*
X297337500Y-105118750I-250000J0D01*
G01*
G37*
%TD.AperFunction*%
%TO.P,D52,1*%
%TO.N,ROW3*%
%TA.AperFunction,SMDPad,CuDef*%
G36*
G01*
X297337500Y-107018750D02*
X296387500Y-107018750D01*
G75*
G02*
X296137500Y-106768750I0J250000D01*
G01*
X296137500Y-106268750D01*
G75*
G02*
X296387500Y-106018750I250000J0D01*
G01*
X297337500Y-106018750D01*
G75*
G02*
X297587500Y-106268750I0J-250000D01*
G01*
X297587500Y-106768750D01*
G75*
G02*
X297337500Y-107018750I-250000J0D01*
G01*
G37*
%TD.AperFunction*%
%TD*%
%TO.P,D51,2*%
%TO.N,Net-(D51-Pad2)*%
%TA.AperFunction,SMDPad,CuDef*%
G36*
G01*
X278287500Y-105118750D02*
X277337500Y-105118750D01*
G75*
G02*
X277087500Y-104868750I0J250000D01*
G01*
X277087500Y-104368750D01*
G75*
G02*
X277337500Y-104118750I250000J0D01*
G01*
X278287500Y-104118750D01*
G75*
G02*
X278537500Y-104368750I0J-250000D01*
G01*
X278537500Y-104868750D01*
G75*
G02*
X278287500Y-105118750I-250000J0D01*
G01*
G37*
%TD.AperFunction*%
%TO.P,D51,1*%
%TO.N,ROW3*%
%TA.AperFunction,SMDPad,CuDef*%
G36*
G01*
X278287500Y-107018750D02*
X277337500Y-107018750D01*
G75*
G02*
X277087500Y-106768750I0J250000D01*
G01*
X277087500Y-106268750D01*
G75*
G02*
X277337500Y-106018750I250000J0D01*
G01*
X278287500Y-106018750D01*
G75*
G02*
X278537500Y-106268750I0J-250000D01*
G01*
X278537500Y-106768750D01*
G75*
G02*
X278287500Y-107018750I-250000J0D01*
G01*
G37*
%TD.AperFunction*%
%TD*%
%TO.P,D50,2*%
%TO.N,Net-(D50-Pad2)*%
%TA.AperFunction,SMDPad,CuDef*%
G36*
G01*
X259237500Y-105118750D02*
X258287500Y-105118750D01*
G75*
G02*
X258037500Y-104868750I0J250000D01*
G01*
X258037500Y-104368750D01*
G75*
G02*
X258287500Y-104118750I250000J0D01*
G01*
X259237500Y-104118750D01*
G75*
G02*
X259487500Y-104368750I0J-250000D01*
G01*
X259487500Y-104868750D01*
G75*
G02*
X259237500Y-105118750I-250000J0D01*
G01*
G37*
%TD.AperFunction*%
%TO.P,D50,1*%
%TO.N,ROW3*%
%TA.AperFunction,SMDPad,CuDef*%
G36*
G01*
X259237500Y-107018750D02*
X258287500Y-107018750D01*
G75*
G02*
X258037500Y-106768750I0J250000D01*
G01*
X258037500Y-106268750D01*
G75*
G02*
X258287500Y-106018750I250000J0D01*
G01*
X259237500Y-106018750D01*
G75*
G02*
X259487500Y-106268750I0J-250000D01*
G01*
X259487500Y-106768750D01*
G75*
G02*
X259237500Y-107018750I-250000J0D01*
G01*
G37*
%TD.AperFunction*%
%TD*%
%TO.P,D49,2*%
%TO.N,Net-(D49-Pad2)*%
%TA.AperFunction,SMDPad,CuDef*%
G36*
G01*
X240187500Y-105118750D02*
X239237500Y-105118750D01*
G75*
G02*
X238987500Y-104868750I0J250000D01*
G01*
X238987500Y-104368750D01*
G75*
G02*
X239237500Y-104118750I250000J0D01*
G01*
X240187500Y-104118750D01*
G75*
G02*
X240437500Y-104368750I0J-250000D01*
G01*
X240437500Y-104868750D01*
G75*
G02*
X240187500Y-105118750I-250000J0D01*
G01*
G37*
%TD.AperFunction*%
%TO.P,D49,1*%
%TO.N,ROW3*%
%TA.AperFunction,SMDPad,CuDef*%
G36*
G01*
X240187500Y-107018750D02*
X239237500Y-107018750D01*
G75*
G02*
X238987500Y-106768750I0J250000D01*
G01*
X238987500Y-106268750D01*
G75*
G02*
X239237500Y-106018750I250000J0D01*
G01*
X240187500Y-106018750D01*
G75*
G02*
X240437500Y-106268750I0J-250000D01*
G01*
X240437500Y-106768750D01*
G75*
G02*
X240187500Y-107018750I-250000J0D01*
G01*
G37*
%TD.AperFunction*%
%TD*%
%TO.P,D48,2*%
%TO.N,Net-(D48-Pad2)*%
%TA.AperFunction,SMDPad,CuDef*%
G36*
G01*
X221137500Y-105118750D02*
X220187500Y-105118750D01*
G75*
G02*
X219937500Y-104868750I0J250000D01*
G01*
X219937500Y-104368750D01*
G75*
G02*
X220187500Y-104118750I250000J0D01*
G01*
X221137500Y-104118750D01*
G75*
G02*
X221387500Y-104368750I0J-250000D01*
G01*
X221387500Y-104868750D01*
G75*
G02*
X221137500Y-105118750I-250000J0D01*
G01*
G37*
%TD.AperFunction*%
%TO.P,D48,1*%
%TO.N,ROW3*%
%TA.AperFunction,SMDPad,CuDef*%
G36*
G01*
X221137500Y-107018750D02*
X220187500Y-107018750D01*
G75*
G02*
X219937500Y-106768750I0J250000D01*
G01*
X219937500Y-106268750D01*
G75*
G02*
X220187500Y-106018750I250000J0D01*
G01*
X221137500Y-106018750D01*
G75*
G02*
X221387500Y-106268750I0J-250000D01*
G01*
X221387500Y-106768750D01*
G75*
G02*
X221137500Y-107018750I-250000J0D01*
G01*
G37*
%TD.AperFunction*%
%TD*%
%TO.P,D47,2*%
%TO.N,Net-(D47-Pad2)*%
%TA.AperFunction,SMDPad,CuDef*%
G36*
G01*
X202087500Y-105118750D02*
X201137500Y-105118750D01*
G75*
G02*
X200887500Y-104868750I0J250000D01*
G01*
X200887500Y-104368750D01*
G75*
G02*
X201137500Y-104118750I250000J0D01*
G01*
X202087500Y-104118750D01*
G75*
G02*
X202337500Y-104368750I0J-250000D01*
G01*
X202337500Y-104868750D01*
G75*
G02*
X202087500Y-105118750I-250000J0D01*
G01*
G37*
%TD.AperFunction*%
%TO.P,D47,1*%
%TO.N,ROW3*%
%TA.AperFunction,SMDPad,CuDef*%
G36*
G01*
X202087500Y-107018750D02*
X201137500Y-107018750D01*
G75*
G02*
X200887500Y-106768750I0J250000D01*
G01*
X200887500Y-106268750D01*
G75*
G02*
X201137500Y-106018750I250000J0D01*
G01*
X202087500Y-106018750D01*
G75*
G02*
X202337500Y-106268750I0J-250000D01*
G01*
X202337500Y-106768750D01*
G75*
G02*
X202087500Y-107018750I-250000J0D01*
G01*
G37*
%TD.AperFunction*%
%TD*%
%TO.P,D46,2*%
%TO.N,Net-(D46-Pad2)*%
%TA.AperFunction,SMDPad,CuDef*%
G36*
G01*
X183037500Y-104962500D02*
X182087500Y-104962500D01*
G75*
G02*
X181837500Y-104712500I0J250000D01*
G01*
X181837500Y-104212500D01*
G75*
G02*
X182087500Y-103962500I250000J0D01*
G01*
X183037500Y-103962500D01*
G75*
G02*
X183287500Y-104212500I0J-250000D01*
G01*
X183287500Y-104712500D01*
G75*
G02*
X183037500Y-104962500I-250000J0D01*
G01*
G37*
%TD.AperFunction*%
%TO.P,D46,1*%
%TO.N,ROW3*%
%TA.AperFunction,SMDPad,CuDef*%
G36*
G01*
X183037500Y-106862500D02*
X182087500Y-106862500D01*
G75*
G02*
X181837500Y-106612500I0J250000D01*
G01*
X181837500Y-106112500D01*
G75*
G02*
X182087500Y-105862500I250000J0D01*
G01*
X183037500Y-105862500D01*
G75*
G02*
X183287500Y-106112500I0J-250000D01*
G01*
X183287500Y-106612500D01*
G75*
G02*
X183037500Y-106862500I-250000J0D01*
G01*
G37*
%TD.AperFunction*%
%TD*%
%TO.P,D45,2*%
%TO.N,Net-(D45-Pad2)*%
%TA.AperFunction,SMDPad,CuDef*%
G36*
G01*
X163987500Y-105118750D02*
X163037500Y-105118750D01*
G75*
G02*
X162787500Y-104868750I0J250000D01*
G01*
X162787500Y-104368750D01*
G75*
G02*
X163037500Y-104118750I250000J0D01*
G01*
X163987500Y-104118750D01*
G75*
G02*
X164237500Y-104368750I0J-250000D01*
G01*
X164237500Y-104868750D01*
G75*
G02*
X163987500Y-105118750I-250000J0D01*
G01*
G37*
%TD.AperFunction*%
%TO.P,D45,1*%
%TO.N,ROW3*%
%TA.AperFunction,SMDPad,CuDef*%
G36*
G01*
X163987500Y-107018750D02*
X163037500Y-107018750D01*
G75*
G02*
X162787500Y-106768750I0J250000D01*
G01*
X162787500Y-106268750D01*
G75*
G02*
X163037500Y-106018750I250000J0D01*
G01*
X163987500Y-106018750D01*
G75*
G02*
X164237500Y-106268750I0J-250000D01*
G01*
X164237500Y-106768750D01*
G75*
G02*
X163987500Y-107018750I-250000J0D01*
G01*
G37*
%TD.AperFunction*%
%TD*%
%TO.P,D44,2*%
%TO.N,Net-(D44-Pad2)*%
%TA.AperFunction,SMDPad,CuDef*%
G36*
G01*
X144937500Y-105118750D02*
X143987500Y-105118750D01*
G75*
G02*
X143737500Y-104868750I0J250000D01*
G01*
X143737500Y-104368750D01*
G75*
G02*
X143987500Y-104118750I250000J0D01*
G01*
X144937500Y-104118750D01*
G75*
G02*
X145187500Y-104368750I0J-250000D01*
G01*
X145187500Y-104868750D01*
G75*
G02*
X144937500Y-105118750I-250000J0D01*
G01*
G37*
%TD.AperFunction*%
%TO.P,D44,1*%
%TO.N,ROW3*%
%TA.AperFunction,SMDPad,CuDef*%
G36*
G01*
X144937500Y-107018750D02*
X143987500Y-107018750D01*
G75*
G02*
X143737500Y-106768750I0J250000D01*
G01*
X143737500Y-106268750D01*
G75*
G02*
X143987500Y-106018750I250000J0D01*
G01*
X144937500Y-106018750D01*
G75*
G02*
X145187500Y-106268750I0J-250000D01*
G01*
X145187500Y-106768750D01*
G75*
G02*
X144937500Y-107018750I-250000J0D01*
G01*
G37*
%TD.AperFunction*%
%TD*%
%TO.P,D43,2*%
%TO.N,Net-(D43-Pad2)*%
%TA.AperFunction,SMDPad,CuDef*%
G36*
G01*
X125887500Y-105118750D02*
X124937500Y-105118750D01*
G75*
G02*
X124687500Y-104868750I0J250000D01*
G01*
X124687500Y-104368750D01*
G75*
G02*
X124937500Y-104118750I250000J0D01*
G01*
X125887500Y-104118750D01*
G75*
G02*
X126137500Y-104368750I0J-250000D01*
G01*
X126137500Y-104868750D01*
G75*
G02*
X125887500Y-105118750I-250000J0D01*
G01*
G37*
%TD.AperFunction*%
%TO.P,D43,1*%
%TO.N,ROW3*%
%TA.AperFunction,SMDPad,CuDef*%
G36*
G01*
X125887500Y-107018750D02*
X124937500Y-107018750D01*
G75*
G02*
X124687500Y-106768750I0J250000D01*
G01*
X124687500Y-106268750D01*
G75*
G02*
X124937500Y-106018750I250000J0D01*
G01*
X125887500Y-106018750D01*
G75*
G02*
X126137500Y-106268750I0J-250000D01*
G01*
X126137500Y-106768750D01*
G75*
G02*
X125887500Y-107018750I-250000J0D01*
G01*
G37*
%TD.AperFunction*%
%TD*%
%TO.P,D42,2*%
%TO.N,Net-(D42-Pad2)*%
%TA.AperFunction,SMDPad,CuDef*%
G36*
G01*
X104456250Y-105118750D02*
X103506250Y-105118750D01*
G75*
G02*
X103256250Y-104868750I0J250000D01*
G01*
X103256250Y-104368750D01*
G75*
G02*
X103506250Y-104118750I250000J0D01*
G01*
X104456250Y-104118750D01*
G75*
G02*
X104706250Y-104368750I0J-250000D01*
G01*
X104706250Y-104868750D01*
G75*
G02*
X104456250Y-105118750I-250000J0D01*
G01*
G37*
%TD.AperFunction*%
%TO.P,D42,1*%
%TO.N,ROW3*%
%TA.AperFunction,SMDPad,CuDef*%
G36*
G01*
X104456250Y-107018750D02*
X103506250Y-107018750D01*
G75*
G02*
X103256250Y-106768750I0J250000D01*
G01*
X103256250Y-106268750D01*
G75*
G02*
X103506250Y-106018750I250000J0D01*
G01*
X104456250Y-106018750D01*
G75*
G02*
X104706250Y-106268750I0J-250000D01*
G01*
X104706250Y-106768750D01*
G75*
G02*
X104456250Y-107018750I-250000J0D01*
G01*
G37*
%TD.AperFunction*%
%TD*%
%TO.P,D41,2*%
%TO.N,Net-(D41-Pad2)*%
%TA.AperFunction,SMDPad,CuDef*%
G36*
G01*
X348137500Y-86068750D02*
X347187500Y-86068750D01*
G75*
G02*
X346937500Y-85818750I0J250000D01*
G01*
X346937500Y-85318750D01*
G75*
G02*
X347187500Y-85068750I250000J0D01*
G01*
X348137500Y-85068750D01*
G75*
G02*
X348387500Y-85318750I0J-250000D01*
G01*
X348387500Y-85818750D01*
G75*
G02*
X348137500Y-86068750I-250000J0D01*
G01*
G37*
%TD.AperFunction*%
%TO.P,D41,1*%
%TO.N,ROW2*%
%TA.AperFunction,SMDPad,CuDef*%
G36*
G01*
X348137500Y-87968750D02*
X347187500Y-87968750D01*
G75*
G02*
X346937500Y-87718750I0J250000D01*
G01*
X346937500Y-87218750D01*
G75*
G02*
X347187500Y-86968750I250000J0D01*
G01*
X348137500Y-86968750D01*
G75*
G02*
X348387500Y-87218750I0J-250000D01*
G01*
X348387500Y-87718750D01*
G75*
G02*
X348137500Y-87968750I-250000J0D01*
G01*
G37*
%TD.AperFunction*%
%TD*%
%TO.P,D40,2*%
%TO.N,Net-(D40-Pad2)*%
%TA.AperFunction,SMDPad,CuDef*%
G36*
G01*
X306862500Y-86068750D02*
X305912500Y-86068750D01*
G75*
G02*
X305662500Y-85818750I0J250000D01*
G01*
X305662500Y-85318750D01*
G75*
G02*
X305912500Y-85068750I250000J0D01*
G01*
X306862500Y-85068750D01*
G75*
G02*
X307112500Y-85318750I0J-250000D01*
G01*
X307112500Y-85818750D01*
G75*
G02*
X306862500Y-86068750I-250000J0D01*
G01*
G37*
%TD.AperFunction*%
%TO.P,D40,1*%
%TO.N,ROW2*%
%TA.AperFunction,SMDPad,CuDef*%
G36*
G01*
X306862500Y-87968750D02*
X305912500Y-87968750D01*
G75*
G02*
X305662500Y-87718750I0J250000D01*
G01*
X305662500Y-87218750D01*
G75*
G02*
X305912500Y-86968750I250000J0D01*
G01*
X306862500Y-86968750D01*
G75*
G02*
X307112500Y-87218750I0J-250000D01*
G01*
X307112500Y-87718750D01*
G75*
G02*
X306862500Y-87968750I-250000J0D01*
G01*
G37*
%TD.AperFunction*%
%TD*%
%TO.P,D39,2*%
%TO.N,Net-(D39-Pad2)*%
%TA.AperFunction,SMDPad,CuDef*%
G36*
G01*
X287812500Y-86068750D02*
X286862500Y-86068750D01*
G75*
G02*
X286612500Y-85818750I0J250000D01*
G01*
X286612500Y-85318750D01*
G75*
G02*
X286862500Y-85068750I250000J0D01*
G01*
X287812500Y-85068750D01*
G75*
G02*
X288062500Y-85318750I0J-250000D01*
G01*
X288062500Y-85818750D01*
G75*
G02*
X287812500Y-86068750I-250000J0D01*
G01*
G37*
%TD.AperFunction*%
%TO.P,D39,1*%
%TO.N,ROW2*%
%TA.AperFunction,SMDPad,CuDef*%
G36*
G01*
X287812500Y-87968750D02*
X286862500Y-87968750D01*
G75*
G02*
X286612500Y-87718750I0J250000D01*
G01*
X286612500Y-87218750D01*
G75*
G02*
X286862500Y-86968750I250000J0D01*
G01*
X287812500Y-86968750D01*
G75*
G02*
X288062500Y-87218750I0J-250000D01*
G01*
X288062500Y-87718750D01*
G75*
G02*
X287812500Y-87968750I-250000J0D01*
G01*
G37*
%TD.AperFunction*%
%TD*%
%TO.P,D38,2*%
%TO.N,Net-(D38-Pad2)*%
%TA.AperFunction,SMDPad,CuDef*%
G36*
G01*
X268762500Y-86068750D02*
X267812500Y-86068750D01*
G75*
G02*
X267562500Y-85818750I0J250000D01*
G01*
X267562500Y-85318750D01*
G75*
G02*
X267812500Y-85068750I250000J0D01*
G01*
X268762500Y-85068750D01*
G75*
G02*
X269012500Y-85318750I0J-250000D01*
G01*
X269012500Y-85818750D01*
G75*
G02*
X268762500Y-86068750I-250000J0D01*
G01*
G37*
%TD.AperFunction*%
%TO.P,D38,1*%
%TO.N,ROW2*%
%TA.AperFunction,SMDPad,CuDef*%
G36*
G01*
X268762500Y-87968750D02*
X267812500Y-87968750D01*
G75*
G02*
X267562500Y-87718750I0J250000D01*
G01*
X267562500Y-87218750D01*
G75*
G02*
X267812500Y-86968750I250000J0D01*
G01*
X268762500Y-86968750D01*
G75*
G02*
X269012500Y-87218750I0J-250000D01*
G01*
X269012500Y-87718750D01*
G75*
G02*
X268762500Y-87968750I-250000J0D01*
G01*
G37*
%TD.AperFunction*%
%TD*%
%TO.P,D37,2*%
%TO.N,Net-(D37-Pad2)*%
%TA.AperFunction,SMDPad,CuDef*%
G36*
G01*
X249712500Y-86068750D02*
X248762500Y-86068750D01*
G75*
G02*
X248512500Y-85818750I0J250000D01*
G01*
X248512500Y-85318750D01*
G75*
G02*
X248762500Y-85068750I250000J0D01*
G01*
X249712500Y-85068750D01*
G75*
G02*
X249962500Y-85318750I0J-250000D01*
G01*
X249962500Y-85818750D01*
G75*
G02*
X249712500Y-86068750I-250000J0D01*
G01*
G37*
%TD.AperFunction*%
%TO.P,D37,1*%
%TO.N,ROW2*%
%TA.AperFunction,SMDPad,CuDef*%
G36*
G01*
X249712500Y-87968750D02*
X248762500Y-87968750D01*
G75*
G02*
X248512500Y-87718750I0J250000D01*
G01*
X248512500Y-87218750D01*
G75*
G02*
X248762500Y-86968750I250000J0D01*
G01*
X249712500Y-86968750D01*
G75*
G02*
X249962500Y-87218750I0J-250000D01*
G01*
X249962500Y-87718750D01*
G75*
G02*
X249712500Y-87968750I-250000J0D01*
G01*
G37*
%TD.AperFunction*%
%TD*%
%TO.P,D36,2*%
%TO.N,Net-(D36-Pad2)*%
%TA.AperFunction,SMDPad,CuDef*%
G36*
G01*
X230662500Y-86068750D02*
X229712500Y-86068750D01*
G75*
G02*
X229462500Y-85818750I0J250000D01*
G01*
X229462500Y-85318750D01*
G75*
G02*
X229712500Y-85068750I250000J0D01*
G01*
X230662500Y-85068750D01*
G75*
G02*
X230912500Y-85318750I0J-250000D01*
G01*
X230912500Y-85818750D01*
G75*
G02*
X230662500Y-86068750I-250000J0D01*
G01*
G37*
%TD.AperFunction*%
%TO.P,D36,1*%
%TO.N,ROW2*%
%TA.AperFunction,SMDPad,CuDef*%
G36*
G01*
X230662500Y-87968750D02*
X229712500Y-87968750D01*
G75*
G02*
X229462500Y-87718750I0J250000D01*
G01*
X229462500Y-87218750D01*
G75*
G02*
X229712500Y-86968750I250000J0D01*
G01*
X230662500Y-86968750D01*
G75*
G02*
X230912500Y-87218750I0J-250000D01*
G01*
X230912500Y-87718750D01*
G75*
G02*
X230662500Y-87968750I-250000J0D01*
G01*
G37*
%TD.AperFunction*%
%TD*%
%TO.P,D35,2*%
%TO.N,Net-(D35-Pad2)*%
%TA.AperFunction,SMDPad,CuDef*%
G36*
G01*
X211612500Y-86068750D02*
X210662500Y-86068750D01*
G75*
G02*
X210412500Y-85818750I0J250000D01*
G01*
X210412500Y-85318750D01*
G75*
G02*
X210662500Y-85068750I250000J0D01*
G01*
X211612500Y-85068750D01*
G75*
G02*
X211862500Y-85318750I0J-250000D01*
G01*
X211862500Y-85818750D01*
G75*
G02*
X211612500Y-86068750I-250000J0D01*
G01*
G37*
%TD.AperFunction*%
%TO.P,D35,1*%
%TO.N,ROW2*%
%TA.AperFunction,SMDPad,CuDef*%
G36*
G01*
X211612500Y-87968750D02*
X210662500Y-87968750D01*
G75*
G02*
X210412500Y-87718750I0J250000D01*
G01*
X210412500Y-87218750D01*
G75*
G02*
X210662500Y-86968750I250000J0D01*
G01*
X211612500Y-86968750D01*
G75*
G02*
X211862500Y-87218750I0J-250000D01*
G01*
X211862500Y-87718750D01*
G75*
G02*
X211612500Y-87968750I-250000J0D01*
G01*
G37*
%TD.AperFunction*%
%TD*%
%TO.P,D34,2*%
%TO.N,Net-(D34-Pad2)*%
%TA.AperFunction,SMDPad,CuDef*%
G36*
G01*
X192562500Y-86068750D02*
X191612500Y-86068750D01*
G75*
G02*
X191362500Y-85818750I0J250000D01*
G01*
X191362500Y-85318750D01*
G75*
G02*
X191612500Y-85068750I250000J0D01*
G01*
X192562500Y-85068750D01*
G75*
G02*
X192812500Y-85318750I0J-250000D01*
G01*
X192812500Y-85818750D01*
G75*
G02*
X192562500Y-86068750I-250000J0D01*
G01*
G37*
%TD.AperFunction*%
%TO.P,D34,1*%
%TO.N,ROW2*%
%TA.AperFunction,SMDPad,CuDef*%
G36*
G01*
X192562500Y-87968750D02*
X191612500Y-87968750D01*
G75*
G02*
X191362500Y-87718750I0J250000D01*
G01*
X191362500Y-87218750D01*
G75*
G02*
X191612500Y-86968750I250000J0D01*
G01*
X192562500Y-86968750D01*
G75*
G02*
X192812500Y-87218750I0J-250000D01*
G01*
X192812500Y-87718750D01*
G75*
G02*
X192562500Y-87968750I-250000J0D01*
G01*
G37*
%TD.AperFunction*%
%TD*%
%TO.P,D33,2*%
%TO.N,Net-(D33-Pad2)*%
%TA.AperFunction,SMDPad,CuDef*%
G36*
G01*
X173512500Y-86068750D02*
X172562500Y-86068750D01*
G75*
G02*
X172312500Y-85818750I0J250000D01*
G01*
X172312500Y-85318750D01*
G75*
G02*
X172562500Y-85068750I250000J0D01*
G01*
X173512500Y-85068750D01*
G75*
G02*
X173762500Y-85318750I0J-250000D01*
G01*
X173762500Y-85818750D01*
G75*
G02*
X173512500Y-86068750I-250000J0D01*
G01*
G37*
%TD.AperFunction*%
%TO.P,D33,1*%
%TO.N,ROW2*%
%TA.AperFunction,SMDPad,CuDef*%
G36*
G01*
X173512500Y-87968750D02*
X172562500Y-87968750D01*
G75*
G02*
X172312500Y-87718750I0J250000D01*
G01*
X172312500Y-87218750D01*
G75*
G02*
X172562500Y-86968750I250000J0D01*
G01*
X173512500Y-86968750D01*
G75*
G02*
X173762500Y-87218750I0J-250000D01*
G01*
X173762500Y-87718750D01*
G75*
G02*
X173512500Y-87968750I-250000J0D01*
G01*
G37*
%TD.AperFunction*%
%TD*%
%TO.P,D32,2*%
%TO.N,Net-(D32-Pad2)*%
%TA.AperFunction,SMDPad,CuDef*%
G36*
G01*
X154462500Y-86068750D02*
X153512500Y-86068750D01*
G75*
G02*
X153262500Y-85818750I0J250000D01*
G01*
X153262500Y-85318750D01*
G75*
G02*
X153512500Y-85068750I250000J0D01*
G01*
X154462500Y-85068750D01*
G75*
G02*
X154712500Y-85318750I0J-250000D01*
G01*
X154712500Y-85818750D01*
G75*
G02*
X154462500Y-86068750I-250000J0D01*
G01*
G37*
%TD.AperFunction*%
%TO.P,D32,1*%
%TO.N,ROW2*%
%TA.AperFunction,SMDPad,CuDef*%
G36*
G01*
X154462500Y-87968750D02*
X153512500Y-87968750D01*
G75*
G02*
X153262500Y-87718750I0J250000D01*
G01*
X153262500Y-87218750D01*
G75*
G02*
X153512500Y-86968750I250000J0D01*
G01*
X154462500Y-86968750D01*
G75*
G02*
X154712500Y-87218750I0J-250000D01*
G01*
X154712500Y-87718750D01*
G75*
G02*
X154462500Y-87968750I-250000J0D01*
G01*
G37*
%TD.AperFunction*%
%TD*%
%TO.P,D31,2*%
%TO.N,Net-(D31-Pad2)*%
%TA.AperFunction,SMDPad,CuDef*%
G36*
G01*
X135412500Y-86068750D02*
X134462500Y-86068750D01*
G75*
G02*
X134212500Y-85818750I0J250000D01*
G01*
X134212500Y-85318750D01*
G75*
G02*
X134462500Y-85068750I250000J0D01*
G01*
X135412500Y-85068750D01*
G75*
G02*
X135662500Y-85318750I0J-250000D01*
G01*
X135662500Y-85818750D01*
G75*
G02*
X135412500Y-86068750I-250000J0D01*
G01*
G37*
%TD.AperFunction*%
%TO.P,D31,1*%
%TO.N,ROW2*%
%TA.AperFunction,SMDPad,CuDef*%
G36*
G01*
X135412500Y-87968750D02*
X134462500Y-87968750D01*
G75*
G02*
X134212500Y-87718750I0J250000D01*
G01*
X134212500Y-87218750D01*
G75*
G02*
X134462500Y-86968750I250000J0D01*
G01*
X135412500Y-86968750D01*
G75*
G02*
X135662500Y-87218750I0J-250000D01*
G01*
X135662500Y-87718750D01*
G75*
G02*
X135412500Y-87968750I-250000J0D01*
G01*
G37*
%TD.AperFunction*%
%TD*%
%TO.P,D30,2*%
%TO.N,Net-(D30-Pad2)*%
%TA.AperFunction,SMDPad,CuDef*%
G36*
G01*
X116362500Y-86068750D02*
X115412500Y-86068750D01*
G75*
G02*
X115162500Y-85818750I0J250000D01*
G01*
X115162500Y-85318750D01*
G75*
G02*
X115412500Y-85068750I250000J0D01*
G01*
X116362500Y-85068750D01*
G75*
G02*
X116612500Y-85318750I0J-250000D01*
G01*
X116612500Y-85818750D01*
G75*
G02*
X116362500Y-86068750I-250000J0D01*
G01*
G37*
%TD.AperFunction*%
%TO.P,D30,1*%
%TO.N,ROW2*%
%TA.AperFunction,SMDPad,CuDef*%
G36*
G01*
X116362500Y-87968750D02*
X115412500Y-87968750D01*
G75*
G02*
X115162500Y-87718750I0J250000D01*
G01*
X115162500Y-87218750D01*
G75*
G02*
X115412500Y-86968750I250000J0D01*
G01*
X116362500Y-86968750D01*
G75*
G02*
X116612500Y-87218750I0J-250000D01*
G01*
X116612500Y-87718750D01*
G75*
G02*
X116362500Y-87968750I-250000J0D01*
G01*
G37*
%TD.AperFunction*%
%TD*%
%TO.P,D29,2*%
%TO.N,Net-(D29-Pad2)*%
%TA.AperFunction,SMDPad,CuDef*%
G36*
G01*
X90168750Y-86068750D02*
X89218750Y-86068750D01*
G75*
G02*
X88968750Y-85818750I0J250000D01*
G01*
X88968750Y-85318750D01*
G75*
G02*
X89218750Y-85068750I250000J0D01*
G01*
X90168750Y-85068750D01*
G75*
G02*
X90418750Y-85318750I0J-250000D01*
G01*
X90418750Y-85818750D01*
G75*
G02*
X90168750Y-86068750I-250000J0D01*
G01*
G37*
%TD.AperFunction*%
%TO.P,D29,1*%
%TO.N,ROW2*%
%TA.AperFunction,SMDPad,CuDef*%
G36*
G01*
X90168750Y-87968750D02*
X89218750Y-87968750D01*
G75*
G02*
X88968750Y-87718750I0J250000D01*
G01*
X88968750Y-87218750D01*
G75*
G02*
X89218750Y-86968750I250000J0D01*
G01*
X90168750Y-86968750D01*
G75*
G02*
X90418750Y-87218750I0J-250000D01*
G01*
X90418750Y-87718750D01*
G75*
G02*
X90168750Y-87968750I-250000J0D01*
G01*
G37*
%TD.AperFunction*%
%TD*%
%TO.P,D28,2*%
%TO.N,Net-(D28-Pad2)*%
%TA.AperFunction,SMDPad,CuDef*%
G36*
G01*
X348931250Y-66225000D02*
X347981250Y-66225000D01*
G75*
G02*
X347731250Y-65975000I0J250000D01*
G01*
X347731250Y-65475000D01*
G75*
G02*
X347981250Y-65225000I250000J0D01*
G01*
X348931250Y-65225000D01*
G75*
G02*
X349181250Y-65475000I0J-250000D01*
G01*
X349181250Y-65975000D01*
G75*
G02*
X348931250Y-66225000I-250000J0D01*
G01*
G37*
%TD.AperFunction*%
%TO.P,D28,1*%
%TO.N,ROW1*%
%TA.AperFunction,SMDPad,CuDef*%
G36*
G01*
X348931250Y-68125000D02*
X347981250Y-68125000D01*
G75*
G02*
X347731250Y-67875000I0J250000D01*
G01*
X347731250Y-67375000D01*
G75*
G02*
X347981250Y-67125000I250000J0D01*
G01*
X348931250Y-67125000D01*
G75*
G02*
X349181250Y-67375000I0J-250000D01*
G01*
X349181250Y-67875000D01*
G75*
G02*
X348931250Y-68125000I-250000J0D01*
G01*
G37*
%TD.AperFunction*%
%TD*%
%TO.P,D27,2*%
%TO.N,Net-(D27-Pad2)*%
%TA.AperFunction,SMDPad,CuDef*%
G36*
G01*
X321150000Y-67018750D02*
X320200000Y-67018750D01*
G75*
G02*
X319950000Y-66768750I0J250000D01*
G01*
X319950000Y-66268750D01*
G75*
G02*
X320200000Y-66018750I250000J0D01*
G01*
X321150000Y-66018750D01*
G75*
G02*
X321400000Y-66268750I0J-250000D01*
G01*
X321400000Y-66768750D01*
G75*
G02*
X321150000Y-67018750I-250000J0D01*
G01*
G37*
%TD.AperFunction*%
%TO.P,D27,1*%
%TO.N,ROW1*%
%TA.AperFunction,SMDPad,CuDef*%
G36*
G01*
X321150000Y-68918750D02*
X320200000Y-68918750D01*
G75*
G02*
X319950000Y-68668750I0J250000D01*
G01*
X319950000Y-68168750D01*
G75*
G02*
X320200000Y-67918750I250000J0D01*
G01*
X321150000Y-67918750D01*
G75*
G02*
X321400000Y-68168750I0J-250000D01*
G01*
X321400000Y-68668750D01*
G75*
G02*
X321150000Y-68918750I-250000J0D01*
G01*
G37*
%TD.AperFunction*%
%TD*%
%TO.P,D26,2*%
%TO.N,Net-(D26-Pad2)*%
%TA.AperFunction,SMDPad,CuDef*%
G36*
G01*
X302100000Y-67018750D02*
X301150000Y-67018750D01*
G75*
G02*
X300900000Y-66768750I0J250000D01*
G01*
X300900000Y-66268750D01*
G75*
G02*
X301150000Y-66018750I250000J0D01*
G01*
X302100000Y-66018750D01*
G75*
G02*
X302350000Y-66268750I0J-250000D01*
G01*
X302350000Y-66768750D01*
G75*
G02*
X302100000Y-67018750I-250000J0D01*
G01*
G37*
%TD.AperFunction*%
%TO.P,D26,1*%
%TO.N,ROW1*%
%TA.AperFunction,SMDPad,CuDef*%
G36*
G01*
X302100000Y-68918750D02*
X301150000Y-68918750D01*
G75*
G02*
X300900000Y-68668750I0J250000D01*
G01*
X300900000Y-68168750D01*
G75*
G02*
X301150000Y-67918750I250000J0D01*
G01*
X302100000Y-67918750D01*
G75*
G02*
X302350000Y-68168750I0J-250000D01*
G01*
X302350000Y-68668750D01*
G75*
G02*
X302100000Y-68918750I-250000J0D01*
G01*
G37*
%TD.AperFunction*%
%TD*%
%TO.P,D25,2*%
%TO.N,Net-(D25-Pad2)*%
%TA.AperFunction,SMDPad,CuDef*%
G36*
G01*
X283050000Y-67018750D02*
X282100000Y-67018750D01*
G75*
G02*
X281850000Y-66768750I0J250000D01*
G01*
X281850000Y-66268750D01*
G75*
G02*
X282100000Y-66018750I250000J0D01*
G01*
X283050000Y-66018750D01*
G75*
G02*
X283300000Y-66268750I0J-250000D01*
G01*
X283300000Y-66768750D01*
G75*
G02*
X283050000Y-67018750I-250000J0D01*
G01*
G37*
%TD.AperFunction*%
%TO.P,D25,1*%
%TO.N,ROW1*%
%TA.AperFunction,SMDPad,CuDef*%
G36*
G01*
X283050000Y-68918750D02*
X282100000Y-68918750D01*
G75*
G02*
X281850000Y-68668750I0J250000D01*
G01*
X281850000Y-68168750D01*
G75*
G02*
X282100000Y-67918750I250000J0D01*
G01*
X283050000Y-67918750D01*
G75*
G02*
X283300000Y-68168750I0J-250000D01*
G01*
X283300000Y-68668750D01*
G75*
G02*
X283050000Y-68918750I-250000J0D01*
G01*
G37*
%TD.AperFunction*%
%TD*%
%TO.P,D24,2*%
%TO.N,Net-(D24-Pad2)*%
%TA.AperFunction,SMDPad,CuDef*%
G36*
G01*
X264000000Y-67018750D02*
X263050000Y-67018750D01*
G75*
G02*
X262800000Y-66768750I0J250000D01*
G01*
X262800000Y-66268750D01*
G75*
G02*
X263050000Y-66018750I250000J0D01*
G01*
X264000000Y-66018750D01*
G75*
G02*
X264250000Y-66268750I0J-250000D01*
G01*
X264250000Y-66768750D01*
G75*
G02*
X264000000Y-67018750I-250000J0D01*
G01*
G37*
%TD.AperFunction*%
%TO.P,D24,1*%
%TO.N,ROW1*%
%TA.AperFunction,SMDPad,CuDef*%
G36*
G01*
X264000000Y-68918750D02*
X263050000Y-68918750D01*
G75*
G02*
X262800000Y-68668750I0J250000D01*
G01*
X262800000Y-68168750D01*
G75*
G02*
X263050000Y-67918750I250000J0D01*
G01*
X264000000Y-67918750D01*
G75*
G02*
X264250000Y-68168750I0J-250000D01*
G01*
X264250000Y-68668750D01*
G75*
G02*
X264000000Y-68918750I-250000J0D01*
G01*
G37*
%TD.AperFunction*%
%TD*%
%TO.P,D23,2*%
%TO.N,Net-(D23-Pad2)*%
%TA.AperFunction,SMDPad,CuDef*%
G36*
G01*
X244950000Y-67018750D02*
X244000000Y-67018750D01*
G75*
G02*
X243750000Y-66768750I0J250000D01*
G01*
X243750000Y-66268750D01*
G75*
G02*
X244000000Y-66018750I250000J0D01*
G01*
X244950000Y-66018750D01*
G75*
G02*
X245200000Y-66268750I0J-250000D01*
G01*
X245200000Y-66768750D01*
G75*
G02*
X244950000Y-67018750I-250000J0D01*
G01*
G37*
%TD.AperFunction*%
%TO.P,D23,1*%
%TO.N,ROW1*%
%TA.AperFunction,SMDPad,CuDef*%
G36*
G01*
X244950000Y-68918750D02*
X244000000Y-68918750D01*
G75*
G02*
X243750000Y-68668750I0J250000D01*
G01*
X243750000Y-68168750D01*
G75*
G02*
X244000000Y-67918750I250000J0D01*
G01*
X244950000Y-67918750D01*
G75*
G02*
X245200000Y-68168750I0J-250000D01*
G01*
X245200000Y-68668750D01*
G75*
G02*
X244950000Y-68918750I-250000J0D01*
G01*
G37*
%TD.AperFunction*%
%TD*%
%TO.P,D22,2*%
%TO.N,Net-(D22-Pad2)*%
%TA.AperFunction,SMDPad,CuDef*%
G36*
G01*
X225900000Y-67018750D02*
X224950000Y-67018750D01*
G75*
G02*
X224700000Y-66768750I0J250000D01*
G01*
X224700000Y-66268750D01*
G75*
G02*
X224950000Y-66018750I250000J0D01*
G01*
X225900000Y-66018750D01*
G75*
G02*
X226150000Y-66268750I0J-250000D01*
G01*
X226150000Y-66768750D01*
G75*
G02*
X225900000Y-67018750I-250000J0D01*
G01*
G37*
%TD.AperFunction*%
%TO.P,D22,1*%
%TO.N,ROW1*%
%TA.AperFunction,SMDPad,CuDef*%
G36*
G01*
X225900000Y-68918750D02*
X224950000Y-68918750D01*
G75*
G02*
X224700000Y-68668750I0J250000D01*
G01*
X224700000Y-68168750D01*
G75*
G02*
X224950000Y-67918750I250000J0D01*
G01*
X225900000Y-67918750D01*
G75*
G02*
X226150000Y-68168750I0J-250000D01*
G01*
X226150000Y-68668750D01*
G75*
G02*
X225900000Y-68918750I-250000J0D01*
G01*
G37*
%TD.AperFunction*%
%TD*%
%TO.P,D21,2*%
%TO.N,Net-(D21-Pad2)*%
%TA.AperFunction,SMDPad,CuDef*%
G36*
G01*
X206850000Y-67018750D02*
X205900000Y-67018750D01*
G75*
G02*
X205650000Y-66768750I0J250000D01*
G01*
X205650000Y-66268750D01*
G75*
G02*
X205900000Y-66018750I250000J0D01*
G01*
X206850000Y-66018750D01*
G75*
G02*
X207100000Y-66268750I0J-250000D01*
G01*
X207100000Y-66768750D01*
G75*
G02*
X206850000Y-67018750I-250000J0D01*
G01*
G37*
%TD.AperFunction*%
%TO.P,D21,1*%
%TO.N,ROW1*%
%TA.AperFunction,SMDPad,CuDef*%
G36*
G01*
X206850000Y-68918750D02*
X205900000Y-68918750D01*
G75*
G02*
X205650000Y-68668750I0J250000D01*
G01*
X205650000Y-68168750D01*
G75*
G02*
X205900000Y-67918750I250000J0D01*
G01*
X206850000Y-67918750D01*
G75*
G02*
X207100000Y-68168750I0J-250000D01*
G01*
X207100000Y-68668750D01*
G75*
G02*
X206850000Y-68918750I-250000J0D01*
G01*
G37*
%TD.AperFunction*%
%TD*%
%TO.P,D20,2*%
%TO.N,Net-(D20-Pad2)*%
%TA.AperFunction,SMDPad,CuDef*%
G36*
G01*
X187800000Y-67018750D02*
X186850000Y-67018750D01*
G75*
G02*
X186600000Y-66768750I0J250000D01*
G01*
X186600000Y-66268750D01*
G75*
G02*
X186850000Y-66018750I250000J0D01*
G01*
X187800000Y-66018750D01*
G75*
G02*
X188050000Y-66268750I0J-250000D01*
G01*
X188050000Y-66768750D01*
G75*
G02*
X187800000Y-67018750I-250000J0D01*
G01*
G37*
%TD.AperFunction*%
%TO.P,D20,1*%
%TO.N,ROW1*%
%TA.AperFunction,SMDPad,CuDef*%
G36*
G01*
X187800000Y-68918750D02*
X186850000Y-68918750D01*
G75*
G02*
X186600000Y-68668750I0J250000D01*
G01*
X186600000Y-68168750D01*
G75*
G02*
X186850000Y-67918750I250000J0D01*
G01*
X187800000Y-67918750D01*
G75*
G02*
X188050000Y-68168750I0J-250000D01*
G01*
X188050000Y-68668750D01*
G75*
G02*
X187800000Y-68918750I-250000J0D01*
G01*
G37*
%TD.AperFunction*%
%TD*%
%TO.P,D19,2*%
%TO.N,Net-(D19-Pad2)*%
%TA.AperFunction,SMDPad,CuDef*%
G36*
G01*
X168750000Y-67018750D02*
X167800000Y-67018750D01*
G75*
G02*
X167550000Y-66768750I0J250000D01*
G01*
X167550000Y-66268750D01*
G75*
G02*
X167800000Y-66018750I250000J0D01*
G01*
X168750000Y-66018750D01*
G75*
G02*
X169000000Y-66268750I0J-250000D01*
G01*
X169000000Y-66768750D01*
G75*
G02*
X168750000Y-67018750I-250000J0D01*
G01*
G37*
%TD.AperFunction*%
%TO.P,D19,1*%
%TO.N,ROW1*%
%TA.AperFunction,SMDPad,CuDef*%
G36*
G01*
X168750000Y-68918750D02*
X167800000Y-68918750D01*
G75*
G02*
X167550000Y-68668750I0J250000D01*
G01*
X167550000Y-68168750D01*
G75*
G02*
X167800000Y-67918750I250000J0D01*
G01*
X168750000Y-67918750D01*
G75*
G02*
X169000000Y-68168750I0J-250000D01*
G01*
X169000000Y-68668750D01*
G75*
G02*
X168750000Y-68918750I-250000J0D01*
G01*
G37*
%TD.AperFunction*%
%TD*%
%TO.P,D18,2*%
%TO.N,Net-(D18-Pad2)*%
%TA.AperFunction,SMDPad,CuDef*%
G36*
G01*
X149700000Y-67018750D02*
X148750000Y-67018750D01*
G75*
G02*
X148500000Y-66768750I0J250000D01*
G01*
X148500000Y-66268750D01*
G75*
G02*
X148750000Y-66018750I250000J0D01*
G01*
X149700000Y-66018750D01*
G75*
G02*
X149950000Y-66268750I0J-250000D01*
G01*
X149950000Y-66768750D01*
G75*
G02*
X149700000Y-67018750I-250000J0D01*
G01*
G37*
%TD.AperFunction*%
%TO.P,D18,1*%
%TO.N,ROW1*%
%TA.AperFunction,SMDPad,CuDef*%
G36*
G01*
X149700000Y-68918750D02*
X148750000Y-68918750D01*
G75*
G02*
X148500000Y-68668750I0J250000D01*
G01*
X148500000Y-68168750D01*
G75*
G02*
X148750000Y-67918750I250000J0D01*
G01*
X149700000Y-67918750D01*
G75*
G02*
X149950000Y-68168750I0J-250000D01*
G01*
X149950000Y-68668750D01*
G75*
G02*
X149700000Y-68918750I-250000J0D01*
G01*
G37*
%TD.AperFunction*%
%TD*%
%TO.P,D17,2*%
%TO.N,Net-(D17-Pad2)*%
%TA.AperFunction,SMDPad,CuDef*%
G36*
G01*
X130650000Y-67018750D02*
X129700000Y-67018750D01*
G75*
G02*
X129450000Y-66768750I0J250000D01*
G01*
X129450000Y-66268750D01*
G75*
G02*
X129700000Y-66018750I250000J0D01*
G01*
X130650000Y-66018750D01*
G75*
G02*
X130900000Y-66268750I0J-250000D01*
G01*
X130900000Y-66768750D01*
G75*
G02*
X130650000Y-67018750I-250000J0D01*
G01*
G37*
%TD.AperFunction*%
%TO.P,D17,1*%
%TO.N,ROW1*%
%TA.AperFunction,SMDPad,CuDef*%
G36*
G01*
X130650000Y-68918750D02*
X129700000Y-68918750D01*
G75*
G02*
X129450000Y-68668750I0J250000D01*
G01*
X129450000Y-68168750D01*
G75*
G02*
X129700000Y-67918750I250000J0D01*
G01*
X130650000Y-67918750D01*
G75*
G02*
X130900000Y-68168750I0J-250000D01*
G01*
X130900000Y-68668750D01*
G75*
G02*
X130650000Y-68918750I-250000J0D01*
G01*
G37*
%TD.AperFunction*%
%TD*%
%TO.P,D16,2*%
%TO.N,Net-(D16-Pad2)*%
%TA.AperFunction,SMDPad,CuDef*%
G36*
G01*
X111600000Y-67018750D02*
X110650000Y-67018750D01*
G75*
G02*
X110400000Y-66768750I0J250000D01*
G01*
X110400000Y-66268750D01*
G75*
G02*
X110650000Y-66018750I250000J0D01*
G01*
X111600000Y-66018750D01*
G75*
G02*
X111850000Y-66268750I0J-250000D01*
G01*
X111850000Y-66768750D01*
G75*
G02*
X111600000Y-67018750I-250000J0D01*
G01*
G37*
%TD.AperFunction*%
%TO.P,D16,1*%
%TO.N,ROW1*%
%TA.AperFunction,SMDPad,CuDef*%
G36*
G01*
X111600000Y-68918750D02*
X110650000Y-68918750D01*
G75*
G02*
X110400000Y-68668750I0J250000D01*
G01*
X110400000Y-68168750D01*
G75*
G02*
X110650000Y-67918750I250000J0D01*
G01*
X111600000Y-67918750D01*
G75*
G02*
X111850000Y-68168750I0J-250000D01*
G01*
X111850000Y-68668750D01*
G75*
G02*
X111600000Y-68918750I-250000J0D01*
G01*
G37*
%TD.AperFunction*%
%TD*%
%TO.P,D15,2*%
%TO.N,Net-(D15-Pad2)*%
%TA.AperFunction,SMDPad,CuDef*%
G36*
G01*
X87787500Y-67018750D02*
X86837500Y-67018750D01*
G75*
G02*
X86587500Y-66768750I0J250000D01*
G01*
X86587500Y-66268750D01*
G75*
G02*
X86837500Y-66018750I250000J0D01*
G01*
X87787500Y-66018750D01*
G75*
G02*
X88037500Y-66268750I0J-250000D01*
G01*
X88037500Y-66768750D01*
G75*
G02*
X87787500Y-67018750I-250000J0D01*
G01*
G37*
%TD.AperFunction*%
%TO.P,D15,1*%
%TO.N,ROW1*%
%TA.AperFunction,SMDPad,CuDef*%
G36*
G01*
X87787500Y-68918750D02*
X86837500Y-68918750D01*
G75*
G02*
X86587500Y-68668750I0J250000D01*
G01*
X86587500Y-68168750D01*
G75*
G02*
X86837500Y-67918750I250000J0D01*
G01*
X87787500Y-67918750D01*
G75*
G02*
X88037500Y-68168750I0J-250000D01*
G01*
X88037500Y-68668750D01*
G75*
G02*
X87787500Y-68918750I-250000J0D01*
G01*
G37*
%TD.AperFunction*%
%TD*%
%TO.P,D14,2*%
%TO.N,Net-(D14-Pad2)*%
%TA.AperFunction,SMDPad,CuDef*%
G36*
G01*
X348931250Y-47968750D02*
X347981250Y-47968750D01*
G75*
G02*
X347731250Y-47718750I0J250000D01*
G01*
X347731250Y-47218750D01*
G75*
G02*
X347981250Y-46968750I250000J0D01*
G01*
X348931250Y-46968750D01*
G75*
G02*
X349181250Y-47218750I0J-250000D01*
G01*
X349181250Y-47718750D01*
G75*
G02*
X348931250Y-47968750I-250000J0D01*
G01*
G37*
%TD.AperFunction*%
%TO.P,D14,1*%
%TO.N,ROW0*%
%TA.AperFunction,SMDPad,CuDef*%
G36*
G01*
X348931250Y-49868750D02*
X347981250Y-49868750D01*
G75*
G02*
X347731250Y-49618750I0J250000D01*
G01*
X347731250Y-49118750D01*
G75*
G02*
X347981250Y-48868750I250000J0D01*
G01*
X348931250Y-48868750D01*
G75*
G02*
X349181250Y-49118750I0J-250000D01*
G01*
X349181250Y-49618750D01*
G75*
G02*
X348931250Y-49868750I-250000J0D01*
G01*
G37*
%TD.AperFunction*%
%TD*%
%TO.P,D13,2*%
%TO.N,Net-(D13-Pad2)*%
%TA.AperFunction,SMDPad,CuDef*%
G36*
G01*
X311625000Y-47968750D02*
X310675000Y-47968750D01*
G75*
G02*
X310425000Y-47718750I0J250000D01*
G01*
X310425000Y-47218750D01*
G75*
G02*
X310675000Y-46968750I250000J0D01*
G01*
X311625000Y-46968750D01*
G75*
G02*
X311875000Y-47218750I0J-250000D01*
G01*
X311875000Y-47718750D01*
G75*
G02*
X311625000Y-47968750I-250000J0D01*
G01*
G37*
%TD.AperFunction*%
%TO.P,D13,1*%
%TO.N,ROW0*%
%TA.AperFunction,SMDPad,CuDef*%
G36*
G01*
X311625000Y-49868750D02*
X310675000Y-49868750D01*
G75*
G02*
X310425000Y-49618750I0J250000D01*
G01*
X310425000Y-49118750D01*
G75*
G02*
X310675000Y-48868750I250000J0D01*
G01*
X311625000Y-48868750D01*
G75*
G02*
X311875000Y-49118750I0J-250000D01*
G01*
X311875000Y-49618750D01*
G75*
G02*
X311625000Y-49868750I-250000J0D01*
G01*
G37*
%TD.AperFunction*%
%TD*%
%TO.P,D12,2*%
%TO.N,Net-(D12-Pad2)*%
%TA.AperFunction,SMDPad,CuDef*%
G36*
G01*
X292575000Y-47968750D02*
X291625000Y-47968750D01*
G75*
G02*
X291375000Y-47718750I0J250000D01*
G01*
X291375000Y-47218750D01*
G75*
G02*
X291625000Y-46968750I250000J0D01*
G01*
X292575000Y-46968750D01*
G75*
G02*
X292825000Y-47218750I0J-250000D01*
G01*
X292825000Y-47718750D01*
G75*
G02*
X292575000Y-47968750I-250000J0D01*
G01*
G37*
%TD.AperFunction*%
%TO.P,D12,1*%
%TO.N,ROW0*%
%TA.AperFunction,SMDPad,CuDef*%
G36*
G01*
X292575000Y-49868750D02*
X291625000Y-49868750D01*
G75*
G02*
X291375000Y-49618750I0J250000D01*
G01*
X291375000Y-49118750D01*
G75*
G02*
X291625000Y-48868750I250000J0D01*
G01*
X292575000Y-48868750D01*
G75*
G02*
X292825000Y-49118750I0J-250000D01*
G01*
X292825000Y-49618750D01*
G75*
G02*
X292575000Y-49868750I-250000J0D01*
G01*
G37*
%TD.AperFunction*%
%TD*%
%TO.P,D11,2*%
%TO.N,Net-(D11-Pad2)*%
%TA.AperFunction,SMDPad,CuDef*%
G36*
G01*
X273525000Y-47968750D02*
X272575000Y-47968750D01*
G75*
G02*
X272325000Y-47718750I0J250000D01*
G01*
X272325000Y-47218750D01*
G75*
G02*
X272575000Y-46968750I250000J0D01*
G01*
X273525000Y-46968750D01*
G75*
G02*
X273775000Y-47218750I0J-250000D01*
G01*
X273775000Y-47718750D01*
G75*
G02*
X273525000Y-47968750I-250000J0D01*
G01*
G37*
%TD.AperFunction*%
%TO.P,D11,1*%
%TO.N,ROW0*%
%TA.AperFunction,SMDPad,CuDef*%
G36*
G01*
X273525000Y-49868750D02*
X272575000Y-49868750D01*
G75*
G02*
X272325000Y-49618750I0J250000D01*
G01*
X272325000Y-49118750D01*
G75*
G02*
X272575000Y-48868750I250000J0D01*
G01*
X273525000Y-48868750D01*
G75*
G02*
X273775000Y-49118750I0J-250000D01*
G01*
X273775000Y-49618750D01*
G75*
G02*
X273525000Y-49868750I-250000J0D01*
G01*
G37*
%TD.AperFunction*%
%TD*%
%TO.P,D10,2*%
%TO.N,Net-(D10-Pad2)*%
%TA.AperFunction,SMDPad,CuDef*%
G36*
G01*
X254475000Y-47968750D02*
X253525000Y-47968750D01*
G75*
G02*
X253275000Y-47718750I0J250000D01*
G01*
X253275000Y-47218750D01*
G75*
G02*
X253525000Y-46968750I250000J0D01*
G01*
X254475000Y-46968750D01*
G75*
G02*
X254725000Y-47218750I0J-250000D01*
G01*
X254725000Y-47718750D01*
G75*
G02*
X254475000Y-47968750I-250000J0D01*
G01*
G37*
%TD.AperFunction*%
%TO.P,D10,1*%
%TO.N,ROW0*%
%TA.AperFunction,SMDPad,CuDef*%
G36*
G01*
X254475000Y-49868750D02*
X253525000Y-49868750D01*
G75*
G02*
X253275000Y-49618750I0J250000D01*
G01*
X253275000Y-49118750D01*
G75*
G02*
X253525000Y-48868750I250000J0D01*
G01*
X254475000Y-48868750D01*
G75*
G02*
X254725000Y-49118750I0J-250000D01*
G01*
X254725000Y-49618750D01*
G75*
G02*
X254475000Y-49868750I-250000J0D01*
G01*
G37*
%TD.AperFunction*%
%TD*%
%TO.P,D9,2*%
%TO.N,Net-(D9-Pad2)*%
%TA.AperFunction,SMDPad,CuDef*%
G36*
G01*
X235425000Y-47968750D02*
X234475000Y-47968750D01*
G75*
G02*
X234225000Y-47718750I0J250000D01*
G01*
X234225000Y-47218750D01*
G75*
G02*
X234475000Y-46968750I250000J0D01*
G01*
X235425000Y-46968750D01*
G75*
G02*
X235675000Y-47218750I0J-250000D01*
G01*
X235675000Y-47718750D01*
G75*
G02*
X235425000Y-47968750I-250000J0D01*
G01*
G37*
%TD.AperFunction*%
%TO.P,D9,1*%
%TO.N,ROW0*%
%TA.AperFunction,SMDPad,CuDef*%
G36*
G01*
X235425000Y-49868750D02*
X234475000Y-49868750D01*
G75*
G02*
X234225000Y-49618750I0J250000D01*
G01*
X234225000Y-49118750D01*
G75*
G02*
X234475000Y-48868750I250000J0D01*
G01*
X235425000Y-48868750D01*
G75*
G02*
X235675000Y-49118750I0J-250000D01*
G01*
X235675000Y-49618750D01*
G75*
G02*
X235425000Y-49868750I-250000J0D01*
G01*
G37*
%TD.AperFunction*%
%TD*%
%TO.P,D8,2*%
%TO.N,Net-(D8-Pad2)*%
%TA.AperFunction,SMDPad,CuDef*%
G36*
G01*
X216375000Y-47968750D02*
X215425000Y-47968750D01*
G75*
G02*
X215175000Y-47718750I0J250000D01*
G01*
X215175000Y-47218750D01*
G75*
G02*
X215425000Y-46968750I250000J0D01*
G01*
X216375000Y-46968750D01*
G75*
G02*
X216625000Y-47218750I0J-250000D01*
G01*
X216625000Y-47718750D01*
G75*
G02*
X216375000Y-47968750I-250000J0D01*
G01*
G37*
%TD.AperFunction*%
%TO.P,D8,1*%
%TO.N,ROW0*%
%TA.AperFunction,SMDPad,CuDef*%
G36*
G01*
X216375000Y-49868750D02*
X215425000Y-49868750D01*
G75*
G02*
X215175000Y-49618750I0J250000D01*
G01*
X215175000Y-49118750D01*
G75*
G02*
X215425000Y-48868750I250000J0D01*
G01*
X216375000Y-48868750D01*
G75*
G02*
X216625000Y-49118750I0J-250000D01*
G01*
X216625000Y-49618750D01*
G75*
G02*
X216375000Y-49868750I-250000J0D01*
G01*
G37*
%TD.AperFunction*%
%TD*%
%TO.P,D7,2*%
%TO.N,Net-(D7-Pad2)*%
%TA.AperFunction,SMDPad,CuDef*%
G36*
G01*
X197325000Y-47968750D02*
X196375000Y-47968750D01*
G75*
G02*
X196125000Y-47718750I0J250000D01*
G01*
X196125000Y-47218750D01*
G75*
G02*
X196375000Y-46968750I250000J0D01*
G01*
X197325000Y-46968750D01*
G75*
G02*
X197575000Y-47218750I0J-250000D01*
G01*
X197575000Y-47718750D01*
G75*
G02*
X197325000Y-47968750I-250000J0D01*
G01*
G37*
%TD.AperFunction*%
%TO.P,D7,1*%
%TO.N,ROW0*%
%TA.AperFunction,SMDPad,CuDef*%
G36*
G01*
X197325000Y-49868750D02*
X196375000Y-49868750D01*
G75*
G02*
X196125000Y-49618750I0J250000D01*
G01*
X196125000Y-49118750D01*
G75*
G02*
X196375000Y-48868750I250000J0D01*
G01*
X197325000Y-48868750D01*
G75*
G02*
X197575000Y-49118750I0J-250000D01*
G01*
X197575000Y-49618750D01*
G75*
G02*
X197325000Y-49868750I-250000J0D01*
G01*
G37*
%TD.AperFunction*%
%TD*%
%TO.P,D6,2*%
%TO.N,Net-(D6-Pad2)*%
%TA.AperFunction,SMDPad,CuDef*%
G36*
G01*
X178275000Y-47968750D02*
X177325000Y-47968750D01*
G75*
G02*
X177075000Y-47718750I0J250000D01*
G01*
X177075000Y-47218750D01*
G75*
G02*
X177325000Y-46968750I250000J0D01*
G01*
X178275000Y-46968750D01*
G75*
G02*
X178525000Y-47218750I0J-250000D01*
G01*
X178525000Y-47718750D01*
G75*
G02*
X178275000Y-47968750I-250000J0D01*
G01*
G37*
%TD.AperFunction*%
%TO.P,D6,1*%
%TO.N,ROW0*%
%TA.AperFunction,SMDPad,CuDef*%
G36*
G01*
X178275000Y-49868750D02*
X177325000Y-49868750D01*
G75*
G02*
X177075000Y-49618750I0J250000D01*
G01*
X177075000Y-49118750D01*
G75*
G02*
X177325000Y-48868750I250000J0D01*
G01*
X178275000Y-48868750D01*
G75*
G02*
X178525000Y-49118750I0J-250000D01*
G01*
X178525000Y-49618750D01*
G75*
G02*
X178275000Y-49868750I-250000J0D01*
G01*
G37*
%TD.AperFunction*%
%TD*%
%TO.P,D5,2*%
%TO.N,Net-(D5-Pad2)*%
%TA.AperFunction,SMDPad,CuDef*%
G36*
G01*
X159225000Y-47968750D02*
X158275000Y-47968750D01*
G75*
G02*
X158025000Y-47718750I0J250000D01*
G01*
X158025000Y-47218750D01*
G75*
G02*
X158275000Y-46968750I250000J0D01*
G01*
X159225000Y-46968750D01*
G75*
G02*
X159475000Y-47218750I0J-250000D01*
G01*
X159475000Y-47718750D01*
G75*
G02*
X159225000Y-47968750I-250000J0D01*
G01*
G37*
%TD.AperFunction*%
%TO.P,D5,1*%
%TO.N,ROW0*%
%TA.AperFunction,SMDPad,CuDef*%
G36*
G01*
X159225000Y-49868750D02*
X158275000Y-49868750D01*
G75*
G02*
X158025000Y-49618750I0J250000D01*
G01*
X158025000Y-49118750D01*
G75*
G02*
X158275000Y-48868750I250000J0D01*
G01*
X159225000Y-48868750D01*
G75*
G02*
X159475000Y-49118750I0J-250000D01*
G01*
X159475000Y-49618750D01*
G75*
G02*
X159225000Y-49868750I-250000J0D01*
G01*
G37*
%TD.AperFunction*%
%TD*%
%TO.P,D4,2*%
%TO.N,Net-(D4-Pad2)*%
%TA.AperFunction,SMDPad,CuDef*%
G36*
G01*
X140175000Y-47968750D02*
X139225000Y-47968750D01*
G75*
G02*
X138975000Y-47718750I0J250000D01*
G01*
X138975000Y-47218750D01*
G75*
G02*
X139225000Y-46968750I250000J0D01*
G01*
X140175000Y-46968750D01*
G75*
G02*
X140425000Y-47218750I0J-250000D01*
G01*
X140425000Y-47718750D01*
G75*
G02*
X140175000Y-47968750I-250000J0D01*
G01*
G37*
%TD.AperFunction*%
%TO.P,D4,1*%
%TO.N,ROW0*%
%TA.AperFunction,SMDPad,CuDef*%
G36*
G01*
X140175000Y-49868750D02*
X139225000Y-49868750D01*
G75*
G02*
X138975000Y-49618750I0J250000D01*
G01*
X138975000Y-49118750D01*
G75*
G02*
X139225000Y-48868750I250000J0D01*
G01*
X140175000Y-48868750D01*
G75*
G02*
X140425000Y-49118750I0J-250000D01*
G01*
X140425000Y-49618750D01*
G75*
G02*
X140175000Y-49868750I-250000J0D01*
G01*
G37*
%TD.AperFunction*%
%TD*%
%TO.P,D3,2*%
%TO.N,Net-(D3-Pad2)*%
%TA.AperFunction,SMDPad,CuDef*%
G36*
G01*
X121125000Y-47968750D02*
X120175000Y-47968750D01*
G75*
G02*
X119925000Y-47718750I0J250000D01*
G01*
X119925000Y-47218750D01*
G75*
G02*
X120175000Y-46968750I250000J0D01*
G01*
X121125000Y-46968750D01*
G75*
G02*
X121375000Y-47218750I0J-250000D01*
G01*
X121375000Y-47718750D01*
G75*
G02*
X121125000Y-47968750I-250000J0D01*
G01*
G37*
%TD.AperFunction*%
%TO.P,D3,1*%
%TO.N,ROW0*%
%TA.AperFunction,SMDPad,CuDef*%
G36*
G01*
X121125000Y-49868750D02*
X120175000Y-49868750D01*
G75*
G02*
X119925000Y-49618750I0J250000D01*
G01*
X119925000Y-49118750D01*
G75*
G02*
X120175000Y-48868750I250000J0D01*
G01*
X121125000Y-48868750D01*
G75*
G02*
X121375000Y-49118750I0J-250000D01*
G01*
X121375000Y-49618750D01*
G75*
G02*
X121125000Y-49868750I-250000J0D01*
G01*
G37*
%TD.AperFunction*%
%TD*%
%TO.P,D2,2*%
%TO.N,Net-(D2-Pad2)*%
%TA.AperFunction,SMDPad,CuDef*%
G36*
G01*
X102075000Y-47968750D02*
X101125000Y-47968750D01*
G75*
G02*
X100875000Y-47718750I0J250000D01*
G01*
X100875000Y-47218750D01*
G75*
G02*
X101125000Y-46968750I250000J0D01*
G01*
X102075000Y-46968750D01*
G75*
G02*
X102325000Y-47218750I0J-250000D01*
G01*
X102325000Y-47718750D01*
G75*
G02*
X102075000Y-47968750I-250000J0D01*
G01*
G37*
%TD.AperFunction*%
%TO.P,D2,1*%
%TO.N,ROW0*%
%TA.AperFunction,SMDPad,CuDef*%
G36*
G01*
X102075000Y-49868750D02*
X101125000Y-49868750D01*
G75*
G02*
X100875000Y-49618750I0J250000D01*
G01*
X100875000Y-49118750D01*
G75*
G02*
X101125000Y-48868750I250000J0D01*
G01*
X102075000Y-48868750D01*
G75*
G02*
X102325000Y-49118750I0J-250000D01*
G01*
X102325000Y-49618750D01*
G75*
G02*
X102075000Y-49868750I-250000J0D01*
G01*
G37*
%TD.AperFunction*%
%TD*%
%TO.P,D1,2*%
%TO.N,Net-(D1-Pad2)*%
%TA.AperFunction,SMDPad,CuDef*%
G36*
G01*
X83025000Y-47968750D02*
X82075000Y-47968750D01*
G75*
G02*
X81825000Y-47718750I0J250000D01*
G01*
X81825000Y-47218750D01*
G75*
G02*
X82075000Y-46968750I250000J0D01*
G01*
X83025000Y-46968750D01*
G75*
G02*
X83275000Y-47218750I0J-250000D01*
G01*
X83275000Y-47718750D01*
G75*
G02*
X83025000Y-47968750I-250000J0D01*
G01*
G37*
%TD.AperFunction*%
%TO.P,D1,1*%
%TO.N,ROW0*%
%TA.AperFunction,SMDPad,CuDef*%
G36*
G01*
X83025000Y-49868750D02*
X82075000Y-49868750D01*
G75*
G02*
X81825000Y-49618750I0J250000D01*
G01*
X81825000Y-49118750D01*
G75*
G02*
X82075000Y-48868750I250000J0D01*
G01*
X83025000Y-48868750D01*
G75*
G02*
X83275000Y-49118750I0J-250000D01*
G01*
X83275000Y-49618750D01*
G75*
G02*
X83025000Y-49868750I-250000J0D01*
G01*
G37*
%TD.AperFunction*%
%TD*%
D19*
%TO.N,ROW0*%
X80645000Y-50958750D03*
%TO.N,ROW1*%
X84455000Y-48418750D03*
X89535000Y-49688750D03*
X99695000Y-59848750D03*
%TO.N,ROW3*%
X100965000Y-105568750D03*
%TO.N,COL2*%
X99695000Y-80168750D03*
%TO.N,COL7*%
X82479706Y-53957427D03*
X96837500Y-53975000D03*
X102393750Y-57943750D03*
X207168750Y-57943750D03*
%TO.N,COL8*%
X84137500Y-53181250D03*
X101600000Y-56356250D03*
X98425000Y-53181250D03*
X223837500Y-56356250D03*
%TO.N,COL9*%
X87312500Y-52387500D03*
X234156250Y-52387500D03*
%TO.N,COL10*%
X88900000Y-54768750D03*
X259556250Y-54768750D03*
%TO.N,COL11*%
X284868750Y-57150000D03*
X95250000Y-57150000D03*
%TO.N,COL12*%
X304165000Y-59848750D03*
%TO.N,COL13*%
X76835000Y-92868750D03*
X310515000Y-92868750D03*
%TO.N,Net-(R1-Pad2)*%
X73818750Y-93662500D03*
X115093750Y-94456250D03*
%TO.N,GND*%
X81756250Y-42862500D03*
%TO.N,ROW4*%
X90805000Y-120808750D03*
%TD*%
D20*
%TO.N,Net-(D1-Pad2)*%
X79000000Y-43918750D02*
X82550000Y-47468750D01*
X77112500Y-43918750D02*
X79000000Y-43918750D01*
%TO.N,ROW0*%
X100229099Y-50739651D02*
X101600000Y-49368750D01*
X82550000Y-49368750D02*
X83920901Y-50739651D01*
X83920901Y-50739651D02*
X100229099Y-50739651D01*
X138329099Y-50739651D02*
X139700000Y-49368750D01*
X120650000Y-49368750D02*
X122020901Y-50739651D01*
X122020901Y-50739651D02*
X138329099Y-50739651D01*
X157379099Y-50739651D02*
X158750000Y-49368750D01*
X139700000Y-49368750D02*
X141070901Y-50739651D01*
X141070901Y-50739651D02*
X157379099Y-50739651D01*
X176429099Y-50739651D02*
X177800000Y-49368750D01*
X160120901Y-50739651D02*
X176429099Y-50739651D01*
X158750000Y-49368750D02*
X160120901Y-50739651D01*
X195479099Y-50739651D02*
X196850000Y-49368750D01*
X179170901Y-50739651D02*
X195479099Y-50739651D01*
X177800000Y-49368750D02*
X179170901Y-50739651D01*
X214529099Y-50739651D02*
X215900000Y-49368750D01*
X196850000Y-49368750D02*
X198220901Y-50739651D01*
X198220901Y-50739651D02*
X214529099Y-50739651D01*
X233579099Y-50739651D02*
X234950000Y-49368750D01*
X215900000Y-49368750D02*
X217270901Y-50739651D01*
X217270901Y-50739651D02*
X233579099Y-50739651D01*
X252629099Y-50739651D02*
X254000000Y-49368750D01*
X234950000Y-49368750D02*
X236320901Y-50739651D01*
X236320901Y-50739651D02*
X252629099Y-50739651D01*
X271679099Y-50739651D02*
X273050000Y-49368750D01*
X254000000Y-49368750D02*
X255370901Y-50739651D01*
X255370901Y-50739651D02*
X271679099Y-50739651D01*
X290729099Y-50739651D02*
X292100000Y-49368750D01*
X273050000Y-49368750D02*
X274420901Y-50739651D01*
X274420901Y-50739651D02*
X290729099Y-50739651D01*
X309779099Y-50739651D02*
X311150000Y-49368750D01*
X293470901Y-50739651D02*
X309779099Y-50739651D01*
X292100000Y-49368750D02*
X293470901Y-50739651D01*
X347085349Y-50739651D02*
X348456250Y-49368750D01*
X311150000Y-49368750D02*
X312520901Y-50739651D01*
X312520901Y-50739651D02*
X347085349Y-50739651D01*
X75565000Y-58578750D02*
X75565000Y-56800750D01*
X80645000Y-50958750D02*
X81915000Y-49688750D01*
X119279099Y-50739651D02*
X120650000Y-49368750D01*
X111598467Y-50739651D02*
X119279099Y-50739651D01*
X110726395Y-49867579D02*
X111598467Y-50739651D01*
X102098829Y-49867579D02*
X110726395Y-49867579D01*
X101600000Y-49368750D02*
X102098829Y-49867579D01*
%TO.N,Net-(D2-Pad2)*%
X98050000Y-43918750D02*
X101600000Y-47468750D01*
X96162500Y-43918750D02*
X98050000Y-43918750D01*
%TO.N,Net-(D3-Pad2)*%
X117100000Y-43918750D02*
X120650000Y-47468750D01*
X115212500Y-43918750D02*
X117100000Y-43918750D01*
%TO.N,Net-(D4-Pad2)*%
X136150000Y-43918750D02*
X139700000Y-47468750D01*
X134262500Y-43918750D02*
X136150000Y-43918750D01*
%TO.N,Net-(D5-Pad2)*%
X155200000Y-43918750D02*
X158750000Y-47468750D01*
X153312500Y-43918750D02*
X155200000Y-43918750D01*
%TO.N,Net-(D6-Pad2)*%
X174250000Y-43918750D02*
X177800000Y-47468750D01*
X172362500Y-43918750D02*
X174250000Y-43918750D01*
%TO.N,Net-(D7-Pad2)*%
X193300000Y-43918750D02*
X196850000Y-47468750D01*
X191412500Y-43918750D02*
X193300000Y-43918750D01*
%TO.N,Net-(D8-Pad2)*%
X212350000Y-43918750D02*
X215900000Y-47468750D01*
X210462500Y-43918750D02*
X212350000Y-43918750D01*
%TO.N,Net-(D9-Pad2)*%
X231400000Y-43918750D02*
X234950000Y-47468750D01*
X229512500Y-43918750D02*
X231400000Y-43918750D01*
%TO.N,Net-(D10-Pad2)*%
X250450000Y-43918750D02*
X254000000Y-47468750D01*
X248562500Y-43918750D02*
X250450000Y-43918750D01*
%TO.N,Net-(D11-Pad2)*%
X269500000Y-43918750D02*
X273050000Y-47468750D01*
X267612500Y-43918750D02*
X269500000Y-43918750D01*
%TO.N,Net-(D12-Pad2)*%
X288550000Y-43918750D02*
X292100000Y-47468750D01*
X286662500Y-43918750D02*
X288550000Y-43918750D01*
%TO.N,Net-(D13-Pad2)*%
X307600000Y-43918750D02*
X311150000Y-47468750D01*
X305712500Y-43918750D02*
X307600000Y-43918750D01*
%TO.N,Net-(D14-Pad2)*%
X344906250Y-43918750D02*
X348456250Y-47468750D01*
X334287500Y-43918750D02*
X344906250Y-43918750D01*
%TO.N,Net-(D15-Pad2)*%
X83762500Y-62968750D02*
X87312500Y-66518750D01*
X81875000Y-62968750D02*
X83762500Y-62968750D01*
%TO.N,ROW1*%
X322045901Y-69789651D02*
X320675000Y-68418750D01*
X346291599Y-69789651D02*
X322045901Y-69789651D01*
X348456250Y-67625000D02*
X346291599Y-69789651D01*
X302995901Y-69789651D02*
X301625000Y-68418750D01*
X319304099Y-69789651D02*
X302995901Y-69789651D01*
X320675000Y-68418750D02*
X319304099Y-69789651D01*
X283945901Y-69789651D02*
X282575000Y-68418750D01*
X300254099Y-69789651D02*
X283945901Y-69789651D01*
X301625000Y-68418750D02*
X300254099Y-69789651D01*
X281204099Y-69789651D02*
X264895901Y-69789651D01*
X264895901Y-69789651D02*
X263525000Y-68418750D01*
X282575000Y-68418750D02*
X281204099Y-69789651D01*
X245845901Y-69789651D02*
X244475000Y-68418750D01*
X262154099Y-69789651D02*
X245845901Y-69789651D01*
X263525000Y-68418750D02*
X262154099Y-69789651D01*
X226795901Y-69789651D02*
X225425000Y-68418750D01*
X243104099Y-69789651D02*
X226795901Y-69789651D01*
X244475000Y-68418750D02*
X243104099Y-69789651D01*
X207745901Y-69789651D02*
X206375000Y-68418750D01*
X224054099Y-69789651D02*
X207745901Y-69789651D01*
X225425000Y-68418750D02*
X224054099Y-69789651D01*
X188695901Y-69789651D02*
X187325000Y-68418750D01*
X205004099Y-69789651D02*
X188695901Y-69789651D01*
X206375000Y-68418750D02*
X205004099Y-69789651D01*
X169645901Y-69789651D02*
X168275000Y-68418750D01*
X185954099Y-69789651D02*
X169645901Y-69789651D01*
X187325000Y-68418750D02*
X185954099Y-69789651D01*
X150595901Y-69789651D02*
X149225000Y-68418750D01*
X166904099Y-69789651D02*
X150595901Y-69789651D01*
X168275000Y-68418750D02*
X166904099Y-69789651D01*
X131545901Y-69789651D02*
X130175000Y-68418750D01*
X147854099Y-69789651D02*
X131545901Y-69789651D01*
X149225000Y-68418750D02*
X147854099Y-69789651D01*
X112495901Y-69789651D02*
X111125000Y-68418750D01*
X128804099Y-69789651D02*
X112495901Y-69789651D01*
X130175000Y-68418750D02*
X128804099Y-69789651D01*
X91499501Y-72605751D02*
X87312500Y-68418750D01*
X97136601Y-72605751D02*
X91499501Y-72605751D01*
X99725203Y-70017149D02*
X97136601Y-72605751D01*
X109526601Y-70017149D02*
X99725203Y-70017149D01*
X111125000Y-68418750D02*
X109526601Y-70017149D01*
X78105000Y-58578750D02*
X78105000Y-56800750D01*
X84455000Y-48418750D02*
X85657001Y-49620751D01*
X89467001Y-49620751D02*
X89535000Y-49688750D01*
X85657001Y-49620751D02*
X89467001Y-49620751D01*
X107065499Y-67219249D02*
X107065499Y-68045711D01*
X107065499Y-68045711D02*
X107758538Y-68738750D01*
X99695000Y-59848750D02*
X107065499Y-67219249D01*
X107758538Y-68738750D02*
X111125000Y-68738750D01*
%TO.N,Net-(D16-Pad2)*%
X107575000Y-62968750D02*
X111125000Y-66518750D01*
X105687500Y-62968750D02*
X107575000Y-62968750D01*
%TO.N,Net-(D17-Pad2)*%
X126625000Y-62968750D02*
X130175000Y-66518750D01*
X124737500Y-62968750D02*
X126625000Y-62968750D01*
%TO.N,Net-(D18-Pad2)*%
X145675000Y-62968750D02*
X149225000Y-66518750D01*
X143787500Y-62968750D02*
X145675000Y-62968750D01*
%TO.N,Net-(D19-Pad2)*%
X164725000Y-62968750D02*
X168275000Y-66518750D01*
X162837500Y-62968750D02*
X164725000Y-62968750D01*
%TO.N,Net-(D20-Pad2)*%
X183775000Y-62968750D02*
X187325000Y-66518750D01*
X181887500Y-62968750D02*
X183775000Y-62968750D01*
%TO.N,Net-(D21-Pad2)*%
X202825000Y-62968750D02*
X206375000Y-66518750D01*
X200937500Y-62968750D02*
X202825000Y-62968750D01*
%TO.N,Net-(D22-Pad2)*%
X221875000Y-62968750D02*
X225425000Y-66518750D01*
X219987500Y-62968750D02*
X221875000Y-62968750D01*
%TO.N,Net-(D23-Pad2)*%
X240925000Y-62968750D02*
X244475000Y-66518750D01*
X239037500Y-62968750D02*
X240925000Y-62968750D01*
%TO.N,Net-(D24-Pad2)*%
X259975000Y-62968750D02*
X263525000Y-66518750D01*
X258087500Y-62968750D02*
X259975000Y-62968750D01*
%TO.N,Net-(D25-Pad2)*%
X279025000Y-62968750D02*
X282575000Y-66518750D01*
X277137500Y-62968750D02*
X279025000Y-62968750D01*
%TO.N,Net-(D26-Pad2)*%
X298075000Y-62968750D02*
X301625000Y-66518750D01*
X296187500Y-62968750D02*
X298075000Y-62968750D01*
%TO.N,Net-(D27-Pad2)*%
X317125000Y-62968750D02*
X320675000Y-66518750D01*
X315237500Y-62968750D02*
X317125000Y-62968750D01*
%TO.N,Net-(D28-Pad2)*%
X345700000Y-62968750D02*
X348456250Y-65725000D01*
X339050000Y-62968750D02*
X345700000Y-62968750D01*
%TO.N,Net-(D29-Pad2)*%
X86143750Y-82018750D02*
X89693750Y-85568750D01*
X84256250Y-82018750D02*
X86143750Y-82018750D01*
%TO.N,ROW2*%
X114516599Y-88839651D02*
X115887500Y-87468750D01*
X91064651Y-88839651D02*
X114516599Y-88839651D01*
X89693750Y-87468750D02*
X91064651Y-88839651D01*
X133566599Y-88839651D02*
X134937500Y-87468750D01*
X117258401Y-88839651D02*
X133566599Y-88839651D01*
X115887500Y-87468750D02*
X117258401Y-88839651D01*
X152616599Y-88839651D02*
X153987500Y-87468750D01*
X136308401Y-88839651D02*
X152616599Y-88839651D01*
X134937500Y-87468750D02*
X136308401Y-88839651D01*
X171666599Y-88839651D02*
X173037500Y-87468750D01*
X155358401Y-88839651D02*
X171666599Y-88839651D01*
X153987500Y-87468750D02*
X155358401Y-88839651D01*
X190716599Y-88839651D02*
X192087500Y-87468750D01*
X174408401Y-88839651D02*
X190716599Y-88839651D01*
X173037500Y-87468750D02*
X174408401Y-88839651D01*
X209766599Y-88839651D02*
X211137500Y-87468750D01*
X193458401Y-88839651D02*
X209766599Y-88839651D01*
X192087500Y-87468750D02*
X193458401Y-88839651D01*
X228816599Y-88839651D02*
X230187500Y-87468750D01*
X212508401Y-88839651D02*
X228816599Y-88839651D01*
X211137500Y-87468750D02*
X212508401Y-88839651D01*
X247866599Y-88839651D02*
X249237500Y-87468750D01*
X231558401Y-88839651D02*
X247866599Y-88839651D01*
X230187500Y-87468750D02*
X231558401Y-88839651D01*
X266916599Y-88839651D02*
X268287500Y-87468750D01*
X250608401Y-88839651D02*
X266916599Y-88839651D01*
X249237500Y-87468750D02*
X250608401Y-88839651D01*
X285966599Y-88839651D02*
X287337500Y-87468750D01*
X269658401Y-88839651D02*
X285966599Y-88839651D01*
X268287500Y-87468750D02*
X269658401Y-88839651D01*
X305016599Y-88839651D02*
X306387500Y-87468750D01*
X288708401Y-88839651D02*
X305016599Y-88839651D01*
X287337500Y-87468750D02*
X288708401Y-88839651D01*
X346291599Y-88839651D02*
X347662500Y-87468750D01*
X307758401Y-88839651D02*
X346291599Y-88839651D01*
X306387500Y-87468750D02*
X307758401Y-88839651D01*
X78105000Y-73818750D02*
X78105000Y-75596750D01*
X84455000Y-85916462D02*
X86327288Y-87788750D01*
X84455000Y-84324606D02*
X84455000Y-85916462D01*
X78105000Y-77974606D02*
X84455000Y-84324606D01*
X78105000Y-73818750D02*
X78105000Y-77974606D01*
X86327288Y-87788750D02*
X89535000Y-87788750D01*
%TO.N,Net-(D30-Pad2)*%
X112337500Y-82018750D02*
X115887500Y-85568750D01*
X110450000Y-82018750D02*
X112337500Y-82018750D01*
%TO.N,Net-(D31-Pad2)*%
X131387500Y-82018750D02*
X134937500Y-85568750D01*
X129500000Y-82018750D02*
X131387500Y-82018750D01*
%TO.N,Net-(D32-Pad2)*%
X150437500Y-82018750D02*
X153987500Y-85568750D01*
X148550000Y-82018750D02*
X150437500Y-82018750D01*
%TO.N,Net-(D33-Pad2)*%
X169487500Y-82018750D02*
X173037500Y-85568750D01*
X167600000Y-82018750D02*
X169487500Y-82018750D01*
%TO.N,Net-(D34-Pad2)*%
X188537500Y-82018750D02*
X192087500Y-85568750D01*
X186650000Y-82018750D02*
X188537500Y-82018750D01*
%TO.N,Net-(D35-Pad2)*%
X207587500Y-82018750D02*
X211137500Y-85568750D01*
X205700000Y-82018750D02*
X207587500Y-82018750D01*
%TO.N,Net-(D36-Pad2)*%
X226637500Y-82018750D02*
X230187500Y-85568750D01*
X224750000Y-82018750D02*
X226637500Y-82018750D01*
%TO.N,Net-(D37-Pad2)*%
X245687500Y-82018750D02*
X249237500Y-85568750D01*
X243800000Y-82018750D02*
X245687500Y-82018750D01*
%TO.N,Net-(D38-Pad2)*%
X264737500Y-82018750D02*
X268287500Y-85568750D01*
X262850000Y-82018750D02*
X264737500Y-82018750D01*
%TO.N,Net-(D39-Pad2)*%
X283787500Y-82018750D02*
X287337500Y-85568750D01*
X281900000Y-82018750D02*
X283787500Y-82018750D01*
%TO.N,Net-(D40-Pad2)*%
X302837500Y-82018750D02*
X306387500Y-85568750D01*
X300950000Y-82018750D02*
X302837500Y-82018750D01*
%TO.N,Net-(D41-Pad2)*%
X344112500Y-82018750D02*
X347662500Y-85568750D01*
X331906250Y-82018750D02*
X344112500Y-82018750D01*
%TO.N,Net-(D42-Pad2)*%
X100431250Y-101068750D02*
X103981250Y-104618750D01*
X89018750Y-101068750D02*
X100431250Y-101068750D01*
%TO.N,ROW3*%
X298233401Y-107889651D02*
X296862500Y-106518750D01*
X339941599Y-107889651D02*
X298233401Y-107889651D01*
X341312500Y-106518750D02*
X339941599Y-107889651D01*
X279183401Y-107889651D02*
X277812500Y-106518750D01*
X295491599Y-107889651D02*
X279183401Y-107889651D01*
X296862500Y-106518750D02*
X295491599Y-107889651D01*
X260133401Y-107889651D02*
X258762500Y-106518750D01*
X276441599Y-107889651D02*
X260133401Y-107889651D01*
X277812500Y-106518750D02*
X276441599Y-107889651D01*
X241083401Y-107889651D02*
X239712500Y-106518750D01*
X257391599Y-107889651D02*
X241083401Y-107889651D01*
X258762500Y-106518750D02*
X257391599Y-107889651D01*
X222033401Y-107889651D02*
X220662500Y-106518750D01*
X238341599Y-107889651D02*
X222033401Y-107889651D01*
X239712500Y-106518750D02*
X238341599Y-107889651D01*
X202983401Y-107889651D02*
X201612500Y-106518750D01*
X219291599Y-107889651D02*
X202983401Y-107889651D01*
X220662500Y-106518750D02*
X219291599Y-107889651D01*
X184089651Y-107889651D02*
X182562500Y-106362500D01*
X200241599Y-107889651D02*
X184089651Y-107889651D01*
X201612500Y-106518750D02*
X200241599Y-107889651D01*
X164883401Y-107889651D02*
X163512500Y-106518750D01*
X181035349Y-107889651D02*
X164883401Y-107889651D01*
X182562500Y-106362500D02*
X181035349Y-107889651D01*
X145833401Y-107889651D02*
X144462500Y-106518750D01*
X162141599Y-107889651D02*
X145833401Y-107889651D01*
X163512500Y-106518750D02*
X162141599Y-107889651D01*
X126783401Y-107889651D02*
X125412500Y-106518750D01*
X143091599Y-107889651D02*
X126783401Y-107889651D01*
X144462500Y-106518750D02*
X143091599Y-107889651D01*
X105352151Y-107889651D02*
X103981250Y-106518750D01*
X124041599Y-107889651D02*
X105352151Y-107889651D01*
X125412500Y-106518750D02*
X124041599Y-107889651D01*
X93345000Y-71278750D02*
X95250000Y-71278750D01*
X100965000Y-105568750D02*
X102235000Y-105568750D01*
X102235000Y-105568750D02*
X103505000Y-106838750D01*
%TO.N,Net-(D43-Pad2)*%
X121862500Y-101068750D02*
X125412500Y-104618750D01*
X119975000Y-101068750D02*
X121862500Y-101068750D01*
%TO.N,Net-(D44-Pad2)*%
X140912500Y-101068750D02*
X144462500Y-104618750D01*
X139025000Y-101068750D02*
X140912500Y-101068750D01*
%TO.N,Net-(D45-Pad2)*%
X159962500Y-101068750D02*
X163512500Y-104618750D01*
X158075000Y-101068750D02*
X159962500Y-101068750D01*
%TO.N,Net-(D46-Pad2)*%
X179168750Y-101068750D02*
X182562500Y-104462500D01*
X177125000Y-101068750D02*
X179168750Y-101068750D01*
%TO.N,Net-(D47-Pad2)*%
X198062500Y-101068750D02*
X201612500Y-104618750D01*
X196175000Y-101068750D02*
X198062500Y-101068750D01*
%TO.N,Net-(D48-Pad2)*%
X217112500Y-101068750D02*
X220662500Y-104618750D01*
X215225000Y-101068750D02*
X217112500Y-101068750D01*
%TO.N,Net-(D49-Pad2)*%
X236162500Y-101068750D02*
X239712500Y-104618750D01*
X234275000Y-101068750D02*
X236162500Y-101068750D01*
%TO.N,Net-(D50-Pad2)*%
X255212500Y-101068750D02*
X258762500Y-104618750D01*
X253325000Y-101068750D02*
X255212500Y-101068750D01*
%TO.N,Net-(D51-Pad2)*%
X274262500Y-101068750D02*
X277812500Y-104618750D01*
X272375000Y-101068750D02*
X274262500Y-101068750D01*
%TO.N,Net-(D52-Pad2)*%
X293312500Y-101068750D02*
X296862500Y-104618750D01*
X291425000Y-101068750D02*
X293312500Y-101068750D01*
%TO.N,Net-(D53-Pad2)*%
X337762500Y-101068750D02*
X341312500Y-104618750D01*
X327143750Y-101068750D02*
X337762500Y-101068750D01*
%TO.N,Net-(D54-Pad2)*%
X81381250Y-120118750D02*
X84931250Y-123668750D01*
X79493750Y-120118750D02*
X81381250Y-120118750D01*
%TO.N,Net-(D55-Pad2)*%
X105193750Y-120118750D02*
X108743750Y-123668750D01*
X103306250Y-120118750D02*
X105193750Y-120118750D01*
%TO.N,Net-(D56-Pad2)*%
X129006250Y-120118750D02*
X132556250Y-123668750D01*
X127118750Y-120118750D02*
X129006250Y-120118750D01*
%TO.N,Net-(D57-Pad2)*%
X200443750Y-120118750D02*
X203993750Y-123668750D01*
X198556250Y-120118750D02*
X200443750Y-120118750D01*
%TO.N,Net-(D58-Pad2)*%
X271881250Y-120118750D02*
X275431250Y-123668750D01*
X269993750Y-120118750D02*
X271881250Y-120118750D01*
%TO.N,Net-(D59-Pad2)*%
X295693750Y-120118750D02*
X299243750Y-123668750D01*
X293806250Y-120118750D02*
X295693750Y-120118750D01*
%TO.N,Net-(D60-Pad2)*%
X319506250Y-120118750D02*
X323056250Y-123668750D01*
X317618750Y-120118750D02*
X319506250Y-120118750D01*
%TO.N,Net-(D61-Pad2)*%
X343318750Y-120118750D02*
X346868750Y-123668750D01*
X341431250Y-120118750D02*
X343318750Y-120118750D01*
%TO.N,COL0*%
X65405000Y-73818750D02*
X65405000Y-75596750D01*
%TO.N,COL1*%
X80645000Y-73818750D02*
X80645000Y-75596750D01*
%TO.N,COL2*%
X83185000Y-73818750D02*
X83185000Y-75596750D01*
X100094999Y-79768751D02*
X118345001Y-79768751D01*
X99695000Y-80168750D02*
X100094999Y-79768751D01*
X118345001Y-79768751D02*
X122555000Y-83978750D01*
%TO.N,COL3*%
X85725000Y-73818750D02*
X85725000Y-75596750D01*
X88769389Y-79314741D02*
X138210991Y-79314741D01*
X85725000Y-76270352D02*
X88769389Y-79314741D01*
X85725000Y-73818750D02*
X85725000Y-76270352D01*
X138210991Y-79314741D02*
X142875000Y-83978750D01*
%TO.N,COL4*%
X88265000Y-73818750D02*
X88265000Y-75596750D01*
X90855379Y-78860731D02*
X155536981Y-78860731D01*
X88265000Y-76270352D02*
X90855379Y-78860731D01*
X88265000Y-73818750D02*
X88265000Y-76270352D01*
X155536981Y-78860731D02*
X160655000Y-83978750D01*
%TO.N,COL5*%
X90805000Y-73818750D02*
X90805000Y-75596750D01*
X92941369Y-78406721D02*
X174132971Y-78406721D01*
X90805000Y-76270352D02*
X92941369Y-78406721D01*
X90805000Y-73818750D02*
X90805000Y-76270352D01*
X174132971Y-78406721D02*
X179705000Y-83978750D01*
%TO.N,COL6*%
X93345000Y-73818750D02*
X93345000Y-75596750D01*
X93345000Y-73818750D02*
X188595000Y-73818750D01*
X188595000Y-73818750D02*
X198755000Y-83978750D01*
%TO.N,COL7*%
X80645000Y-56800750D02*
X80645000Y-58578750D01*
X80645000Y-58578750D02*
X80645000Y-56127148D01*
X96819927Y-53957427D02*
X96837500Y-53975000D01*
X82479706Y-53957427D02*
X96819927Y-53957427D01*
X102393750Y-57943750D02*
X207168750Y-57943750D01*
%TO.N,COL8*%
X83185000Y-58578750D02*
X83185000Y-56800750D01*
X83185000Y-58578750D02*
X83185000Y-56038750D01*
X83185000Y-58578750D02*
X83185000Y-56127148D01*
X84137500Y-53181250D02*
X98425000Y-53181250D01*
X101600000Y-56356250D02*
X223837500Y-56356250D01*
%TO.N,COL9*%
X85725000Y-58578750D02*
X85725000Y-56038750D01*
X85725000Y-58578750D02*
X85725000Y-56127148D01*
X85725000Y-58578750D02*
X85725000Y-56800750D01*
X87312500Y-52387500D02*
X234156250Y-52387500D01*
%TO.N,COL10*%
X259429249Y-54895751D02*
X259556250Y-54768750D01*
X103363399Y-54895751D02*
X259429249Y-54895751D01*
X103236398Y-54768750D02*
X103363399Y-54895751D01*
X88900000Y-54768750D02*
X103236398Y-54768750D01*
X88265000Y-58578750D02*
X88265000Y-56800750D01*
%TO.N,COL11*%
X90805000Y-58578750D02*
X90805000Y-56800750D01*
X96837500Y-57150000D02*
X284868750Y-57150000D01*
X95250000Y-57150000D02*
X96837500Y-57150000D01*
%TO.N,COL12*%
X93345000Y-58807350D02*
X93345000Y-56800750D01*
X93345000Y-58807350D02*
X303123600Y-58807350D01*
X303123600Y-58807350D02*
X304165000Y-59848750D01*
%TO.N,COL13*%
X75565000Y-73818750D02*
X75565000Y-75596750D01*
X76835000Y-92868750D02*
X310515000Y-92868750D01*
D21*
%TO.N,Net-(R1-Pad2)*%
X73025000Y-80050000D02*
X73937500Y-80962500D01*
X73025000Y-73818750D02*
X73025000Y-80050000D01*
X74612500Y-94456250D02*
X73818750Y-93662500D01*
X115093750Y-94456250D02*
X74612500Y-94456250D01*
%TO.N,GND*%
X67945000Y-73818750D02*
X67945000Y-76384652D01*
X70485000Y-58578750D02*
X73025000Y-58578750D01*
X70485000Y-71278750D02*
X67945000Y-73818750D01*
X70485000Y-58578750D02*
X70485000Y-71278750D01*
X70485000Y-58578750D02*
X70485000Y-56800750D01*
X73025000Y-58578750D02*
X73025000Y-56800750D01*
X69268750Y-80656250D02*
X65668750Y-80656250D01*
X67945000Y-79332500D02*
X67945000Y-73818750D01*
X69268750Y-80656250D02*
X67945000Y-79332500D01*
X70485000Y-56012848D02*
X70485000Y-58578750D01*
X62803240Y-46005510D02*
X63893750Y-44915000D01*
X62803240Y-58432492D02*
X62803240Y-46005510D01*
X64216299Y-59845551D02*
X62803240Y-58432492D01*
X69218199Y-59845551D02*
X64216299Y-59845551D01*
X70485000Y-58578750D02*
X69218199Y-59845551D01*
X91849192Y-42862500D02*
X81756250Y-42862500D01*
X94460550Y-45473858D02*
X91849192Y-42862500D01*
X97670550Y-45473858D02*
X94460550Y-45473858D01*
X100674932Y-48478240D02*
X97670550Y-45473858D01*
X104314490Y-48478240D02*
X100674932Y-48478240D01*
X104475000Y-48638750D02*
X104314490Y-48478240D01*
D20*
%TO.N,Net-(U1-Pad28)*%
X93345000Y-68738750D02*
X95250000Y-68738750D01*
%TO.N,Net-(U1-Pad27)*%
X93345000Y-66198750D02*
X95250000Y-66198750D01*
%TO.N,Net-(U1-Pad26)*%
X93345000Y-63658750D02*
X95250000Y-63658750D01*
%TO.N,Net-(U1-Pad2)*%
X67945000Y-58578750D02*
X67945000Y-56800750D01*
X99319639Y-40943389D02*
X73491424Y-40943389D01*
X73491424Y-40943389D02*
X67468750Y-46966063D01*
X104475000Y-46098750D02*
X99319639Y-40943389D01*
X67468750Y-58102500D02*
X67945000Y-58578750D01*
X67468750Y-46966063D02*
X67468750Y-58102500D01*
%TO.N,Net-(R2-Pad2)*%
X65405000Y-58578750D02*
X65405000Y-56800750D01*
%TO.N,Net-(R1-Pad1)*%
X70485000Y-76270352D02*
X70485000Y-73818750D01*
X70485000Y-75596750D02*
X70485000Y-73818750D01*
X65668750Y-82856250D02*
X69268750Y-82856250D01*
X70218750Y-82856250D02*
X72112500Y-80962500D01*
X69268750Y-82856250D02*
X70218750Y-82856250D01*
X70485000Y-79335000D02*
X72112500Y-80962500D01*
X70485000Y-75596750D02*
X70485000Y-79335000D01*
%TO.N,ROW4*%
X93345000Y-61118750D02*
X95250000Y-61118750D01*
X107372849Y-126939651D02*
X108743750Y-125568750D01*
X86302151Y-126939651D02*
X107372849Y-126939651D01*
X84931250Y-125568750D02*
X86302151Y-126939651D01*
X131185349Y-126939651D02*
X132556250Y-125568750D01*
X110114651Y-126939651D02*
X131185349Y-126939651D01*
X108743750Y-125568750D02*
X110114651Y-126939651D01*
X133927151Y-126939651D02*
X202466599Y-126939651D01*
X132556250Y-125568750D02*
X133927151Y-126939651D01*
X203837500Y-125568750D02*
X203993750Y-125568750D01*
X202466599Y-126939651D02*
X203837500Y-125568750D01*
X274060349Y-126939651D02*
X275431250Y-125568750D01*
X205364651Y-126939651D02*
X274060349Y-126939651D01*
X203993750Y-125568750D02*
X205364651Y-126939651D01*
X297872849Y-126939651D02*
X299243750Y-125568750D01*
X276802151Y-126939651D02*
X297872849Y-126939651D01*
X275431250Y-125568750D02*
X276802151Y-126939651D01*
X321685349Y-126939651D02*
X323056250Y-125568750D01*
X300614651Y-126939651D02*
X321685349Y-126939651D01*
X299243750Y-125568750D02*
X300614651Y-126939651D01*
X345497849Y-126939651D02*
X346868750Y-125568750D01*
X324427151Y-126939651D02*
X345497849Y-126939651D01*
X323056250Y-125568750D02*
X324427151Y-126939651D01*
X90805000Y-120808750D02*
X89535000Y-120808750D01*
X89535000Y-120808750D02*
X84455000Y-125888750D01*
%TO.N,Net-(R2-Pad2)*%
X63893750Y-57067500D02*
X65405000Y-58578750D01*
X63893750Y-51150000D02*
X63893750Y-57067500D01*
%TO.N,Net-(R2-Pad1)*%
X63893750Y-46740000D02*
X63893750Y-49325000D01*
X63893750Y-49100962D02*
X63893750Y-49325000D01*
X104475000Y-43558750D02*
X100603750Y-39687500D01*
X63918251Y-46764501D02*
X63893750Y-46740000D01*
X66230211Y-46764501D02*
X63918251Y-46764501D01*
X73307212Y-39687500D02*
X66230211Y-46764501D01*
X100603750Y-39687500D02*
X73307212Y-39687500D01*
%TD*%
M02*
