M48
; DRILL file {KiCad (5.1.9)-1} date 02/27/21 14:08:52
; FORMAT={-:-/ absolute / inch / decimal}
; #@! TF.CreationDate,2021-02-27T14:08:52-05:00
; #@! TF.GenerationSoftware,Kicad,Pcbnew,(5.1.9)-1
FMAT,2
INCH
T1C0.0157
T2C0.0394
T3C0.0430
T4C0.0579
T5C0.0689
T6C0.0866
T7C0.1200
T8C0.1570
%
G90
G05
T1
X2.9062Y-3.6875
X3.025Y-3.6562
X3.175Y-2.0063
X3.2188Y-1.6875
X3.2472Y-2.1243
X3.3125Y-2.0938
X3.325Y-1.9062
X3.4375Y-2.0625
X3.5Y-2.1562
X3.525Y-1.9563
X3.575Y-4.7562
X3.75Y-2.25
X3.8125Y-2.125
X3.875Y-2.0938
X3.925Y-2.3562
X3.925Y-3.1562
X3.975Y-4.1562
X4.0Y-2.2188
X4.0312Y-2.2812
X4.5312Y-3.7188
X8.1562Y-2.2812
X8.8125Y-2.2188
X9.2188Y-2.0625
X10.2188Y-2.1562
X11.2153Y-2.25
X11.975Y-2.3562
X12.225Y-3.6562
T2
X4.1132Y-1.6149
X4.1132Y-1.7149
X4.1132Y-1.8149
X4.1132Y-1.9149
X4.1132Y-2.0149
X4.1132Y-2.1149
T3
X2.575Y-2.3062
X2.575Y-2.9062
X2.675Y-2.3062
X2.675Y-2.9062
X2.775Y-2.3062
X2.775Y-2.9062
X2.875Y-2.3062
X2.875Y-2.9062
X2.975Y-2.3062
X2.975Y-2.9062
X3.075Y-2.3062
X3.075Y-2.9062
X3.175Y-2.3062
X3.175Y-2.9062
X3.275Y-2.3062
X3.275Y-2.9062
X3.375Y-2.3062
X3.375Y-2.9062
X3.475Y-2.3062
X3.475Y-2.9062
X3.575Y-2.3062
X3.575Y-2.9062
X3.675Y-2.3152
X3.675Y-2.4062
X3.675Y-2.5063
X3.675Y-2.6062
X3.675Y-2.7062
X3.675Y-2.8062
X3.675Y-2.9062
T4
X2.7875Y-1.8062
X2.8391Y-1.7488
X2.8813Y-4.8062
X2.9328Y-4.7488
X2.975Y-2.5562
X3.0266Y-2.4988
X3.0359Y-1.7291
X3.0375Y-1.7063
X3.0688Y-3.3062
X3.1203Y-3.2488
X3.1297Y-4.7291
X3.1313Y-4.7062
X3.2234Y-2.4791
X3.225Y-2.4562
X3.2563Y-4.0562
X3.3078Y-3.9988
X3.3172Y-3.2291
X3.3188Y-3.2062
X3.5047Y-3.9791
X3.5063Y-3.9562
X3.5375Y-1.8062
X3.5891Y-1.7488
X3.7859Y-1.7291
X3.7875Y-1.7063
X3.8188Y-4.8062
X3.8703Y-4.7488
X3.9125Y-2.5562
X3.9641Y-2.4988
X4.0672Y-4.7291
X4.0687Y-4.7062
X4.1Y-3.3062
X4.1516Y-3.2488
X4.1609Y-2.4791
X4.1625Y-2.4562
X4.2875Y-1.8062
X4.3391Y-1.7488
X4.3484Y-3.2291
X4.35Y-3.2062
X4.475Y-4.0562
X4.5266Y-3.9988
X4.5359Y-1.7291
X4.5375Y-1.7063
X4.6625Y-2.5562
X4.7141Y-2.4988
X4.7234Y-3.9791
X4.725Y-3.9562
X4.7562Y-4.8062
X4.8078Y-4.7488
X4.85Y-3.3062
X4.9016Y-3.2488
X4.9109Y-2.4791
X4.9125Y-2.4562
X5.0047Y-4.7291
X5.0062Y-4.7062
X5.0375Y-1.8062
X5.0891Y-1.7488
X5.0984Y-3.2291
X5.1Y-3.2062
X5.225Y-4.0562
X5.2766Y-3.9988
X5.2859Y-1.7291
X5.2875Y-1.7063
X5.4125Y-2.5562
X5.4641Y-2.4988
X5.4734Y-3.9791
X5.475Y-3.9562
X5.6Y-3.3062
X5.6516Y-3.2488
X5.6609Y-2.4791
X5.6625Y-2.4562
X5.7875Y-1.8062
X5.8391Y-1.7488
X5.8484Y-3.2291
X5.85Y-3.2062
X5.975Y-4.0562
X6.0266Y-3.9988
X6.0359Y-1.7291
X6.0375Y-1.7063
X6.1625Y-2.5562
X6.2141Y-2.4988
X6.2234Y-3.9791
X6.225Y-3.9562
X6.35Y-3.3062
X6.4016Y-3.2488
X6.4109Y-2.4791
X6.4125Y-2.4562
X6.5375Y-1.8062
X6.5891Y-1.7488
X6.5984Y-3.2291
X6.6Y-3.2062
X6.725Y-4.0562
X6.7766Y-3.9988
X6.7859Y-1.7291
X6.7875Y-1.7063
X6.9125Y-2.5562
X6.9641Y-2.4988
X6.9734Y-3.9791
X6.975Y-3.9562
X7.1Y-3.3062
X7.1516Y-3.2488
X7.1609Y-2.4791
X7.1625Y-2.4562
X7.2875Y-1.8062
X7.3391Y-1.7488
X7.3484Y-3.2291
X7.35Y-3.2062
X7.475Y-4.0562
X7.5266Y-3.9988
X7.5359Y-1.7291
X7.5375Y-1.7063
X7.5687Y-4.8062
X7.6203Y-4.7488
X7.6625Y-2.5562
X7.7141Y-2.4988
X7.7234Y-3.9791
X7.725Y-3.9562
X7.8172Y-4.7291
X7.8187Y-4.7062
X7.85Y-3.3062
X7.9016Y-3.2488
X7.9109Y-2.4791
X7.9125Y-2.4562
X8.0375Y-1.8062
X8.0891Y-1.7488
X8.0984Y-3.2291
X8.1Y-3.2062
X8.225Y-4.0562
X8.2766Y-3.9988
X8.2859Y-1.7291
X8.2875Y-1.7063
X8.4125Y-2.5562
X8.4641Y-2.4988
X8.4734Y-3.9791
X8.475Y-3.9562
X8.6Y-3.3062
X8.6516Y-3.2488
X8.6609Y-2.4791
X8.6625Y-2.4562
X8.7875Y-1.8062
X8.8391Y-1.7488
X8.8484Y-3.2291
X8.85Y-3.2062
X8.975Y-4.0562
X9.0266Y-3.9988
X9.0359Y-1.7291
X9.0375Y-1.7063
X9.1625Y-2.5562
X9.2141Y-2.4988
X9.2234Y-3.9791
X9.225Y-3.9562
X9.35Y-3.3062
X9.4016Y-3.2488
X9.4109Y-2.4791
X9.4125Y-2.4562
X9.5375Y-1.8062
X9.5891Y-1.7488
X9.5984Y-3.2291
X9.6Y-3.2062
X9.725Y-4.0562
X9.7766Y-3.9988
X9.7859Y-1.7291
X9.7875Y-1.7063
X9.9125Y-2.5562
X9.9641Y-2.4988
X9.9734Y-3.9791
X9.975Y-3.9562
X10.1Y-3.3062
X10.1516Y-3.2488
X10.1609Y-2.4791
X10.1625Y-2.4562
X10.2875Y-1.8062
X10.3391Y-1.7488
X10.3484Y-3.2291
X10.35Y-3.2062
X10.3812Y-4.8062
X10.4328Y-4.7488
X10.475Y-4.0562
X10.5266Y-3.9988
X10.5359Y-1.7291
X10.5375Y-1.7063
X10.6297Y-4.7291
X10.6312Y-4.7062
X10.6625Y-2.5562
X10.7141Y-2.4988
X10.7234Y-3.9791
X10.725Y-3.9562
X10.85Y-3.3062
X10.9016Y-3.2488
X10.9109Y-2.4791
X10.9125Y-2.4562
X11.0375Y-1.8062
X11.0891Y-1.7488
X11.0984Y-3.2291
X11.1Y-3.2062
X11.225Y-4.0562
X11.2766Y-3.9988
X11.2859Y-1.7291
X11.2875Y-1.7063
X11.3187Y-4.8062
X11.3703Y-4.7488
X11.4125Y-2.5562
X11.4641Y-2.4988
X11.4734Y-3.9791
X11.475Y-3.9562
X11.5672Y-4.7291
X11.5687Y-4.7062
X11.6Y-3.3062
X11.6516Y-3.2488
X11.6609Y-2.4791
X11.6625Y-2.4562
X11.7875Y-1.8062
X11.8391Y-1.7488
X11.8484Y-3.2291
X11.85Y-3.2062
X12.0359Y-1.7291
X12.0375Y-1.7063
X12.1625Y-2.5562
X12.2141Y-2.4988
X12.2562Y-4.8062
X12.3078Y-4.7488
X12.4109Y-2.4791
X12.4125Y-2.4562
X12.5047Y-4.7291
X12.5062Y-4.7062
X12.6312Y-4.0562
X12.6828Y-3.9988
X12.8187Y-3.3062
X12.8703Y-3.2488
X12.8797Y-3.9791
X12.8812Y-3.9562
X12.9125Y-1.8062
X12.9641Y-1.7488
X13.0672Y-3.2291
X13.0687Y-3.2062
X13.1Y-2.5562
X13.1516Y-2.4988
X13.1609Y-1.7291
X13.1625Y-1.7063
X13.1937Y-4.8062
X13.2453Y-4.7488
X13.3484Y-2.4791
X13.35Y-2.4562
X13.4422Y-4.7291
X13.4437Y-4.7062
T5
X2.7375Y-1.9062
X2.8312Y-4.9062
X2.925Y-2.6562
X3.0187Y-3.4062
X3.1375Y-1.9062
X3.2062Y-4.1562
X3.2312Y-4.9062
X3.325Y-2.6562
X3.4187Y-3.4062
X3.4875Y-1.9062
X3.6062Y-4.1562
X3.7687Y-4.9062
X3.8625Y-2.6562
X3.8875Y-1.9062
X4.05Y-3.4062
X4.1688Y-4.9062
X4.2375Y-1.9062
X4.2625Y-2.6562
X4.425Y-4.1562
X4.45Y-3.4062
X4.6125Y-2.6562
X4.6375Y-1.9062
X4.7062Y-4.9062
X4.8Y-3.4062
X4.825Y-4.1562
X4.9875Y-1.9062
X5.0125Y-2.6562
X5.1063Y-4.9062
X5.175Y-4.1562
X5.2Y-3.4062
X5.3625Y-2.6562
X5.3875Y-1.9062
X5.55Y-3.4062
X5.575Y-4.1562
X5.7375Y-1.9062
X5.7625Y-2.6562
X5.925Y-4.1562
X5.95Y-3.4062
X6.1125Y-2.6562
X6.1375Y-1.9062
X6.3Y-3.4062
X6.325Y-4.1562
X6.4875Y-1.9062
X6.5125Y-2.6562
X6.675Y-4.1562
X6.7Y-3.4062
X6.8625Y-2.6562
X6.8875Y-1.9062
X7.05Y-3.4062
X7.075Y-4.1562
X7.2375Y-1.9062
X7.2625Y-2.6562
X7.425Y-4.1562
X7.45Y-3.4062
X7.5187Y-4.9062
X7.6125Y-2.6562
X7.6375Y-1.9062
X7.8Y-3.4062
X7.825Y-4.1562
X7.9188Y-4.9062
X7.9875Y-1.9062
X8.0125Y-2.6562
X8.175Y-4.1562
X8.2Y-3.4062
X8.3625Y-2.6562
X8.3875Y-1.9062
X8.55Y-3.4062
X8.575Y-4.1562
X8.7375Y-1.9062
X8.7625Y-2.6562
X8.925Y-4.1562
X8.95Y-3.4062
X9.1125Y-2.6562
X9.1375Y-1.9062
X9.3Y-3.4062
X9.325Y-4.1562
X9.4875Y-1.9062
X9.5125Y-2.6562
X9.675Y-4.1562
X9.7Y-3.4062
X9.8625Y-2.6562
X9.8875Y-1.9062
X10.05Y-3.4062
X10.075Y-4.1562
X10.2375Y-1.9062
X10.2625Y-2.6562
X10.3312Y-4.9062
X10.425Y-4.1562
X10.45Y-3.4062
X10.6125Y-2.6562
X10.6375Y-1.9062
X10.7312Y-4.9062
X10.8Y-3.4062
X10.825Y-4.1562
X10.9875Y-1.9062
X11.0125Y-2.6562
X11.175Y-4.1562
X11.2Y-3.4062
X11.2687Y-4.9062
X11.3625Y-2.6562
X11.3875Y-1.9062
X11.55Y-3.4062
X11.575Y-4.1562
X11.6687Y-4.9062
X11.7375Y-1.9062
X11.7625Y-2.6562
X11.95Y-3.4062
X12.1125Y-2.6562
X12.1375Y-1.9062
X12.2062Y-4.9062
X12.5125Y-2.6562
X12.5812Y-4.1562
X12.6062Y-4.9062
X12.7687Y-3.4062
X12.8625Y-1.9062
X12.9812Y-4.1562
X13.05Y-2.6562
X13.1437Y-4.9062
X13.1687Y-3.4062
X13.2625Y-1.9062
X13.45Y-2.6562
X13.5437Y-4.9062
T6
X2.5312Y-1.625
X2.5312Y-5.1562
X13.7188Y-1.625
X13.7188Y-5.1562
T7
X2.9362Y-3.8813
X3.8762Y-3.8813
X5.7503Y-4.6312
X9.6873Y-4.6312
X12.3112Y-3.8813
X12.4987Y-3.1313
X12.5925Y-1.6312
X13.2512Y-3.8813
X13.4387Y-3.1313
X13.5325Y-1.6312
T8
X2.9362Y-4.4813
X2.9375Y-1.9062
X3.0312Y-4.9062
X3.125Y-2.6562
X3.2188Y-3.4062
X3.4062Y-4.1562
X3.6875Y-1.9062
X3.8762Y-4.4813
X3.9688Y-4.9062
X4.0625Y-2.6562
X4.25Y-3.4062
X4.4375Y-1.9062
X4.625Y-4.1562
X4.8125Y-2.6562
X4.9062Y-4.9062
X5.0Y-3.4062
X5.1875Y-1.9062
X5.375Y-4.1562
X5.5625Y-2.6562
X5.75Y-3.4062
X5.7503Y-5.2313
X5.9375Y-1.9062
X6.125Y-4.1562
X6.3125Y-2.6562
X6.5Y-3.4062
X6.6875Y-1.9062
X6.875Y-4.1562
X7.0625Y-2.6562
X7.25Y-3.4062
X7.4375Y-1.9062
X7.625Y-4.1562
X7.7188Y-4.9062
X7.8125Y-2.6562
X8.0Y-3.4062
X8.1875Y-1.9062
X8.375Y-4.1562
X8.5625Y-2.6562
X8.75Y-3.4062
X8.9375Y-1.9062
X9.125Y-4.1562
X9.3125Y-2.6562
X9.5Y-3.4062
X9.6873Y-5.2313
X9.6875Y-1.9062
X9.875Y-4.1562
X10.0625Y-2.6562
X10.25Y-3.4062
X10.4375Y-1.9062
X10.5312Y-4.9062
X10.625Y-4.1562
X10.8125Y-2.6562
X11.0Y-3.4062
X11.1875Y-1.9062
X11.375Y-4.1562
X11.4688Y-4.9062
X11.5625Y-2.6562
X11.75Y-3.4062
X11.9375Y-1.9062
X12.3112Y-4.4813
X12.3125Y-2.6562
X12.4062Y-4.9062
X12.4987Y-3.7312
X12.5925Y-2.2312
X12.7812Y-4.1562
X12.9688Y-3.4062
X13.0625Y-1.9062
X13.25Y-2.6562
X13.2512Y-4.4813
X13.3438Y-4.9062
X13.4387Y-3.7312
X13.5325Y-2.2312
T0
M30
